 0
SECTION
 2
ENTITIES
  0
LINE
 8
Gruppe#27
10
20.998954236021248
20
27.147429308157058
30
0.011706000000467042
11
21.997732215286018
21
27.279779535018346
31
0.011706000000467042
  0
LINE
 8
Gruppe#27
10
21.997732215286018
20
27.279779535018346
30
0.011706000000467042
11
22.928222900851033
21
27.666122800121144
31
0.011706000000467042
  0
LINE
 8
Gruppe#27
10
22.928222900851033
20
27.666122800121144
30
0.011706000000467042
11
23.727014890203964
21
28.280130448411146
31
0.011706000000467042
  0
LINE
 8
Gruppe#27
10
23.727014890203964
20
28.280130448411146
30
0.011706000000467042
11
24.33967182933686
21
29.07995887335409
31
0.011706000000467042
  0
LINE
 8
Gruppe#27
10
24.33967182933686
20
29.07995887335409
30
0.011706000000467042
11
24.724442160310886
21
30.01110108956725
31
0.011706000000467042
  0
LINE
 8
Gruppe#27
10
24.724442160310886
20
30.01110108956725
30
0.011706000000467042
11
24.855104420933475
21
31.01010129380302
31
0.011706000000467042
  0
LINE
 8
Gruppe#27
10
24.855104420933475
20
31.01010129380302
30
0.011706000000467042
11
24.72275419407264
21
32.0088792730677
31
0.011706000000467042
  0
LINE
 8
Gruppe#27
10
24.72275419407264
20
32.0088792730677
30
0.011706000000467042
11
24.33641092897009
21
32.939369958632604
31
0.01170600000064752
  0
LINE
 8
Gruppe#27
10
24.33641092897009
20
32.939369958632604
30
0.01170600000064752
11
23.72240328067957
21
33.73816194798616
31
0.011706000000467042
  0
LINE
 8
Gruppe#27
10
23.72240328067957
20
33.73816194798616
30
0.011706000000467042
11
22.922574855736695
21
34.35081888711852
31
0.011706000000106086
  0
LINE
 8
Gruppe#27
10
22.922574855736695
20
34.35081888711852
30
0.011706000000106086
11
21.991432639522994
21
34.73558921809337
31
0.011706000000467042
  0
LINE
 8
Gruppe#27
10
21.991432639522994
20
34.73558921809337
30
0.011706000000467042
11
20.992432435287547
21
34.866251478715334
31
0.011706000000467042
  0
LINE
 8
Gruppe#27
10
20.943979027906952
20
35.03644534121695
30
0.011706000000106086
11
20.992432435287547
21
34.866251478715334
31
0.011706000000467042
  0
LINE
 8
Gruppe#27
10
20.943979027906952
20
35.03644534121695
30
0.011706000000106086
11
20.657424058049763
21
36.04297717819371
31
0.011706000000286564
  0
LINE
 8
Gruppe#27
10
20.657424058049763
20
36.04297717819371
30
0.011706000000286564
11
20.259639468787345
21
37.01095832994344
31
0.01170600000064752
  0
LINE
 8
Gruppe#27
10
20.259639468787345
20
37.01095832994344
30
0.01170600000064752
11
19.755658560649785
21
37.928140609444675
31
0.011706000000467042
  0
LINE
 8
Gruppe#27
10
19.755658560649785
20
37.928140609444675
30
0.011706000000467042
11
19.151858371461323
21
38.78291860467793
31
0.011706000000467042
  0
LINE
 8
Gruppe#27
10
19.151858371461323
20
38.78291860467793
30
0.011706000000467042
11
18.455878985564567
21
39.56447652575857
31
0.011706000000467042
  0
LINE
 8
Gruppe#27
10
18.455878985564567
20
39.56447652575857
30
0.011706000000467042
11
17.67652686129489
21
40.26292506072369
31
0.01170600000064752
  0
LINE
 8
Gruppe#27
10
17.67652686129489
20
40.26292506072369
30
0.01170600000064752
11
16.823663399937754
21
40.869426508273214
31
0.01170600000064752
  0
LINE
 8
Gruppe#27
10
16.823663399937754
20
40.869426508273214
30
0.01170600000064752
11
15.908080166143154
21
41.37630660414664
31
0.011706000000286564
  0
LINE
 8
Gruppe#27
10
15.908080166143154
20
41.37630660414664
30
0.011706000000286564
11
14.94136233867401
21
41.77715162613322
31
0.01170600000064752
  0
LINE
 8
Gruppe#27
10
14.94136233867401
20
41.77715162613322
30
0.01170600000064752
11
13.93574211929035
21
42.066889549030975
31
0.011706000000286564
  0
LINE
 8
Gruppe#27
10
12.03151578154733
20
42.29026100710789
30
0.011706000000467042
11
13.93574211929035
21
42.066889549030975
31
0.011706000000286564
  0
LINE
 8
Gruppe#27
10
11.859023529603354
20
42.299831760912674
30
0.011706000000467042
11
12.03151578154733
21
42.29026100710789
31
0.011706000000467042
  0
LINE
 8
Gruppe#27
10
3.485306450953056
20
43.29275698217329
30
0.011706000000467042
11
11.859023529603354
21
42.299831760912674
31
0.011706000000467042
  0
LINE
 8
Gruppe#27
10
3.486151372401113
20
42.2927573391195
30
0.011706000000467042
11
3.485306450953056
21
43.29275698217329
31
0.011706000000467042
  0
LINE
 8
Gruppe#27
10
0.24413101390461242
20
42.29001808560523
30
0.01170600000064752
11
3.486151372401113
21
42.2927573391195
31
0.011706000000467042
  0
LINE
 8
Gruppe#27
10
0.24413101390461242
20
42.29001808560523
30
0.01170600000064752
11
0.24582085680086252
21
40.290018799498
31
0.01170600000064752
  0
LINE
 8
Gruppe#27
10
11.860713372499415
20
40.29983247480454
30
0.011706000000467042
11
0.24582085680086252
21
40.290018799498
31
0.01170600000064752
  0
LINE
 8
Gruppe#27
10
12.681005240425511
20
40.2543184796666
30
0.011706000000467042
11
11.860713372499415
21
40.29983247480454
31
0.011706000000467042
  0
LINE
 8
Gruppe#27
10
13.490995765565348
20
40.11696629904161
30
0.011706000000467042
11
12.681005240425511
21
40.2543184796666
31
0.011706000000467042
  0
LINE
 8
Gruppe#27
10
14.280435868771159
20
39.88951389569298
30
0.011706000000286564
11
13.490995765565348
21
40.11696629904161
31
0.011706000000467042
  0
LINE
 8
Gruppe#27
10
15.03933650220898
20
39.574839300426326
30
0.01170600000064752
11
14.280435868771159
21
39.88951389569298
31
0.011706000000286564
  0
LINE
 8
Gruppe#27
10
15.758095044100035
20
39.17692419541342
30
0.011706000000286564
11
15.03933650220898
21
39.574839300426326
31
0.01170600000064752
  0
LINE
 8
Gruppe#27
10
16.427616803882202
20
38.70080353264262
30
0.011706000000467042
11
15.758095044100035
21
39.17692419541342
31
0.011706000000286564
  0
LINE
 8
Gruppe#27
10
17.039430100351364
20
38.15250182500201
30
0.011706000000467042
11
16.427616803882202
21
38.70080353264262
31
0.011706000000467042
  0
LINE
 8
Gruppe#27
10
17.58579345665723
20
37.53895691611147
30
0.011706000000467042
11
17.039430100351364
21
38.15250182500201
31
0.011706000000467042
  0
LINE
 8
Gruppe#27
10
18.059793555780896
20
36.867932193489835
30
0.011706000000467042
11
17.58579345665723
21
37.53895691611147
31
0.011706000000467042
  0
LINE
 8
Gruppe#27
10
18.45543271703196
20
36.14791835582959
30
0.011706000000286564
11
18.059793555780896
21
36.867932193489835
31
0.011706000000467042
  0
LINE
 8
Gruppe#27
10
18.767704786694157
20
35.388025977364926
30
0.011706000000467042
11
18.45543271703196
21
36.14791835582959
31
0.011706000000286564
  0
LINE
 8
Gruppe#27
10
18.992658482550233
20
34.597870228756456
30
0.011706000000467042
11
18.767704786694157
21
35.388025977364926
31
0.011706000000467042
  0
LINE
 8
Gruppe#27
10
19.00473411159312
20
20.305861474380798
30
0.011706000000106086
11
18.992658482550233
21
34.597870228756456
31
0.011706000000467042
  0
LINE
 8
Gruppe#27
10
16.004735182431787
20
20.303326710036227
30
1.8047785488306544e-13
11
19.00473411159312
21
20.305861474380798
31
0.011706000000106086
  0
LINE
 8
Gruppe#27
10
15.616549938354998
20
20.25188744507047
30
3.6095570976613087e-13
11
16.004735182431787
21
20.303326710036227
31
1.8047785488306544e-13
  0
LINE
 8
Gruppe#27
10
15.254905247156527
20
20.10173119635994
30
0.0
11
15.616549938354998
21
20.25188744507047
31
3.6095570976613087e-13
  0
LINE
 8
Gruppe#27
10
14.944446596894513
20
19.863090864108994
30
0.0
11
15.254905247156527
21
20.10173119635994
31
0.0
  0
LINE
 8
Gruppe#27
10
14.70633123152796
20
19.55222939258904
30
1.8047785488306544e-13
11
14.944446596894513
21
19.863090864108994
31
0.0
  0
LINE
 8
Gruppe#27
10
14.556786319702264
20
19.190331477360907
30
3.6095570976613087e-13
11
14.70633123152796
21
19.55222939258904
31
1.8047785488306544e-13
  0
LINE
 8
Gruppe#27
10
14.506003100023408
20
18.802059863283976
30
3.6095570976613087e-13
11
14.556786319702264
21
19.190331477360907
31
3.6095570976613087e-13
  0
LINE
 8
Gruppe#27
10
14.557442364989244
20
18.41387461920735
30
3.6095570976613087e-13
11
14.506003100023408
21
18.802059863283976
31
3.6095570976613087e-13
  0
LINE
 8
Gruppe#27
10
14.707598613700126
20
18.05222992800833
30
0.0
11
14.557442364989244
21
18.41387461920735
31
3.6095570976613087e-13
  0
LINE
 8
Gruppe#27
10
14.946238945951016
20
17.741771277746636
30
3.6095570976613087e-13
11
14.707598613700126
21
18.05222992800833
31
0.0
  0
LINE
 8
Gruppe#27
10
15.257100417470989
20
17.50365591237968
30
3.6095570976613087e-13
11
14.946238945951016
21
17.741771277746636
31
3.6095570976613087e-13
  0
LINE
 8
Gruppe#27
10
15.618998332698828
20
17.354111000554205
30
1.8047785488306544e-13
11
15.257100417470989
21
17.50365591237968
31
3.6095570976613087e-13
  0
LINE
 8
Gruppe#27
10
16.00726994677612
20
17.303327780874806
30
0.0
11
15.618998332698828
21
17.354111000554205
31
1.8047785488306544e-13
  0
LINE
 8
Gruppe#27
10
19.00726887593783
20
17.3058625452198
30
0.0
11
16.00726994677612
21
17.303327780874806
31
0.0
  0
LINE
 8
Gruppe#27
10
19.019097776210995
20
3.3058675424654727
30
1.8047785488306544e-13
11
19.00726887593783
21
17.3058625452198
31
0.0
  0
LINE
 8
Gruppe#27
10
16.019098847049882
20
3.3033327781214035
30
1.8047785488306544e-13
11
19.019097776210995
21
3.3058675424654727
31
1.8047785488306544e-13
  0
LINE
 8
Gruppe#27
10
15.63091360297302
20
3.2518935131554745
30
1.8047785488306544e-13
11
16.019098847049882
21
3.3033327781214035
31
1.8047785488306544e-13
  0
LINE
 8
Gruppe#27
10
15.269268911774075
20
3.101737264444759
30
3.6095570976613087e-13
11
15.63091360297302
21
3.2518935131554745
31
1.8047785488306544e-13
  0
LINE
 8
Gruppe#27
10
14.958810261512593
20
2.8630969321943636
30
3.6095570976613087e-13
11
15.269268911774075
21
3.101737264444759
31
3.6095570976613087e-13
  0
LINE
 8
Gruppe#27
10
14.720694896145837
20
2.552235460673716
30
3.6095570976613087e-13
11
14.958810261512593
21
2.8630969321943636
31
3.6095570976613087e-13
  0
LINE
 8
Gruppe#27
10
14.571149984319952
20
2.1903375454460567
30
3.6095570976613087e-13
11
14.720694896145837
21
2.552235460673716
31
3.6095570976613087e-13
  0
LINE
 8
Gruppe#27
10
14.52036676464119
20
1.8020659313688836
30
3.6095570976613087e-13
11
14.571149984319952
21
2.1903375454460567
31
3.6095570976613087e-13
  0
LINE
 8
Gruppe#27
10
14.571806029607265
20
1.413880687292353
30
1.8047785488306544e-13
11
14.52036676464119
21
1.8020659313688836
31
3.6095570976613087e-13
  0
LINE
 8
Gruppe#27
10
14.721962278318049
20
1.0522359960935734
30
0.0
11
14.571806029607265
21
1.413880687292353
31
1.8047785488306544e-13
  0
LINE
 8
Gruppe#27
10
14.960602610568895
20
0.7417773458313104
30
3.6095570976613087e-13
11
14.721962278318049
21
1.0522359960935734
31
0.0
  0
LINE
 8
Gruppe#27
10
15.27146408208907
20
0.5036619804650534
30
3.6095570976613087e-13
11
14.960602610568895
21
0.7417773458313104
31
3.6095570976613087e-13
  0
LINE
 8
Gruppe#27
10
15.633361997316777
20
0.35411706863904924
30
3.6095570976613087e-13
11
15.27146408208907
21
0.5036619804650534
31
3.6095570976613087e-13
  0
LINE
 8
Gruppe#27
10
16.021633611393973
20
0.30333384895988613
30
0.0
11
15.633361997316777
21
0.35411706863904924
31
3.6095570976613087e-13
  0
LINE
 8
Gruppe#27
10
21.021631826663167
20
0.3075584562010232
30
0.0
11
16.021633611393973
21
0.30333384895988613
31
0.0
  0
LINE
 8
Gruppe#27
10
21.021631826663167
20
0.3075584562010232
30
0.0
11
20.998954236021248
21
27.147429308157058
31
0.011706000000467042
 0
ENDSEC
 0
EOF
