 0
SECTION
 2
ENTITIES
  0
LINE
 8
Arm
10
174.16352156605046
20
79.10270700713606
30
0.0
11
174.24892851496426
21
79.06271890362184
31
0.0
  0
LINE
 8
Arm
10
174.08100022574573
20
79.14835373472677
30
0.0
11
174.16352156605046
21
79.10270700713606
31
0.0
  0
LINE
 8
Arm
10
174.00173886951305
20
79.199452000388
30
0.0
11
174.08100022574573
21
79.14835373472677
31
0.0
  0
LINE
 8
Arm
10
173.92609708321
20
79.25576998606161
30
0.0
11
174.00173886951305
21
79.199452000388
31
0.0
  0
LINE
 8
Arm
10
173.85441803175215
20
79.31705219332888
30
0.0
11
173.92609708321
21
79.25576998606161
31
0.0
  0
LINE
 8
Arm
10
173.78702690227274
20
79.38302060253291
30
0.0
11
173.85441803175215
21
79.31705219332888
31
0.0
  0
LINE
 8
Arm
10
173.72422942884225
20
79.4533759340735
30
0.0
11
173.78702690227274
21
79.38302060253291
31
0.0
  0
LINE
 8
Arm
10
173.6663105054423
20
79.52779900615215
30
0.0
11
173.72422942884225
21
79.4533759340735
31
0.0
  0
LINE
 8
Arm
10
173.6135328934831
20
79.60595218280744
30
0.0
11
173.6663105054423
21
79.52779900615215
31
0.0
  0
LINE
 8
Arm
10
173.56613602973135
20
79.68748090567206
30
0.0
11
173.6135328934831
21
79.60595218280744
31
0.0
  0
LINE
 8
Arm
10
171.92559383865017
20
83.2996714388287
30
0.0
11
173.5258289860837
21
79.76899389131705
31
0.0
  0
LINE
 8
Arm
10
173.5258289860837
20
79.76899389131705
30
0.0
11
173.56613602973135
21
79.68748090567206
31
0.0
  0
LINE
 8
Arm
10
172.19786531397017
20
84.85447183826813
30
0.0
11
172.13512817882938
21
84.78562345109876
31
0.0
  0
LINE
 8
Arm
10
172.13512817882938
20
84.78562345109876
30
0.0
11
172.0771080090423
21
84.71275570487762
31
0.0
  0
LINE
 8
Arm
10
172.0771080090423
20
84.71275570487762
30
0.0
11
172.0240616341031
21
84.63619115271858
31
0.0
  0
LINE
 8
Arm
10
172.0240616341031
20
84.63619115271858
30
0.0
11
171.9762238667286
21
84.55626871185183
31
0.0
  0
LINE
 8
Arm
10
171.9762238667286
20
84.55626871185183
30
0.0
11
171.93380646344474
21
84.4733421633878
31
0.0
  0
LINE
 8
Arm
10
171.93380646344474
20
84.4733421633878
30
0.0
11
171.89699718723662
21
84.38777858628563
31
0.0
  0
LINE
 8
Arm
10
171.89699718723662
20
84.38777858628563
30
0.0
11
171.86595897640353
21
84.29995673245772
31
0.0
  0
LINE
 8
Arm
10
171.86595897640353
20
84.29995673245772
30
0.0
11
171.8408292233046
21
84.21026535020346
31
0.0
  0
LINE
 8
Arm
10
171.8408292233046
20
84.21026535020346
30
0.0
11
171.8217191661836
21
84.11910146339336
31
0.0
  0
LINE
 8
Arm
10
171.8217191661836
20
84.11910146339336
30
0.0
11
171.80871339676685
21
84.02686861402088
31
0.0
  0
LINE
 8
Arm
10
171.80871339676685
20
84.02686861402088
30
0.0
11
171.80186948581263
21
83.93397507590147
31
0.0
  0
LINE
 8
Arm
10
171.80186948581263
20
83.93397507590147
30
0.0
11
171.80121772827178
21
83.84083204742592
31
0.0
  0
LINE
 8
Arm
10
171.80121772827178
20
83.84083204742592
30
0.0
11
171.80676100918532
21
83.74785183136787
31
0.0
  0
LINE
 8
Arm
10
171.80676100918532
20
83.74785183136787
30
0.0
11
171.81847479091337
21
83.65544600980277
31
0.0
  0
LINE
 8
Arm
10
171.81847479091337
20
83.65544600980277
30
0.0
11
171.83630722175215
21
83.56402362221708
31
0.0
  0
LINE
 8
Arm
10
171.83630722175215
20
83.56402362221708
30
0.0
11
171.86017936545926
21
83.47398935487226
31
0.0
  0
LINE
 8
Arm
10
171.86017936545926
20
83.47398935487226
30
0.0
11
171.88998555066843
21
83.38574174943864
31
0.0
  0
LINE
 8
Arm
10
171.88998555066843
20
83.38574174943864
30
0.0
11
171.92559383865017
21
83.2996714388287
31
0.0
  0
LINE
 8
Arm
10
179.19181679185795
20
172.17405555289895
30
0.0
11
179.07887756845295
21
172.00787053225474
31
0.0
  0
LINE
 8
Arm
10
180.20576966759484
20
172.77370561200655
30
0.0
11
180.00967904199635
21
172.72987416413747
31
0.0
  0
LINE
 8
Arm
10
180.6066381129687
20
172.78630341041918
30
0.0
11
180.40580759713427
21
172.79261476363948
31
0.0
  0
LINE
 8
Arm
10
180.8050939978935
20
172.75487108615633
30
0.0
11
180.6066381129687
21
172.78630341041918
31
0.0
  0
LINE
 8
Arm
10
181.18244961124256
20
172.6190147057556
30
0.0
11
180.99804548405163
21
172.69881349738097
31
0.0
  0
LINE
 8
Arm
10
179.47541352581422
20
172.4576522868552
30
0.0
11
179.32469396176046
21
172.3247751169527
31
0.0
  0
LINE
 8
Arm
10
181.83648742677403
20
168.32423626084415
30
0.0
11
181.97915216185925
21
168.34031071596618
31
0.0
  0
LINE
 8
Arm
10
181.54971385602954
20
168.33067252508928
30
0.0
11
181.6929561149214
21
168.32101488501044
31
0.0
  0
LINE
 8
Arm
10
182.25730351692312
20
168.41039873242502
30
0.0
11
182.3905506257412
21
168.46384798626426
31
0.0
  0
LINE
 8
Arm
10
179.6415985464586
20
172.5705915102605
30
0.0
11
179.47541352581422
21
172.4576522868552
31
0.0
  0
LINE
 8
Arm
10
182.3905506257412
20
168.46384798626426
30
0.0
11
182.51847016669777
21
168.52902624786935
31
0.0
  0
LINE
 8
Arm
10
180.00967904199635
20
172.72987416413747
30
0.0
11
179.8206281866435
21
172.66181166814872
31
0.0
  0
LINE
 8
Arm
10
180.6493841443035
20
168.73962166493862
30
0.0
11
180.75959294764954
21
168.6476127827076
31
0.0
  0
LINE
 8
Arm
10
181.13318716435165
20
168.43562807928794
30
0.0
11
181.26869809390345
21
168.3882107542225
31
0.0
  0
LINE
 8
Arm
10
182.11980166761546
20
168.3691088283157
30
0.0
11
182.25730351692312
21
168.41039873242502
31
0.0
  0
LINE
 8
Arm
10
181.51416379617703
20
172.39358197846295
30
0.0
11
181.3553982162226
21
172.51673318589354
31
0.0
  0
LINE
 8
Arm
10
181.97915216185925
20
168.34031071596618
30
0.0
11
182.11980166761546
21
168.3691088283157
31
0.0
  0
LINE
 8
Arm
10
181.40791395254163
20
168.35313142344123
30
0.0
11
181.54971385602954
21
168.33067252508928
31
0.0
  0
LINE
 8
Arm
10
181.26869809390345
20
168.3882107542225
30
0.0
11
181.40791395254163
21
168.35313142344123
31
0.0
  0
LINE
 8
Arm
10
179.25588710025033
20
170.13530528253642
30
0.0
11
180.6493841443035
21
168.73962166493862
31
0.0
  0
LINE
 8
Arm
10
180.8776056953703
20
168.5658533421531
30
0.0
11
181.00247221821152
21
168.49500162221696
31
0.0
  0
LINE
 8
Arm
10
181.3553982162226
20
172.51673318589354
30
0.0
11
181.18244961124256
21
172.6190147057556
31
0.0
  0
LINE
 8
Arm
10
181.6929561149214
20
168.32101488501044
30
0.0
11
181.83648742677403
21
168.32423626084415
31
0.0
  0
LINE
 8
Arm
10
178.95065558133248
20
170.65142359466174
30
0.0
11
179.03045437295768
21
170.46701946747098
31
0.0
  0
LINE
 8
Arm
10
179.8206281866435
20
172.66181166814872
30
0.0
11
179.6415985464586
21
172.5705915102605
31
0.0
  0
LINE
 8
Arm
10
180.75959294764954
20
168.6476127827076
30
0.0
11
180.8776056953703
21
168.5658533421531
31
0.0
  0
LINE
 8
Arm
10
182.51847016669777
20
168.52902624786935
30
0.0
11
182.64003220686433
21
168.60540874020177
31
0.0
  0
LINE
 8
Arm
10
181.00247221821152
20
168.49500162221696
30
0.0
11
181.13318716435165
21
168.43562807928794
31
0.0
  0
LINE
 8
Arm
10
182.64003220686433
20
168.60540874020177
30
0.0
11
182.75425800017098
21
168.69238047634553
31
0.0
  0
LINE
 8
Arm
10
182.75425800017098
20
168.69238047634553
30
0.0
11
182.86022786769325
21
168.78924121101983
31
0.0
  0
LINE
 8
Arm
10
182.86022786769325
20
168.78924121101983
30
0.0
11
182.95708860236778
21
168.89521107854233
31
0.0
  0
LINE
 8
Arm
10
182.95708860236778
20
168.89521107854233
30
0.0
11
183.04406033851149
21
169.0094368718489
31
0.0
  0
LINE
 8
Arm
10
183.04406033851149
20
169.0094368718489
30
0.0
11
183.12044283084396
21
169.13099891201546
31
0.0
  0
LINE
 8
Arm
10
183.12044283084396
20
169.13099891201546
30
0.0
11
183.18562109244905
21
169.258918452972
31
0.0
  0
LINE
 8
Arm
10
183.18562109244905
20
169.258918452972
30
0.0
11
183.23907034628826
21
169.3921655617901
31
0.0
  0
LINE
 8
Arm
10
183.23907034628826
20
169.3921655617901
30
0.0
11
183.28036025039742
21
169.5296674110978
31
0.0
  0
LINE
 8
Arm
10
183.31879655362397
20
170.0997552226837
30
0.0
11
183.2963376552719
21
170.24155512617165
31
0.0
  0
LINE
 8
Arm
10
183.30915836274698
20
169.67031691685403
30
0.0
11
183.32523281786905
21
169.81298165193914
31
0.0
  0
LINE
 8
Arm
10
179.13273589281997
20
170.29407086249074
30
0.0
11
179.25588710025033
21
170.13530528253642
31
0.0
  0
LINE
 8
Arm
10
179.03045437295768
20
170.46701946747098
30
0.0
11
179.13273589281997
21
170.29407086249074
31
0.0
  0
LINE
 8
Arm
10
178.86316566829413
20
171.04283096574466
30
0.0
11
178.89459799255712
21
170.8443750808197
31
0.0
  0
LINE
 8
Arm
10
178.85685431507406
20
171.24366148157918
30
0.0
11
178.86316566829413
21
171.04283096574466
31
0.0
  0
LINE
 8
Arm
10
178.87576346670707
20
171.44369941111862
30
0.0
11
178.85685431507406
21
171.24366148157918
31
0.0
  0
LINE
 8
Arm
10
178.91959491457607
20
171.639790036717
30
0.0
11
178.87576346670707
21
171.44369941111862
31
0.0
  0
LINE
 8
Arm
10
178.9876574105649
20
171.82884089206982
30
0.0
11
178.91959491457607
21
171.639790036717
31
0.0
  0
LINE
 8
Arm
10
179.07887756845295
20
172.00787053225474
30
0.0
11
178.9876574105649
21
171.82884089206982
31
0.0
  0
LINE
 8
Arm
10
179.32469396176046
20
172.3247751169527
30
0.0
11
179.19181679185795
21
172.17405555289895
31
0.0
  0
LINE
 8
Arm
10
180.99804548405163
20
172.69881349738097
30
0.0
11
180.8050939978935
21
172.75487108615633
31
0.0
  0
LINE
 8
Arm
10
183.32845419370295
20
169.95651296379168
30
0.0
11
183.31879655362397
21
170.0997552226837
31
0.0
  0
LINE
 8
Arm
10
183.32523281786905
20
169.81298165193914
30
0.0
11
183.32845419370295
21
169.95651296379168
31
0.0
  0
LINE
 8
Arm
10
183.2612583244907
20
170.3807709848097
30
0.0
11
183.2138409994253
21
170.51628191436157
31
0.0
  0
LINE
 8
Arm
10
180.40580759713427
20
172.79261476363948
30
0.0
11
180.20576966759484
21
172.77370561200655
31
0.0
  0
LINE
 8
Arm
10
178.89459799255712
20
170.8443750808197
30
0.0
11
178.95065558133248
21
170.65142359466174
31
0.0
  0
LINE
 8
Arm
10
183.28036025039742
20
169.5296674110978
30
0.0
11
183.30915836274698
21
169.67031691685403
31
0.0
  0
LINE
 8
Arm
10
183.2963376552719
20
170.24155512617165
30
0.0
11
183.2612583244907
21
170.3807709848097
31
0.0
  0
LINE
 8
Arm
10
181.51416379617703
20
172.39358197846295
30
0.0
11
182.90984741377454
21
171.00008493440973
31
0.0
  0
LINE
 8
Arm
10
183.00185629600566
20
170.88987613106374
30
0.0
11
182.90984741377454
21
171.00008493440973
31
0.0
  0
LINE
 8
Arm
10
183.08361573656018
20
170.77186338334295
30
0.0
11
183.00185629600566
21
170.88987613106374
31
0.0
  0
LINE
 8
Arm
10
183.1544674564962
20
170.64699686050167
30
0.0
11
183.08361573656018
21
170.77186338334295
31
0.0
  0
LINE
 8
Arm
10
183.2138409994253
20
170.51628191436157
30
0.0
11
183.1544674564962
21
170.64699686050167
31
0.0
  0
LINE
 8
Arm
10
168.30235899051158
20
161.25160836330915
30
0.0
11
168.4457818847572
21
161.25804949291663
31
0.0
  0
LINE
 8
Arm
10
168.15893609626616
20
161.25804949291665
30
0.0
11
168.30235899051158
21
161.25160836330915
31
0.0
  0
LINE
 8
Arm
10
174.8111938421069
20
84.52780566014475
30
0.0
11
174.76478557069822
21
84.5293465817847
31
0.0
  0
LINE
 8
Arm
10
174.76478557069822
20
84.5293465817847
30
0.0
11
174.7189896923474
21
84.53701728062765
31
0.0
  0
LINE
 8
Arm
10
174.7189896923474
20
84.53701728062765
30
0.0
11
174.67461225268133
21
84.55068274598112
31
0.0
  0
LINE
 8
Arm
10
174.67461225268133
20
84.55068274598112
30
0.0
11
174.63243433162302
21
84.57010245426568
31
0.0
  0
LINE
 8
Arm
10
174.63243433162302
20
84.57010245426568
30
0.0
11
174.59319829573556
21
84.59493460243063
31
0.0
  0
LINE
 8
Arm
10
174.59319829573556
20
84.59493460243063
30
0.0
11
174.5575947319508
21
84.62474212397254
31
0.0
  0
LINE
 8
Arm
10
174.5575947319508
20
84.62474212397254
30
0.0
11
174.52625029266423
21
84.65900038166993
31
0.0
  0
LINE
 8
Arm
10
174.52625029266423
20
84.65900038166993
30
0.0
11
174.4549548051655
21
84.75469199348179
31
0.0
  0
LINE
 8
Arm
10
174.4549548051655
20
84.75469199348179
30
0.0
11
174.39202024326707
21
84.82770835504203
31
0.0
  0
LINE
 8
Arm
10
174.39202024326707
20
84.82770835504203
30
0.0
11
174.32431906034606
21
84.89612669334025
31
0.0
  0
LINE
 8
Arm
10
174.32431906034606
20
84.89612669334025
30
0.0
11
174.2520775245932
21
84.95973235107968
31
0.0
  0
LINE
 8
Arm
10
174.2520775245932
20
84.95973235107968
30
0.0
11
174.17563699165032
21
85.01822477886142
31
0.0
  0
LINE
 8
Arm
10
174.17563699165032
20
85.01822477886142
30
0.0
11
174.09535865825734
21
85.07132758831669
31
0.0
  0
LINE
 8
Arm
10
174.09535865825734
20
85.07132758831669
30
0.0
11
174.01162185552536
21
85.11878985809636
31
0.0
  0
LINE
 8
Arm
10
174.01162185552536
20
85.11878985809636
30
0.0
11
173.92482225652176
21
85.16038731952446
31
0.0
  0
LINE
 8
Arm
10
173.92482225652176
20
85.16038731952446
30
0.0
11
173.83537000663696
21
85.19592341631228
31
0.0
  0
LINE
 8
Arm
10
173.83537000663696
20
85.19592341631228
30
0.0
11
173.74368778556345
21
85.22523023332647
31
0.0
  0
LINE
 8
Arm
10
173.74368778556345
20
85.22523023332647
30
0.0
11
173.65020881005313
21
85.24816929002026
31
0.0
  0
LINE
 8
Arm
10
173.65020881005313
20
85.24816929002026
30
0.0
11
173.55537478688072
21
85.26463219478322
31
0.0
  0
LINE
 8
Arm
10
173.55537478688072
20
85.26463219478322
30
0.0
11
173.45963382568863
21
85.27454115711215
31
0.0
  0
LINE
 8
Arm
10
173.45963382568863
20
85.27454115711215
30
0.0
11
173.3703143612377
21
85.27761288570345
31
0.0
  0
LINE
 8
Arm
10
173.3703143612377
20
85.27761288570345
30
0.0
11
173.20073449127807
21
85.27761288570349
31
0.0
  0
LINE
 8
Arm
10
173.20073449127807
20
85.27761288570349
30
0.0
11
173.10764073590664
21
85.27451429693865
31
0.0
  0
LINE
 8
Arm
10
173.10764073590664
20
85.27451429693865
30
0.0
11
173.01495906519878
21
85.26523224671898
31
0.0
  0
LINE
 8
Arm
10
173.01495906519878
20
85.26523224671898
30
0.0
11
172.92309973970237
21
85.24980782255372
31
0.0
  0
LINE
 8
Arm
10
172.92309973970237
20
85.24980782255372
30
0.0
11
172.83246937980869
21
85.22830930151066
31
0.0
  0
LINE
 8
Arm
10
172.83246937980869
20
85.22830930151066
30
0.0
11
172.74346916582485
21
85.20083184798375
31
0.0
  0
LINE
 8
Arm
10
172.74346916582485
20
85.20083184798375
30
0.0
11
172.6564930621268
21
85.16749709244269
31
0.0
  0
LINE
 8
Arm
10
172.6564930621268
20
85.16749709244269
30
0.0
11
172.57192607325385
21
85.12845259302888
31
0.0
  0
LINE
 8
Arm
10
172.26504170506155
20
84.91899610518715
30
0.0
11
172.19786531397017
21
84.85447183826813
31
0.0
  0
LINE
 8
Arm
10
172.57192607325385
20
85.12845259302888
30
0.0
11
172.49014253966587
21
85.08387118238117
31
0.0
  0
LINE
 8
Arm
10
172.49014253966587
20
85.08387118238117
30
0.0
11
172.41150448070297
21
85.03395020258272
31
0.0
  0
LINE
 8
Arm
10
172.41150448070297
20
85.03395020258272
30
0.0
11
172.33635999208803
21
84.97891063161507
31
0.0
  0
LINE
 8
Arm
10
175.1442031612718
20
84.75469199348186
30
0.0
11
175.08680711554558
21
84.67761288570333
31
0.0
  0
LINE
 8
Arm
10
174.8801682740897
20
84.53701728062765
30
0.0
11
174.8111938421069
21
84.52780566014475
31
0.0
  0
LINE
 8
Arm
10
175.20713772317023
20
84.82770835504195
30
0.0
11
175.1442031612718
21
84.75469199348186
31
0.0
  0
LINE
 8
Arm
10
175.27483890609088
20
84.89612669334012
30
0.0
11
175.20713772317023
21
84.82770835504195
31
0.0
  0
LINE
 8
Arm
10
175.34708044184427
20
84.95973235107982
30
0.0
11
175.27483890609088
21
84.89612669334012
31
0.0
  0
LINE
 8
Arm
10
175.42352097478715
20
85.01822477886147
30
0.0
11
175.34708044184427
21
84.95973235107982
31
0.0
  0
LINE
 8
Arm
10
175.50379930817996
20
85.07132758831665
30
0.0
11
175.42352097478715
21
85.01822477886147
31
0.0
  0
LINE
 8
Arm
10
175.5875361109121
20
85.11878985809632
30
0.0
11
175.50379930817996
21
85.07132758831665
31
0.0
  0
LINE
 8
Arm
10
175.6743357099155
20
85.16038731952439
30
0.0
11
175.5875361109121
21
85.11878985809632
31
0.0
  0
LINE
 8
Arm
10
175.76378795980054
20
85.19592341631221
30
0.0
11
175.6743357099155
21
85.16038731952439
31
0.0
  0
LINE
 8
Arm
10
175.9489491563838
20
85.24816929002021
30
0.0
11
175.85547018087368
21
85.22523023332622
31
0.0
  0
LINE
 8
Arm
10
177.40129265246694
20
84.85447183826814
30
0.0
11
177.33411626137573
21
84.91899610518715
31
0.0
  0
LINE
 8
Arm
10
177.52204995739498
20
84.71275570487767
30
0.0
11
177.46402978760773
21
84.7856234510988
31
0.0
  0
LINE
 8
Arm
10
177.10901542677144
20
85.08387118238116
30
0.0
11
177.02723189318328
21
85.12845259302881
31
0.0
  0
LINE
 8
Arm
10
176.9426649043105
20
85.16749709244263
30
0.0
11
176.85568880061246
21
85.20083184798368
31
0.0
  0
LINE
 8
Arm
10
177.62293409970871
20
84.55626871185191
30
0.0
11
177.575096332334
21
84.63619115271865
31
0.0
  0
LINE
 8
Arm
10
176.3984234751592
20
85.27761288570338
30
0.0
11
176.22884360519978
21
85.2776128857034
31
0.0
  0
LINE
 8
Arm
10
177.575096332334
20
84.63619115271865
30
0.0
11
177.52204995739498
21
84.71275570487767
31
0.0
  0
LINE
 8
Arm
10
176.85568880061246
20
85.20083184798368
30
0.0
11
176.7666885866286
21
85.22830930151058
31
0.0
  0
LINE
 8
Arm
10
176.7666885866286
20
85.22830930151058
30
0.0
11
176.67605822673494
21
85.24980782255363
31
0.0
  0
LINE
 8
Arm
10
177.18765348573433
20
85.03395020258269
30
0.0
11
177.10901542677144
21
85.08387118238116
31
0.0
  0
LINE
 8
Arm
10
175.85547018087368
20
85.22523023332622
30
0.0
11
175.76378795980054
21
85.19592341631221
31
0.0
  0
LINE
 8
Arm
10
176.58419890123852
20
85.26523224671887
30
0.0
11
176.49151723053063
21
85.27451429693856
31
0.0
  0
LINE
 8
Arm
10
176.04378317955658
20
85.26463219478319
30
0.0
11
175.9489491563838
21
85.24816929002021
31
0.0
  0
LINE
 8
Arm
10
177.2627979743491
20
84.97891063161507
30
0.0
11
177.18765348573433
21
85.03395020258269
31
0.0
  0
LINE
 8
Arm
10
176.67605822673494
20
85.24980782255363
30
0.0
11
176.58419890123852
21
85.26523224671887
31
0.0
  0
LINE
 8
Arm
10
172.33635999208803
20
84.97891063161507
30
0.0
11
172.26504170506155
21
84.91899610518715
31
0.0
  0
LINE
 8
Arm
10
175.08680711554558
20
84.67761288570333
30
0.0
11
175.0578042028575
21
84.64135087872279
31
0.0
  0
LINE
 8
Arm
10
187.0359145988439
20
97.26226497561282
30
0.0
11
186.1099322372091
21
95.91482667939688
31
0.0
  0
LINE
 8
Arm
10
176.22884360519978
20
85.2776128857034
30
0.0
11
176.13952414074868
21
85.27454115711213
31
0.0
  0
LINE
 8
Arm
10
175.0578042028575
20
84.64135087872279
30
0.0
11
175.02425631109207
21
84.6092472799719
31
0.0
  0
LINE
 8
Arm
10
175.02425631109207
20
84.6092472799719
30
0.0
11
174.98675391110442
21
84.58186713954471
31
0.0
  0
LINE
 8
Arm
10
174.98675391110442
20
84.58186713954471
30
0.0
11
174.9459570763895
21
84.55969237073201
31
0.0
  0
LINE
 8
Arm
10
177.79044456967046
20
84.02686861402108
30
0.0
11
177.7774388002535
21
84.11910146339353
31
0.0
  0
LINE
 8
Arm
10
174.9459570763895
20
84.55969237073201
30
0.0
11
174.8801682740897
21
84.53701728062765
31
0.0
  0
LINE
 8
Arm
10
177.66535150299237
20
84.47334216338791
30
0.0
11
177.62293409970871
21
84.55626871185191
31
0.0
  0
LINE
 8
Arm
10
177.46402978760773
20
84.7856234510988
30
0.0
11
177.40129265246694
21
84.85447183826814
31
0.0
  0
LINE
 8
Arm
10
176.13952414074868
20
85.27454115711213
30
0.0
11
176.04378317955658
21
85.26463219478319
31
0.0
  0
LINE
 8
Arm
10
177.33411626137573
20
84.91899610518715
30
0.0
11
177.2627979743491
21
84.97891063161507
31
0.0
  0
LINE
 8
Arm
10
177.7774388002535
20
84.11910146339353
30
0.0
11
177.7583287431327
21
84.21026535020361
31
0.0
  0
LINE
 8
Arm
10
177.7583287431327
20
84.21026535020361
30
0.0
11
177.73319899003377
21
84.29995673245786
31
0.0
  0
LINE
 8
Arm
10
177.73319899003377
20
84.29995673245786
30
0.0
11
177.70216077920068
21
84.38777858628575
31
0.0
  0
LINE
 8
Arm
10
177.70216077920068
20
84.38777858628575
30
0.0
11
177.66535150299237
21
84.47334216338791
31
0.0
  0
LINE
 8
Arm
10
184.4345615226237
20
93.10762216567372
30
0.0
11
183.68822488335516
21
91.65296931462873
31
0.0
  0
LINE
 8
Arm
10
183.0046372817728
20
90.16779549075126
30
0.0
11
182.38504388327124
21
88.65480596114404
31
0.0
  0
LINE
 8
Arm
10
183.68822488335516
20
91.65296931462873
30
0.0
11
183.0046372817728
21
90.16779549075126
31
0.0
  0
LINE
 8
Arm
10
189.05604294712643
20
99.83254621890572
30
0.0
11
188.01854812954375
21
98.56896488014804
31
0.0
  0
LINE
 8
Arm
10
186.1099322372091
20
95.91482667939688
30
0.0
11
185.24228773584053
21
94.52910437120788
31
0.0
  0
LINE
 8
Arm
10
185.24228773584053
20
94.52910437120788
30
0.0
11
184.4345615226237
21
93.10762216567372
31
0.0
  0
LINE
 8
Arm
10
190.14650923872736
20
101.0507073589239
30
0.0
11
189.05604294712643
21
99.83254621890572
31
0.0
  0
LINE
 8
Arm
10
191.28796070312134
20
102.22122940083534
30
0.0
11
190.14650923872736
21
101.0507073589239
31
0.0
  0
LINE
 8
Arm
10
188.01854812954375
20
98.56896488014804
30
0.0
11
187.0359145988439
21
97.26226497561282
31
0.0
  0
LINE
 8
Arm
10
192.47831816880267
20
103.34198022062742
30
0.0
11
191.28796070312134
21
102.22122940083534
31
0.0
  0
LINE
 8
Arm
10
193.71541338122722
20
104.4109183533386
30
0.0
11
192.47831816880267
21
103.34198022062742
31
0.0
  0
LINE
 8
Arm
10
176.49151723053063
20
85.27451429693856
30
0.0
11
176.3984234751592
21
85.27761288570338
31
0.0
  0
LINE
 8
Arm
10
177.02723189318328
20
85.12845259302881
30
0.0
11
176.9426649043105
21
85.16749709244263
31
0.0
  0
LINE
 8
Arm
10
179.0101449886444
20
177.72231998606154
30
0.0
11
178.95871510169258
21
177.94148834943542
31
0.0
  0
LINE
 8
Arm
10
178.95871510169258
20
177.94148834943542
30
0.0
11
178.89588531173823
21
178.15766471787134
31
0.0
  0
LINE
 8
Arm
10
178.89588531173823
20
178.15766471787134
30
0.0
11
178.82182783086793
21
178.3702565669696
31
0.0
  0
LINE
 8
Arm
10
178.82182783086793
20
178.3702565669696
30
0.0
11
178.73674564548944
21
178.57868119724878
31
0.0
  0
LINE
 8
Arm
10
178.73674564548944
20
178.57868119724878
30
0.0
11
178.64087195995864
21
178.78236733128514
31
0.0
  0
LINE
 8
Arm
10
178.64087195995864
20
178.78236733128514
30
0.0
11
178.5344695573838
21
178.98075667954285
31
0.0
  0
LINE
 8
Arm
10
178.5344695573838
20
178.98075667954285
30
0.0
11
178.41783007935408
21
179.1733054706084
31
0.0
  0
LINE
 8
Arm
10
178.41783007935408
20
179.1733054706084
30
0.0
11
178.29127322657138
21
179.35948594162954
31
0.0
  0
LINE
 8
Arm
10
178.29127322657138
20
179.35948594162954
30
0.0
11
178.15514588257255
21
179.53878778487615
31
0.0
  0
LINE
 8
Arm
10
178.15514588257255
20
179.53878778487615
30
0.0
11
178.009821162945
21
179.71071954645925
31
0.0
  0
LINE
 8
Arm
10
178.009821162945
20
179.71071954645925
30
0.0
11
177.855697392644
21
179.87480997337093
31
0.0
  0
LINE
 8
Arm
10
177.69319701421105
20
180.03060930515704
30
0.0
11
177.52276542988804
21
180.17769050667863
31
0.0
  0
LINE
 8
Arm
10
177.52276542988804
20
180.17769050667863
30
0.0
11
177.3448697808011
21
180.31565043858555
31
0.0
  0
LINE
 8
Arm
10
177.3448697808011
20
180.31565043858555
30
0.0
11
177.15999766655895
21
180.44411096229427
31
0.0
  0
LINE
 8
Arm
10
177.15999766655895
20
180.44411096229427
30
0.0
11
176.96865580877648
21
180.56271997643825
31
0.0
  0
LINE
 8
Arm
10
176.96865580877648
20
180.56271997643825
30
0.0
11
176.77136866218586
21
180.67115238195416
31
0.0
  0
LINE
 8
Arm
10
176.77136866218586
20
180.67115238195416
30
0.0
11
176.56867697714256
21
180.7691109731556
31
0.0
  0
LINE
 8
Arm
10
176.56867697714256
20
180.7691109731556
30
0.0
11
176.36113631746642
21
180.85632725235314
31
0.0
  0
LINE
 8
Arm
10
176.36113631746642
20
180.85632725235314
30
0.0
11
176.14931553767963
21
180.93256216578766
31
0.0
  0
LINE
 8
Arm
10
176.14931553767963
20
180.93256216578766
30
0.0
11
175.933795223816
21
180.99760675886057
31
0.0
  0
LINE
 8
Arm
10
175.933795223816
20
180.99760675886057
30
0.0
11
175.71516610207544
21
181.0512827488635
31
0.0
  0
LINE
 8
Arm
10
175.71516610207544
20
181.0512827488635
30
0.0
11
175.49402741968365
21
181.0934430136388
31
0.0
  0
LINE
 8
Arm
10
175.49402741968365
20
181.0934430136388
30
0.0
11
175.27098530239826
21
181.1239719948312
31
0.0
  0
LINE
 8
Arm
10
175.27098530239826
20
181.1239719948312
30
0.0
11
175.0466510931588
21
181.1427860146252
31
0.0
  0
LINE
 8
Arm
10
175.0466510931588
20
181.1427860146252
30
0.0
11
174.82163967644001
21
181.1498335051005
31
0.0
  0
LINE
 8
Arm
10
174.82163967644001
20
181.1498335051005
30
0.0
11
174.59656779289426
21
181.1450951495755
31
0.0
  0
LINE
 8
Arm
10
174.59656779289426
20
181.1450951495755
30
0.0
11
174.3720523489103
21
181.12858393555325
31
0.0
  0
LINE
 8
Arm
10
174.3720523489103
20
181.12858393555325
30
0.0
11
174.1487087257138
21
181.1003451191237
31
0.0
  0
LINE
 8
Arm
10
174.1487087257138
20
181.1003451191237
30
0.0
11
173.9271490926517
21
181.0604561009199
31
0.0
  0
LINE
 8
Arm
10
173.9271490926517
20
181.0604561009199
30
0.0
11
173.70798072927786
21
181.0090262139682
31
0.0
  0
LINE
 8
Arm
10
173.70798072927786
20
181.0090262139682
30
0.0
11
173.49180436084202
21
180.9461964240138
31
0.0
  0
LINE
 8
Arm
10
173.49180436084202
20
180.9461964240138
30
0.0
11
173.27921251174374
21
180.8721389431435
31
0.0
  0
LINE
 8
Arm
10
173.27921251174374
20
180.8721389431435
30
0.0
11
173.0707878814644
21
180.787056757765
31
0.0
  0
LINE
 8
Arm
10
173.0707878814644
20
180.787056757765
30
0.0
11
172.86710174742817
21
180.69118307223425
31
0.0
  0
LINE
 8
Arm
10
172.86710174742817
20
180.69118307223425
30
0.0
11
172.66871239917035
21
180.58478066965935
31
0.0
  0
LINE
 8
Arm
10
172.66871239917035
20
180.58478066965935
30
0.0
11
172.47616360810477
21
180.46814119162957
31
0.0
  0
LINE
 8
Arm
10
172.47616360810477
20
180.46814119162957
30
0.0
11
172.28998313708365
21
180.341584338847
31
0.0
  0
LINE
 8
Arm
10
172.28998313708365
20
180.341584338847
30
0.0
11
172.11068129383708
21
180.2054569948481
31
0.0
  0
LINE
 8
Arm
10
172.11068129383708
20
180.2054569948481
30
0.0
11
171.93874953225404
21
180.06013227522058
31
0.0
  0
LINE
 8
Arm
10
171.93874953225404
20
180.06013227522058
30
0.0
11
171.77465910534224
21
179.9060085049196
31
0.0
  0
LINE
 8
Arm
10
171.61885977355624
20
179.74350812648657
30
0.0
11
171.47177857203474
21
179.57307654216368
31
0.0
  0
LINE
 8
Arm
10
171.47177857203474
20
179.57307654216368
30
0.0
11
171.33381864012765
21
179.3951808930767
31
0.0
  0
LINE
 8
Arm
10
171.33381864012765
20
179.3951808930767
30
0.0
11
171.205358116419
21
179.2103087788345
31
0.0
  0
LINE
 8
Arm
10
171.205358116419
20
179.2103087788345
30
0.0
11
171.08674910227504
21
179.01896692105205
31
0.0
  0
LINE
 8
Arm
10
171.08674910227504
20
179.01896692105205
30
0.0
11
170.97831669675904
21
178.8216797744614
31
0.0
  0
LINE
 8
Arm
10
170.97831669675904
20
178.8216797744614
30
0.0
11
170.88035810555758
21
178.6189880894181
31
0.0
  0
LINE
 8
Arm
10
170.88035810555758
20
178.6189880894181
30
0.0
11
170.79314182636023
21
178.41144742974203
31
0.0
  0
LINE
 8
Arm
10
170.79314182636023
20
178.41144742974203
30
0.0
11
170.71690691292554
21
178.19962664995518
31
0.0
  0
LINE
 8
Arm
10
170.71690691292554
20
178.19962664995518
30
0.0
11
170.65186231985265
21
177.98410633609168
31
0.0
  0
LINE
 8
Arm
10
170.65186231985265
20
177.98410633609168
30
0.0
11
170.5981863298498
21
177.76547721435105
31
0.0
  0
LINE
 8
Arm
10
170.5981863298498
20
177.76547721435105
30
0.0
11
170.5560260650745
21
177.5443385319593
31
0.0
  0
LINE
 8
Arm
10
170.5560260650745
20
177.5443385319593
30
0.0
11
170.52549708388216
21
177.3212964146738
31
0.0
  0
LINE
 8
Arm
10
170.52549708388216
20
177.3212964146738
30
0.0
11
170.50668306408807
21
177.09696220543452
31
0.0
  0
LINE
 8
Arm
10
170.50668306408807
20
177.09696220543452
30
0.0
11
170.4996355736127
21
176.8719507887156
31
0.0
  0
LINE
 8
Arm
10
170.4996355736127
20
176.8719507887156
30
0.0
11
170.5043739291377
21
176.6468789051699
31
0.0
  0
LINE
 8
Arm
10
170.5043739291377
20
176.6468789051699
30
0.0
11
170.5208851431601
21
176.4223634611858
31
0.0
  0
LINE
 8
Arm
10
170.5208851431601
20
176.4223634611858
30
0.0
11
170.5491239595895
21
176.19901983798934
31
0.0
  0
LINE
 8
Arm
10
170.5491239595895
20
176.19901983798934
30
0.0
11
170.58901297779326
21
175.97746020492733
31
0.0
  0
LINE
 8
Arm
10
170.58901297779326
20
175.97746020492733
30
0.0
11
170.64044286474507
21
175.75829184155342
31
0.0
  0
LINE
 8
Arm
10
170.64044286474507
20
175.75829184155342
30
0.0
11
170.70327265469962
21
175.54211547311755
31
0.0
  0
LINE
 8
Arm
10
170.70327265469962
20
175.54211547311755
30
0.0
11
170.77733013556974
21
175.32952362401923
31
0.0
  0
LINE
 8
Arm
10
170.77733013556974
20
175.32952362401923
30
0.0
11
170.8624123209482
21
175.12109899373993
31
0.0
  0
LINE
 8
Arm
10
170.8624123209482
20
175.12109899373993
30
0.0
11
170.95828600647903
21
174.91741285970372
31
0.0
  0
LINE
 8
Arm
10
170.95828600647903
20
174.91741285970372
30
0.0
11
171.06468840905384
21
174.71902351144593
31
0.0
  0
LINE
 8
Arm
10
171.06468840905384
20
174.71902351144593
30
0.0
11
171.1813278870836
21
174.52647472038038
31
0.0
  0
LINE
 8
Arm
10
171.1813278870836
20
174.52647472038038
30
0.0
11
171.3078847398661
21
174.3402942493593
31
0.0
  0
LINE
 8
Arm
10
171.3078847398661
20
174.3402942493593
30
0.0
11
171.44401208386526
21
174.16099240611274
31
0.0
  0
LINE
 8
Arm
10
171.44401208386526
20
174.16099240611274
30
0.0
11
171.58933680349267
21
173.9890606445296
31
0.0
  0
LINE
 8
Arm
10
171.58933680349267
20
173.9890606445296
30
0.0
11
171.74346057379364
21
173.82497021761787
31
0.0
  0
LINE
 8
Arm
10
171.90596095222662
20
173.66917088583176
30
0.0
11
172.0763925365496
21
173.52208968431026
31
0.0
  0
LINE
 8
Arm
10
172.0763925365496
20
173.52208968431026
30
0.0
11
172.25428818563657
21
173.3841297524033
31
0.0
  0
LINE
 8
Arm
10
172.25428818563657
20
173.3841297524033
30
0.0
11
172.43916029987872
21
173.25566922869461
31
0.0
  0
LINE
 8
Arm
10
172.43916029987872
20
173.25566922869461
30
0.0
11
172.63050215766117
21
173.1370602145506
31
0.0
  0
LINE
 8
Arm
10
172.63050215766117
20
173.1370602145506
30
0.0
11
172.82778930425178
21
173.02862780903467
31
0.0
  0
LINE
 8
Arm
10
172.82778930425178
20
173.02862780903467
30
0.0
11
173.03048098929509
21
172.9306692178332
31
0.0
  0
LINE
 8
Arm
10
173.03048098929509
20
172.9306692178332
30
0.0
11
173.23802164897126
21
172.84345293863575
31
0.0
  0
LINE
 8
Arm
10
173.23802164897126
20
172.84345293863575
30
0.0
11
173.44984242875805
21
172.76721802520115
31
0.0
  0
LINE
 8
Arm
10
173.44984242875805
20
172.76721802520115
30
0.0
11
173.66536274262148
21
172.70217343212818
31
0.0
  0
LINE
 8
Arm
10
173.66536274262148
20
172.70217343212818
30
0.0
11
173.8839918643622
21
172.64849744212526
31
0.0
  0
LINE
 8
Arm
10
173.8839918643622
20
172.64849744212526
30
0.0
11
174.10513054675383
21
172.60633717735
31
0.0
  0
LINE
 8
Arm
10
174.10513054675383
20
172.60633717735
30
0.0
11
174.32817266403939
21
172.57580819615768
31
0.0
  0
LINE
 8
Arm
10
174.32817266403939
20
172.57580819615768
30
0.0
11
174.55250687327867
21
172.55699417636362
31
0.0
  0
LINE
 8
Arm
10
174.55250687327867
20
172.55699417636362
30
0.0
11
174.77751828999766
21
172.54994668588836
31
0.0
  0
LINE
 8
Arm
10
174.77751828999766
20
172.54994668588836
30
0.0
11
175.0025901735432
21
172.55468504141336
31
0.0
  0
LINE
 8
Arm
10
175.0025901735432
20
172.55468504141336
30
0.0
11
175.22710561752737
21
172.57119625543555
31
0.0
  0
LINE
 8
Arm
10
175.22710561752737
20
172.57119625543555
30
0.0
11
175.45044924072386
21
172.59943507186506
31
0.0
  0
LINE
 8
Arm
10
175.45044924072386
20
172.59943507186506
30
0.0
11
175.67200887378596
21
172.6393240900689
31
0.0
  0
LINE
 8
Arm
10
175.67200887378596
20
172.6393240900689
30
0.0
11
175.8911772371598
21
172.6907539770206
31
0.0
  0
LINE
 8
Arm
10
175.8911772371598
20
172.6907539770206
30
0.0
11
176.10735360559562
21
172.75358376697514
31
0.0
  0
LINE
 8
Arm
10
176.10735360559562
20
172.75358376697514
30
0.0
11
176.31994545469394
21
172.82764124784524
31
0.0
  0
LINE
 8
Arm
10
176.31994545469394
20
172.82764124784524
30
0.0
11
176.52837008497323
21
172.9127234332238
31
0.0
  0
LINE
 8
Arm
10
176.52837008497323
20
172.9127234332238
30
0.0
11
176.73205621900948
21
173.00859711875455
31
0.0
  0
LINE
 8
Arm
10
176.73205621900948
20
173.00859711875455
30
0.0
11
176.9304455672673
21
173.11499952132945
31
0.0
  0
LINE
 8
Arm
10
176.9304455672673
20
173.11499952132945
30
0.0
11
177.1229943583329
21
173.2316389993591
31
0.0
  0
LINE
 8
Arm
10
177.1229943583329
20
173.2316389993591
30
0.0
11
177.30917482935382
21
173.35819585214176
31
0.0
  0
LINE
 8
Arm
10
177.30917482935382
20
173.35819585214176
30
0.0
11
177.48847667260057
21
173.49432319614073
31
0.0
  0
LINE
 8
Arm
10
177.48847667260057
20
173.49432319614073
30
0.0
11
177.6604084341836
21
173.63964791576822
31
0.0
  0
LINE
 8
Arm
10
177.6604084341836
20
173.63964791576822
30
0.0
11
177.82449886109524
21
173.79377168606916
31
0.0
  0
LINE
 8
Arm
10
177.9802981928814
20
173.95627206450217
30
0.0
11
178.1273793944029
21
174.12670364882516
31
0.0
  0
LINE
 8
Arm
10
178.1273793944029
20
174.12670364882516
30
0.0
11
178.26533932631
21
174.30459929791212
31
0.0
  0
LINE
 8
Arm
10
178.26533932631
20
174.30459929791212
30
0.0
11
178.39379985001864
21
174.48947141215427
31
0.0
  0
LINE
 8
Arm
10
178.39379985001864
20
174.48947141215427
30
0.0
11
178.5124088641626
21
174.68081326993672
31
0.0
  0
LINE
 8
Arm
10
178.5124088641626
20
174.68081326993672
30
0.0
11
178.62084126967864
21
174.8781004165274
31
0.0
  0
LINE
 8
Arm
10
178.62084126967864
20
174.8781004165274
30
0.0
11
178.7187998608799
21
175.08079210157064
31
0.0
  0
LINE
 8
Arm
10
178.7187998608799
20
175.08079210157064
30
0.0
11
178.80601614007742
21
175.2883327612468
31
0.0
  0
LINE
 8
Arm
10
178.80601614007742
20
175.2883327612468
30
0.0
11
178.88225105351214
21
175.5001535410336
31
0.0
  0
LINE
 8
Arm
10
178.88225105351214
20
175.5001535410336
30
0.0
11
178.947295646585
21
175.71567385489715
31
0.0
  0
LINE
 8
Arm
10
178.947295646585
20
175.71567385489715
30
0.0
11
179.00097163658785
21
175.93430297663772
31
0.0
  0
LINE
 8
Arm
10
179.00097163658785
20
175.93430297663772
30
0.0
11
179.04313190136315
21
176.15544165902946
31
0.0
  0
LINE
 8
Arm
10
179.04313190136315
20
176.15544165902946
30
0.0
11
179.0736608825555
21
176.37848377631502
31
0.0
  0
LINE
 8
Arm
10
179.0736608825555
20
176.37848377631502
30
0.0
11
179.0924749023496
21
176.60281798555434
31
0.0
  0
LINE
 8
Arm
10
179.0924749023496
20
176.60281798555434
30
0.0
11
179.09952239282495
21
176.82782940227332
31
0.0
  0
LINE
 8
Arm
10
179.09952239282495
20
176.82782940227332
30
0.0
11
179.09478403729977
21
177.05290128581893
31
0.0
  0
LINE
 8
Arm
10
179.09478403729977
20
177.05290128581893
30
0.0
11
179.07827282327756
21
177.27741672980304
31
0.0
  0
LINE
 8
Arm
10
179.07827282327756
20
177.27741672980304
30
0.0
11
179.05003400684816
21
177.50076035299944
31
0.0
  0
LINE
 8
Arm
10
179.05003400684816
20
177.50076035299944
30
0.0
11
179.0101449886444
21
177.72231998606154
31
0.0
  0
LINE
 8
Arm
10
171.74346057379364
20
173.82497021761787
30
0.0
11
171.90596095222662
21
173.66917088583176
31
0.0
  0
LINE
 8
Arm
10
186.7123105983257
20
102.43487637679712
30
0.0
11
186.87215127433296
21
102.04898684896115
31
0.0
  0
LINE
 8
Arm
10
186.6577919203881
20
102.84898684896115
30
0.0
11
186.7123105983257
21
102.43487637679712
31
0.0
  0
LINE
 8
Arm
10
187.84368144822406
20
104.39446817102368
30
0.0
11
187.4577919203881
21
104.23462749501626
31
0.0
  0
LINE
 8
Arm
10
186.7123105983257
20
103.26309732112519
30
0.0
11
186.6577919203881
21
102.84898684896115
31
0.0
  0
LINE
 8
Arm
10
188.25779192038812
20
104.44898684896114
30
0.0
11
187.84368144822406
21
104.39446817102368
31
0.0
  0
LINE
 8
Arm
10
187.4577919203881
20
104.23462749501626
30
0.0
11
187.12642107048958
21
103.98035769885962
31
0.0
  0
LINE
 8
Arm
10
164.7348330432192
20
187.43936706934483
30
0.0
11
163.95627034793813
21
185.60159978914376
31
0.0
  0
LINE
 8
Arm
10
174.79957898321882
20
201.4498900954945
30
0.0
11
174.41632134882292
21
201.44802072822017
31
0.0
  0
LINE
 8
Arm
10
174.41632134882292
20
201.44802072822017
30
0.0
11
174.03627616689178
21
201.41594010022496
31
0.0
  0
LINE
 8
Arm
10
174.03627616689178
20
201.41594010022496
30
0.0
11
173.6599673648513
21
201.3538499036677
31
0.0
  0
LINE
 8
Arm
10
173.6599673648513
20
201.3538499036677
30
0.0
11
173.28976081081169
21
201.26214050203535
31
0.0
  0
LINE
 8
Arm
10
173.28976081081169
20
201.26214050203535
30
0.0
11
172.92798400781226
21
201.14138847591127
31
0.0
  0
LINE
 8
Arm
10
172.92798400781226
20
201.14138847591127
30
0.0
11
172.57691146071846
21
200.9923529979917
31
0.0
  0
LINE
 8
Arm
10
172.57691146071846
20
200.9923529979917
30
0.0
11
172.23875037632183
21
200.81597106013714
31
0.0
  0
LINE
 8
Arm
10
172.23875037632183
20
200.81597106013714
30
0.0
11
171.91562678654432
21
200.6133515824678
31
0.0
  0
LINE
 8
Arm
10
171.91562678654432
20
200.6133515824678
30
0.0
11
171.6095721819933
21
200.38576844153957
31
0.0
  0
LINE
 8
Arm
10
171.6095721819933
20
200.38576844153957
30
0.0
11
171.32251073990017
21
200.13465246143272
31
0.0
  0
LINE
 8
Arm
10
171.32251073990017
20
200.13465246143272
30
0.0
11
171.05624722674364
21
199.86158241810483
31
0.0
  0
LINE
 8
Arm
10
171.05624722674364
20
199.86158241810483
30
0.0
11
170.81245565161183
21
199.56827511356494
31
0.0
  0
LINE
 8
Arm
10
163.40244835448712
20
166.9276633981653
30
0.0
11
163.7505735071097
21
165.89726437126504
31
0.0
  0
LINE
 8
Arm
10
166.66611483818056
20
190.9300650855828
30
0.0
11
165.6395811198243
21
189.21840595721088
31
0.0
  0
LINE
 8
Arm
10
163.30767914106417
20
183.71404107667234
30
0.0
11
162.79221348556055
21
181.7858700249613
31
0.0
  0
LINE
 8
Arm
10
163.95627034793813
20
185.60159978914376
30
0.0
11
163.30767914106417
21
183.71404107667234
31
0.0
  0
LINE
 8
Arm
10
162.17002597991083
20
177.84534915584632
30
0.0
11
162.06632979299778
21
175.85216187225245
31
0.0
  0
LINE
 8
Arm
10
162.06632979299778
20
175.85216187225245
30
0.0
11
162.10179577028958
21
173.8565941307023
31
0.0
  0
LINE
 8
Arm
10
162.10179577028958
20
173.8565941307023
30
0.0
11
162.27625144271107
21
171.8683502661271
31
0.0
  0
LINE
 8
Arm
10
162.27625144271107
20
171.8683502661271
30
0.0
11
162.5888484420308
21
169.89709899785174
31
0.0
  0
LINE
 8
Arm
10
162.5888484420308
20
169.89709899785174
30
0.0
11
163.03806662642793
21
167.9524264111504
31
0.0
  0
LINE
 8
Arm
10
162.79221348556055
20
181.7858700249613
30
0.0
11
162.4123800622391
21
179.8264632225875
31
0.0
  0
LINE
 8
Arm
10
162.4123800622391
20
179.8264632225875
30
0.0
11
162.17002597991083
21
177.84534915584632
31
0.0
  0
LINE
 8
Arm
10
165.6395811198243
20
189.21840595721088
30
0.0
11
164.7348330432192
21
187.43936706934483
31
0.0
  0
LINE
 8
Arm
10
170.81245565161183
20
199.56827511356494
30
0.0
11
166.66611483818056
21
190.9300650855828
31
0.0
  0
LINE
 8
Arm
10
163.7505735071097
20
165.89726437126504
30
0.0
11
164.08235496101756
21
164.8614872024839
31
0.0
  0
LINE
 8
Arm
10
163.03806662642793
20
167.9524264111504
30
0.0
11
163.40244835448712
21
166.9276633981653
31
0.0
  0
LINE
 8
Arm
10
168.02199560019375
20
149.35297058997725
30
0.0
11
167.73243871849078
21
150.77920228736082
31
0.0
  0
LINE
 8
Arm
10
165.32049925281805
20
160.67488655561021
30
0.0
11
164.92131912636407
21
162.07439906681088
31
0.0
  0
LINE
 8
Arm
10
165.70609430381137
20
159.27157030507632
30
0.0
11
165.32049925281805
21
160.67488655561021
31
0.0
  0
LINE
 8
Arm
10
166.07806804568295
20
157.86458218226883
30
0.0
11
165.70609430381137
21
159.27157030507632
31
0.0
  0
LINE
 8
Arm
10
168.29771355176882
20
147.9239990529821
30
0.0
11
168.02199560019375
21
149.35297058997725
31
0.0
  0
LINE
 8
Arm
10
167.73243871849078
20
150.77920228736082
30
0.0
11
167.42907011578995
21
152.20256012475045
31
0.0
  0
LINE
 8
Arm
10
167.42907011578995
20
152.20256012475045
30
0.0
11
167.11191829908384
21
153.6229103518153
31
0.0
  0
LINE
 8
Arm
10
166.781013070548
20
155.04011950084399
30
0.0
11
166.43638552474107
21
156.45405439928675
31
0.0
  0
LINE
 8
Arm
10
164.92131912636407
20
162.07439906681088
30
0.0
11
164.50859143467514
21
163.46997632904916
31
0.0
  0
LINE
 8
Arm
10
166.43638552474107
20
156.45405439928675
30
0.0
11
166.07806804568295
21
157.86458218226883
31
0.0
  0
LINE
 8
Arm
10
164.50859143467514
20
163.46997632904916
30
0.0
11
164.08235496101756
21
164.8614872024839
31
0.0
  0
LINE
 8
Arm
10
167.11191829908384
20
153.6229103518153
30
0.0
11
166.781013070548
21
155.04011950084399
31
0.0
  0
LINE
 8
Arm
10
178.5410453082436
20
199.86158241810477
30
0.0
11
178.78483688337542
21
199.56827511356497
31
0.0
  0
LINE
 8
Arm
10
178.27478179508708
20
200.13465246143272
30
0.0
11
178.5410453082436
21
199.86158241810477
31
0.0
  0
LINE
 8
Arm
10
177.9877203529938
20
200.38576844153957
30
0.0
11
178.27478179508708
21
200.13465246143272
31
0.0
  0
LINE
 8
Arm
10
177.68166574844292
20
200.6133515824678
30
0.0
11
177.9877203529938
21
200.38576844153957
31
0.0
  0
LINE
 8
Arm
10
177.35854215866541
20
200.8159710601372
30
0.0
11
177.68166574844292
21
200.6133515824678
31
0.0
  0
LINE
 8
Arm
10
177.02038107426878
20
200.9923529979917
30
0.0
11
177.35854215866541
21
200.8159710601372
31
0.0
  0
LINE
 8
Arm
10
176.669308527175
20
201.1413884759112
30
0.0
11
177.02038107426878
21
200.9923529979917
31
0.0
  0
LINE
 8
Arm
10
176.30753172417556
20
201.26214050203532
30
0.0
11
176.669308527175
21
201.1413884759112
31
0.0
  0
LINE
 8
Arm
10
175.93732517013595
20
201.35384990366776
30
0.0
11
176.30753172417556
21
201.26214050203532
31
0.0
  0
LINE
 8
Arm
10
175.56101636809547
20
201.41594010022493
30
0.0
11
175.93732517013595
21
201.35384990366776
31
0.0
  0
LINE
 8
Arm
10
175.18097118616433
20
201.44802072822017
30
0.0
11
175.56101636809547
21
201.41594010022493
31
0.0
  0
LINE
 8
Arm
10
174.79957898321882
20
201.4498900954945
30
0.0
11
175.18097118616433
21
201.44802072822017
31
0.0
  0
LINE
 8
Arm
10
187.12642107048958
20
103.98035769885962
30
0.0
11
186.87215127433296
21
103.64898684896114
31
0.0
  0
LINE
 8
Arm
10
186.87215127433296
20
103.64898684896114
30
0.0
11
186.7123105983257
21
103.26309732112519
31
0.0
  0
LINE
 8
Arm
10
186.87215127433296
20
102.04898684896115
30
0.0
11
187.12642107048958
21
101.71761599906266
31
0.0
  0
LINE
 8
Arm
10
187.12642107048958
20
101.71761599906266
30
0.0
11
187.4577919203881
21
101.46334620290604
31
0.0
  0
LINE
 8
Arm
10
187.4577919203881
20
101.46334620290604
30
0.0
11
187.84368144822406
21
101.30350552689862
31
0.0
  0
LINE
 8
Arm
10
187.84368144822406
20
101.30350552689862
30
0.0
11
188.25779192038812
21
101.24898684896115
31
0.0
  0
LINE
 8
Arm
10
188.25779192038812
20
101.24898684896115
30
0.0
11
188.67190239255217
21
101.30350552689862
31
0.0
  0
LINE
 8
Arm
10
188.67190239255217
20
101.30350552689862
30
0.0
11
189.0577919203881
21
101.46334620290604
31
0.0
  0
LINE
 8
Arm
10
189.0577919203881
20
101.46334620290604
30
0.0
11
189.38916277028662
21
101.71761599906266
31
0.0
  0
LINE
 8
Arm
10
189.38916277028662
20
101.71761599906266
30
0.0
11
189.64343256644324
21
102.04898684896112
31
0.0
  0
LINE
 8
Arm
10
189.64343256644324
20
102.04898684896112
30
0.0
11
189.80327324245067
21
102.43487637679712
31
0.0
  0
LINE
 8
Arm
10
189.80327324245067
20
102.43487637679712
30
0.0
11
189.8577919203881
21
102.84898684896115
31
0.0
  0
LINE
 8
Arm
10
189.8577919203881
20
102.84898684896115
30
0.0
11
189.80327324245067
21
103.26309732112519
31
0.0
  0
LINE
 8
Arm
10
189.80327324245067
20
103.26309732112519
30
0.0
11
189.64343256644324
21
103.64898684896114
31
0.0
  0
LINE
 8
Arm
10
189.64343256644324
20
103.64898684896114
30
0.0
11
189.38916277028662
21
103.98035769885962
31
0.0
  0
LINE
 8
Arm
10
189.38916277028662
20
103.98035769885962
30
0.0
11
189.0577919203881
21
104.23462749501626
31
0.0
  0
LINE
 8
Arm
10
189.0577919203881
20
104.23462749501626
30
0.0
11
188.67190239255217
21
104.39446817102368
31
0.0
  0
LINE
 8
Arm
10
188.67190239255217
20
104.39446817102368
30
0.0
11
188.25779192038812
21
104.44898684896114
31
0.0
  0
LINE
 8
Arm
10
171.77465910534224
20
179.9060085049196
30
0.0
11
171.61885977355624
21
179.74350812648657
31
0.0
  0
LINE
 8
Arm
10
171.80186948581297
20
191.1658051150873
30
0.0
11
171.8087133967672
21
191.072911576968
31
0.0
  0
LINE
 8
Arm
10
171.80121772827232
20
191.25894814356295
30
0.0
11
171.80186948581297
21
191.1658051150873
31
0.0
  0
LINE
 8
Arm
10
171.80676100918586
20
191.351928359621
30
0.0
11
171.80121772827232
21
191.25894814356295
31
0.0
  0
LINE
 8
Arm
10
171.8184747909137
20
191.44433418118598
30
0.0
11
171.80676100918586
21
191.351928359621
31
0.0
  0
LINE
 8
Arm
10
171.83630722175252
20
191.53575656877172
30
0.0
11
171.8184747909137
21
191.44433418118598
31
0.0
  0
LINE
 8
Arm
10
171.86017936545963
20
191.62579083611655
30
0.0
11
171.83630722175252
21
191.53575656877172
31
0.0
  0
LINE
 8
Arm
10
171.88998555066877
20
191.7140384415501
30
0.0
11
171.86017936545963
21
191.62579083611655
31
0.0
  0
LINE
 8
Arm
10
171.92559383865054
20
191.80010875216013
30
0.0
11
171.88998555066877
21
191.7140384415501
31
0.0
  0
LINE
 8
Arm
10
173.52582898608387
20
195.33078629967173
30
0.0
11
171.92559383865054
21
191.80010875216013
31
0.0
  0
LINE
 8
Arm
10
173.56613602973152
20
195.41229928531666
30
0.0
11
173.52582898608387
21
195.33078629967173
31
0.0
  0
LINE
 8
Arm
10
173.61353289348327
20
195.4938280081813
30
0.0
11
173.56613602973152
21
195.41229928531666
31
0.0
  0
LINE
 8
Arm
10
173.66631050544248
20
195.57198118483663
30
0.0
11
173.61353289348327
21
195.4938280081813
31
0.0
  0
LINE
 8
Arm
10
173.72422942884242
20
195.64640425691525
30
0.0
11
173.66631050544248
21
195.57198118483663
31
0.0
  0
LINE
 8
Arm
10
173.7870269022729
20
195.71675958845594
30
0.0
11
173.72422942884242
21
195.64640425691525
31
0.0
  0
LINE
 8
Arm
10
173.85441803175235
20
195.78272799765992
30
0.0
11
173.7870269022729
21
195.71675958845594
31
0.0
  0
LINE
 8
Arm
10
173.9260970832102
20
195.84401020492723
30
0.0
11
173.85441803175235
21
195.78272799765992
31
0.0
  0
LINE
 8
Arm
10
174.00173886951305
20
195.90032819060082
30
0.0
11
173.9260970832102
21
195.84401020492723
31
0.0
  0
LINE
 8
Arm
10
174.0810002257459
20
195.95142645626214
30
0.0
11
174.00173886951305
21
195.90032819060082
31
0.0
  0
LINE
 8
Arm
10
174.16352156605046
20
195.99707318385282
30
0.0
11
174.0810002257459
21
195.95142645626214
31
0.0
  0
LINE
 8
Arm
10
174.24892851496426
20
196.0370612873671
30
0.0
11
174.16352156605046
21
195.99707318385282
31
0.0
  0
LINE
 8
Arm
10
174.3368336058523
20
196.07120935234016
30
0.0
11
174.24892851496426
21
196.0370612873671
31
0.0
  0
LINE
 8
Arm
10
174.42683803873155
20
196.09936245887417
30
0.0
11
174.3368336058523
21
196.07120935234016
31
0.0
  0
LINE
 8
Arm
10
174.51853348951167
20
196.121392884464
30
0.0
11
174.42683803873155
21
196.09936245887417
31
0.0
  0
LINE
 8
Arm
10
174.6115039624428
20
196.1372006834382
30
0.0
11
174.51853348951167
21
196.121392884464
31
0.0
  0
LINE
 8
Arm
10
174.70532767736827
20
196.14671414038287
30
0.0
11
174.6115039624428
21
196.1372006834382
31
0.0
  0
LINE
 8
Arm
10
174.79957898321882
20
196.14989009549453
30
0.0
11
174.70532767736827
21
196.14671414038287
31
0.0
  0
LINE
 8
Arm
10
174.89383028906954
20
196.146714140383
30
0.0
11
174.79957898321882
21
196.14989009549453
31
0.0
  0
LINE
 8
Arm
10
174.98765400399486
20
196.1372006834382
30
0.0
11
174.89383028906954
21
196.146714140383
31
0.0
  0
LINE
 8
Arm
10
175.08062447692598
20
196.12139288446414
30
0.0
11
174.98765400399486
21
196.1372006834382
31
0.0
  0
LINE
 8
Arm
10
175.1723199277061
20
196.09936245887437
30
0.0
11
175.08062447692598
21
196.12139288446414
31
0.0
  0
LINE
 8
Arm
10
175.26232436058555
20
196.07120935234025
30
0.0
11
175.1723199277061
21
196.09936245887437
31
0.0
  0
LINE
 8
Arm
10
175.35022945147338
20
196.03706128736715
30
0.0
11
175.26232436058555
21
196.07120935234025
31
0.0
  0
LINE
 8
Arm
10
175.43563640038718
20
195.99707318385302
30
0.0
11
175.35022945147338
21
196.03706128736715
31
0.0
  0
LINE
 8
Arm
10
175.51815774069192
20
195.9514264562623
30
0.0
11
175.43563640038718
21
195.99707318385302
31
0.0
  0
LINE
 8
Arm
10
175.5974190969248
20
195.90032819060096
30
0.0
11
175.51815774069192
21
195.9514264562623
31
0.0
  0
LINE
 8
Arm
10
175.67306088322763
20
195.84401020492737
30
0.0
11
175.5974190969248
21
195.90032819060096
31
0.0
  0
LINE
 8
Arm
10
175.74473993468533
20
195.78272799766012
30
0.0
11
175.67306088322763
21
195.84401020492737
31
0.0
  0
LINE
 8
Arm
10
175.81213106416493
20
195.71675958845617
30
0.0
11
175.74473993468533
21
195.78272799766012
31
0.0
  0
LINE
 8
Arm
10
175.8749285375954
20
195.64640425691542
30
0.0
11
175.81213106416493
21
195.71675958845617
31
0.0
  0
LINE
 8
Arm
10
175.93284746099553
20
195.57198118483686
30
0.0
11
175.8749285375954
21
195.64640425691542
31
0.0
  0
LINE
 8
Arm
10
175.98562507295458
20
195.4938280081816
30
0.0
11
175.93284746099553
21
195.57198118483686
31
0.0
  0
LINE
 8
Arm
10
176.03302193670632
20
195.412299285317
30
0.0
11
175.98562507295458
21
195.4938280081816
31
0.0
  0
LINE
 8
Arm
10
177.67356412778747
20
191.80010875216036
30
0.0
11
176.07332898035415
21
195.33078629967204
31
0.0
  0
LINE
 8
Arm
10
176.07332898035415
20
195.33078629967204
30
0.0
11
176.03302193670632
21
195.412299285317
31
0.0
  0
LINE
 8
Arm
10
177.40129265246748
20
190.2453083527208
30
0.0
11
177.46402978760827
21
190.3141567398903
31
0.0
  0
LINE
 8
Arm
10
177.46402978760827
20
190.3141567398903
30
0.0
11
177.52204995739552
21
190.3870244861114
31
0.0
  0
LINE
 8
Arm
10
177.52204995739552
20
190.3870244861114
30
0.0
11
177.57509633233454
21
190.46358903827038
31
0.0
  0
LINE
 8
Arm
10
177.57509633233454
20
190.46358903827038
30
0.0
11
177.62293409970925
21
190.5435114791371
31
0.0
  0
LINE
 8
Arm
10
177.62293409970925
20
190.5435114791371
30
0.0
11
177.6653515029929
21
190.62643802760124
31
0.0
  0
LINE
 8
Arm
10
177.6653515029929
20
190.62643802760124
30
0.0
11
177.70216077920105
21
190.7120016047034
31
0.0
  0
LINE
 8
Arm
10
177.70216077920105
20
190.7120016047034
30
0.0
11
177.7331989900341
21
190.7998234585314
31
0.0
  0
LINE
 8
Arm
10
177.7331989900341
20
190.7998234585314
30
0.0
11
177.75832874313303
21
190.8895148407856
31
0.0
  0
LINE
 8
Arm
10
177.75832874313303
20
190.8895148407856
30
0.0
11
177.77743880025403
21
190.98067872759566
31
0.0
  0
LINE
 8
Arm
10
177.77743880025403
20
190.98067872759566
30
0.0
11
177.79044456967083
21
191.07291157696807
31
0.0
  0
LINE
 8
Arm
10
177.79044456967083
20
191.07291157696807
30
0.0
11
177.79728848062504
21
191.16580511508758
31
0.0
  0
LINE
 8
Arm
10
177.79728848062504
20
191.16580511508758
30
0.0
11
177.79794023816586
21
191.25894814356303
31
0.0
  0
LINE
 8
Arm
10
177.79794023816586
20
191.25894814356303
30
0.0
11
177.79239695725215
21
191.3519283596211
31
0.0
  0
LINE
 8
Arm
10
177.79239695725215
20
191.3519283596211
30
0.0
11
177.7806831755243
21
191.44433418118626
31
0.0
  0
LINE
 8
Arm
10
177.7806831755243
20
191.44433418118626
30
0.0
11
177.76285074468552
21
191.5357565687719
31
0.0
  0
LINE
 8
Arm
10
177.76285074468552
20
191.5357565687719
30
0.0
11
177.73897860097858
21
191.6257908361168
31
0.0
  0
LINE
 8
Arm
10
177.73897860097858
20
191.6257908361168
30
0.0
11
177.70917241576925
21
191.71403844155031
31
0.0
  0
LINE
 8
Arm
10
177.70917241576925
20
191.71403844155031
30
0.0
11
177.67356412778747
21
191.80010875216036
31
0.0
  0
LINE
 8
Arm
10
174.78796412433078
20
190.57197453084427
30
0.0
11
174.83437239573962
21
190.5704336092044
31
0.0
  0
LINE
 8
Arm
10
174.83437239573962
20
190.5704336092044
30
0.0
11
174.88016827409024
21
190.56276291036133
31
0.0
  0
LINE
 8
Arm
10
174.88016827409024
20
190.56276291036133
30
0.0
11
174.92454571375652
21
190.54909744500785
31
0.0
  0
LINE
 8
Arm
10
174.92454571375652
20
190.54909744500785
30
0.0
11
174.96672363481463
21
190.52967773672333
31
0.0
  0
LINE
 8
Arm
10
174.96672363481463
20
190.52967773672333
30
0.0
11
175.00595967070228
21
190.50484558855834
31
0.0
  0
LINE
 8
Arm
10
175.00595967070228
20
190.50484558855834
30
0.0
11
175.0415632344869
21
190.47503806701638
31
0.0
  0
LINE
 8
Arm
10
175.0415632344869
20
190.47503806701638
30
0.0
11
175.0729076737736
21
190.44077980931908
31
0.0
  0
LINE
 8
Arm
10
175.0729076737736
20
190.44077980931908
30
0.0
11
175.14420316127234
21
190.34508819750727
31
0.0
  0
LINE
 8
Arm
10
175.14420316127234
20
190.34508819750727
30
0.0
11
175.2071377231706
21
190.27207183594692
31
0.0
  0
LINE
 8
Arm
10
175.2071377231706
20
190.27207183594692
30
0.0
11
175.2748389060916
21
190.20365349764876
31
0.0
  0
LINE
 8
Arm
10
175.2748389060916
20
190.20365349764876
30
0.0
11
175.34708044184444
21
190.14004783990933
31
0.0
  0
LINE
 8
Arm
10
175.34708044184444
20
190.14004783990933
30
0.0
11
175.42352097478732
21
190.08155541212753
31
0.0
  0
LINE
 8
Arm
10
175.42352097478732
20
190.08155541212753
30
0.0
11
175.5037993081803
21
190.02845260267242
31
0.0
  0
LINE
 8
Arm
10
175.5037993081803
20
190.02845260267242
30
0.0
11
175.58753611091228
21
189.98099033289267
31
0.0
  0
LINE
 8
Arm
10
175.58753611091228
20
189.98099033289267
30
0.0
11
175.67433570991588
21
189.93939287146455
31
0.0
  0
LINE
 8
Arm
10
175.67433570991588
20
189.93939287146455
30
0.0
11
175.76378795980088
21
189.9038567746768
31
0.0
  0
LINE
 8
Arm
10
175.76378795980088
20
189.9038567746768
30
0.0
11
175.85547018087422
21
189.87454995766257
31
0.0
  0
LINE
 8
Arm
10
175.85547018087422
20
189.87454995766257
30
0.0
11
175.94894915638451
21
189.8516109009688
31
0.0
  0
LINE
 8
Arm
10
175.94894915638451
20
189.8516109009688
30
0.0
11
176.04378317955712
21
189.83514799620576
31
0.0
  0
LINE
 8
Arm
10
176.04378317955712
20
189.83514799620576
30
0.0
11
176.13952414074905
21
189.82523903387693
31
0.0
  0
LINE
 8
Arm
10
176.13952414074905
20
189.82523903387693
30
0.0
11
176.22884360519996
21
189.82216730528557
31
0.0
  0
LINE
 8
Arm
10
176.22884360519996
20
189.82216730528557
30
0.0
11
176.39842347515957
21
189.82216730528563
31
0.0
  0
LINE
 8
Arm
10
176.39842347515957
20
189.82216730528563
30
0.0
11
176.491517230531
21
189.82526589405037
31
0.0
  0
LINE
 8
Arm
10
176.491517230531
20
189.82526589405037
30
0.0
11
176.58419890123886
21
189.83454794427
31
0.0
  0
LINE
 8
Arm
10
176.58419890123886
20
189.83454794427
30
0.0
11
176.6760582267353
21
189.8499723684354
31
0.0
  0
LINE
 8
Arm
10
176.6760582267353
20
189.8499723684354
30
0.0
11
176.76668858662913
21
189.87147088947836
31
0.0
  0
LINE
 8
Arm
10
176.76668858662913
20
189.87147088947836
30
0.0
11
176.8556888006128
21
189.8989483430053
31
0.0
  0
LINE
 8
Arm
10
176.8556888006128
20
189.8989483430053
30
0.0
11
176.94266490431104
21
189.93228309854635
31
0.0
  0
LINE
 8
Arm
10
176.94266490431104
20
189.93228309854635
30
0.0
11
177.02723189318382
21
189.97132759796014
31
0.0
  0
LINE
 8
Arm
10
177.3341162613761
20
190.18078408580186
30
0.0
11
177.40129265246748
21
190.2453083527208
31
0.0
  0
LINE
 8
Arm
10
177.02723189318382
20
189.97132759796014
30
0.0
11
177.1090154267718
21
190.01590900860782
31
0.0
  0
LINE
 8
Arm
10
177.1090154267718
20
190.01590900860782
30
0.0
11
177.1876534857347
21
190.06582998840634
31
0.0
  0
LINE
 8
Arm
10
177.1876534857347
20
190.06582998840634
30
0.0
11
177.26279797434964
21
190.1208695593741
31
0.0
  0
LINE
 8
Arm
10
174.45495480516587
20
190.34508819750712
30
0.0
11
174.51235085089206
21
190.42216730528563
31
0.0
  0
LINE
 8
Arm
10
174.71898969234795
20
190.56276291036133
30
0.0
11
174.78796412433078
21
190.57197453084427
31
0.0
  0
LINE
 8
Arm
10
174.3920202432674
20
190.27207183594703
30
0.0
11
174.45495480516587
21
190.34508819750712
31
0.0
  0
LINE
 8
Arm
10
174.3243190603468
20
190.20365349764893
30
0.0
11
174.3920202432674
21
190.27207183594703
31
0.0
  0
LINE
 8
Arm
10
174.25207752459357
20
190.14004783990916
30
0.0
11
174.3243190603468
21
190.20365349764893
31
0.0
  0
LINE
 8
Arm
10
174.1756369916507
20
190.08155541212747
30
0.0
11
174.25207752459357
21
190.14004783990916
31
0.0
  0
LINE
 8
Arm
10
174.0953586582577
20
190.02845260267244
30
0.0
11
174.1756369916507
21
190.08155541212747
31
0.0
  0
LINE
 8
Arm
10
174.01162185552553
20
189.98099033289267
30
0.0
11
174.0953586582577
21
190.02845260267244
31
0.0
  0
LINE
 8
Arm
10
173.92482225652213
20
189.93939287146463
30
0.0
11
174.01162185552553
21
189.98099033289267
31
0.0
  0
LINE
 8
Arm
10
173.83537000663713
20
189.90385677467685
30
0.0
11
173.92482225652213
21
189.93939287146463
31
0.0
  0
LINE
 8
Arm
10
173.65020881005387
20
189.85161090096872
30
0.0
11
173.74368778556416
21
189.87454995766285
31
0.0
  0
LINE
 8
Arm
10
172.1978653139707
20
190.24530835272085
30
0.0
11
172.2650417050621
21
190.18078408580178
31
0.0
  0
LINE
 8
Arm
10
172.07710800904266
20
190.3870244861113
30
0.0
11
172.13512817882992
21
190.31415673989017
31
0.0
  0
LINE
 8
Arm
10
172.4901425396662
20
190.01590900860788
30
0.0
11
172.57192607325456
21
189.97132759796023
31
0.0
  0
LINE
 8
Arm
10
172.65649306212734
20
189.93228309854643
30
0.0
11
172.7434691658254
21
189.8989483430053
31
0.0
  0
LINE
 8
Arm
10
171.97622386672893
20
190.54351147913704
30
0.0
11
172.02406163410365
21
190.46358903827038
31
0.0
  0
LINE
 8
Arm
10
173.20073449127844
20
189.82216730528557
30
0.0
11
173.37031436123806
21
189.82216730528557
31
0.0
  0
LINE
 8
Arm
10
172.02406163410365
20
190.46358903827038
30
0.0
11
172.07710800904266
21
190.3870244861113
31
0.0
  0
LINE
 8
Arm
10
172.7434691658254
20
189.8989483430053
30
0.0
11
172.83246937980905
21
189.87147088947842
31
0.0
  0
LINE
 8
Arm
10
172.83246937980905
20
189.87147088947842
30
0.0
11
172.92309973970274
21
189.8499723684354
31
0.0
  0
LINE
 8
Arm
10
172.4115044807035
20
190.06582998840636
30
0.0
11
172.4901425396662
21
190.01590900860788
31
0.0
  0
LINE
 8
Arm
10
173.74368778556416
20
189.87454995766285
30
0.0
11
173.83537000663713
21
189.90385677467685
31
0.0
  0
LINE
 8
Arm
10
173.01495906519932
20
189.83454794427016
30
0.0
11
173.107640735907
21
189.82526589405046
31
0.0
  0
LINE
 8
Arm
10
173.5553747868811
20
189.83514799620573
30
0.0
11
173.65020881005387
21
189.85161090096872
31
0.0
  0
LINE
 8
Arm
10
172.33635999208857
20
190.12086955937406
30
0.0
11
172.4115044807035
21
190.06582998840636
31
0.0
  0
LINE
 8
Arm
10
172.92309973970274
20
189.8499723684354
30
0.0
11
173.01495906519932
21
189.83454794427016
31
0.0
  0
LINE
 8
Arm
10
177.26279797434964
20
190.1208695593741
30
0.0
11
177.3341162613761
21
190.18078408580186
31
0.0
  0
LINE
 8
Arm
10
174.51235085089206
20
190.42216730528563
30
0.0
11
174.54135376358013
21
190.45842931226625
31
0.0
  0
LINE
 8
Arm
10
173.37031436123806
20
189.82216730528557
30
0.0
11
173.459633825689
21
189.82523903387693
31
0.0
  0
LINE
 8
Arm
10
174.54135376358013
20
190.45842931226625
30
0.0
11
174.5749016553456
21
190.49053291101714
31
0.0
  0
LINE
 8
Arm
10
174.5749016553456
20
190.49053291101714
30
0.0
11
174.61240405533323
21
190.5179130514443
31
0.0
  0
LINE
 8
Arm
10
174.61240405533323
20
190.5179130514443
30
0.0
11
174.65320089004814
21
190.54008782025687
31
0.0
  0
LINE
 8
Arm
10
171.8087133967672
20
191.072911576968
30
0.0
11
171.82171916618415
21
190.98067872759552
31
0.0
  0
LINE
 8
Arm
10
174.65320089004814
20
190.54008782025687
30
0.0
11
174.71898969234795
21
190.56276291036133
31
0.0
  0
LINE
 8
Arm
10
171.93380646344528
20
190.6264380276011
30
0.0
11
171.97622386672893
21
190.54351147913704
31
0.0
  0
LINE
 8
Arm
10
172.13512817882992
20
190.31415673989017
30
0.0
11
172.1978653139707
21
190.24530835272085
31
0.0
  0
LINE
 8
Arm
10
173.459633825689
20
189.82523903387693
30
0.0
11
173.5553747868811
21
189.83514799620573
31
0.0
  0
LINE
 8
Arm
10
172.2650417050621
20
190.18078408580178
30
0.0
11
172.33635999208857
21
190.12086955937406
31
0.0
  0
LINE
 8
Arm
10
171.82171916618415
20
190.98067872759552
30
0.0
11
171.84082922330498
21
190.88951484078544
31
0.0
  0
LINE
 8
Arm
10
171.84082922330498
20
190.88951484078544
30
0.0
11
171.8659589764039
21
190.79982345853114
31
0.0
  0
LINE
 8
Arm
10
171.8659589764039
20
190.79982345853114
30
0.0
11
171.89699718723716
21
190.71200160470323
31
0.0
  0
LINE
 8
Arm
10
171.89699718723716
20
190.71200160470323
30
0.0
11
171.93380646344528
21
190.6264380276011
31
0.0
  0
LINE
 8
Arm
10
173.107640735907
20
189.82526589405046
30
0.0
11
173.20073449127844
21
189.82216730528557
31
0.0
  0
LINE
 8
Arm
10
172.57192607325456
20
189.97132759796023
30
0.0
11
172.65649306212734
21
189.93228309854643
31
0.0
  0
LINE
 8
Arm
10
184.86245949176805
20
187.43936706934483
30
0.0
11
185.64102218704895
21
185.60159978914376
31
0.0
  0
LINE
 8
Arm
10
175.31388212770264
20
104.50696599677607
30
0.0
11
175.21368945538163
21
104.53735911164638
31
0.0
  0
LINE
 8
Arm
10
182.08021851487405
20
79.2305296271501
30
0.0
11
174.79957898321882
21
71.94989009549444
31
0.0
  0
LINE
 8
Arm
10
176.18521962927286
20
102.19187778958401
30
0.0
11
176.23457536967007
21
102.28421588523356
31
0.0
  0
LINE
 8
Arm
10
176.12993036290177
20
102.10296541675264
30
0.0
11
176.18521962927286
21
102.19187778958401
31
0.0
  0
LINE
 8
Arm
10
176.06894432768382
20
102.01785950316999
30
0.0
11
176.12993036290177
21
102.10296541675264
31
0.0
  0
LINE
 8
Arm
10
176.23457536967007
20
102.28421588523356
30
0.0
11
176.2777862352357
21
102.37958429779977
31
0.0
  0
LINE
 8
Arm
10
176.00252267518422
20
101.93692448542383
30
0.0
11
176.06894432768382
21
102.01785950316999
31
0.0
  0
LINE
 8
Arm
10
175.93094983311644
20
101.86050693968552
30
0.0
11
176.00252267518422
21
101.93692448542383
31
0.0
  0
LINE
 8
Arm
10
175.85453228737805
20
101.78893409761767
30
0.0
11
175.93094983311644
21
101.86050693968552
31
0.0
  0
LINE
 8
Arm
10
175.77359726963178
20
101.72251244511789
30
0.0
11
175.85453228737805
21
101.78893409761767
31
0.0
  0
LINE
 8
Arm
10
175.68849135604916
20
101.66152640989989
30
0.0
11
175.77359726963178
21
101.72251244511789
31
0.0
  0
LINE
 8
Arm
10
175.59957898321775
20
101.60623714352882
30
0.0
11
175.68849135604916
21
101.66152640989989
31
0.0
  0
LINE
 8
Arm
10
175.5072408875682
20
101.55688140313165
30
0.0
11
175.59957898321775
21
101.60623714352882
31
0.0
  0
LINE
 8
Arm
10
175.411872475002
20
101.51367053756586
30
0.0
11
175.5072408875682
21
101.55688140313165
31
0.0
  0
LINE
 8
Arm
10
175.3138821277028
20
101.47678958239173
30
0.0
11
175.411872475002
21
101.51367053756586
31
0.0
  0
LINE
 8
Arm
10
175.21368945538197
20
101.4463964675214
30
0.0
11
175.3138821277028
21
101.47678958239173
31
0.0
  0
LINE
 8
Arm
10
175.11172349844375
20
101.4226213409388
30
0.0
11
175.21368945538197
21
101.4463964675214
31
0.0
  0
LINE
 8
Arm
10
175.00842089077
20
101.40556601138586
30
0.0
11
175.11172349844375
21
101.4226213409388
31
0.0
  0
LINE
 8
Arm
10
174.90422398998604
20
101.39530351240218
30
0.0
11
175.00842089077
21
101.40556601138586
31
0.0
  0
LINE
 8
Arm
10
174.7995789832179
20
101.39187778958394
30
0.0
11
174.90422398998604
21
101.39530351240218
31
0.0
  0
LINE
 8
Arm
10
173.8255606968039
20
101.72251244511789
30
0.0
11
173.91066661038653
21
101.66152640989974
31
0.0
  0
LINE
 8
Arm
10
173.91066661038653
20
101.66152640989974
30
0.0
11
173.99957898321793
21
101.60623714352879
31
0.0
  0
LINE
 8
Arm
10
173.99957898321793
20
101.60623714352879
30
0.0
11
174.09191707886748
21
101.55688140313154
31
0.0
  0
LINE
 8
Arm
10
174.09191707886748
20
101.55688140313154
30
0.0
11
174.18728549143367
21
101.51367053756582
31
0.0
  0
LINE
 8
Arm
10
174.18728549143367
20
101.51367053756582
30
0.0
11
174.28527583873284
21
101.4767895823917
31
0.0
  0
LINE
 8
Arm
10
174.28527583873284
20
101.4767895823917
30
0.0
11
174.38546851105386
21
101.4463964675214
31
0.0
  0
LINE
 8
Arm
10
174.38546851105386
20
101.4463964675214
30
0.0
11
174.4874344679921
21
101.42262134093873
31
0.0
  0
LINE
 8
Arm
10
174.4874344679921
20
101.42262134093873
30
0.0
11
174.59073707566586
21
101.40556601138586
31
0.0
  0
LINE
 8
Arm
10
174.59073707566586
20
101.40556601138586
30
0.0
11
174.69493397644965
21
101.39530351240218
31
0.0
  0
LINE
 8
Arm
10
174.69493397644965
20
101.39530351240218
30
0.0
11
174.7995789832179
21
101.39187778958394
31
0.0
  0
LINE
 8
Arm
10
173.36458259676525
20
103.6995396939342
30
0.0
11
173.3213717311996
21
103.60417128136795
31
0.0
  0
LINE
 8
Arm
10
173.3213717311996
20
103.60417128136795
30
0.0
11
173.28449077602545
21
103.50618093406884
31
0.0
  0
LINE
 8
Arm
10
173.28449077602545
20
103.50618093406884
30
0.0
11
173.25409766115519
21
103.40598826174784
31
0.0
  0
LINE
 8
Arm
10
173.25409766115519
20
103.40598826174784
30
0.0
11
173.23032253457237
21
103.30402230480962
31
0.0
  0
LINE
 8
Arm
10
173.23032253457237
20
103.30402230480962
30
0.0
11
173.21326720501963
21
103.20071969713591
31
0.0
  0
LINE
 8
Arm
10
173.21326720501963
20
103.20071969713591
30
0.0
11
173.2030047060357
21
103.096522796352
31
0.0
  0
LINE
 8
Arm
10
173.2030047060357
20
103.096522796352
30
0.0
11
173.19957898321758
21
102.99187778958384
31
0.0
  0
LINE
 8
Arm
10
173.19957898321758
20
102.99187778958384
30
0.0
11
173.20300470603607
21
102.88723278281557
31
0.0
  0
LINE
 8
Arm
10
173.20300470603607
20
102.88723278281557
30
0.0
11
173.21326720501963
21
102.78303588203171
31
0.0
  0
LINE
 8
Arm
10
173.21326720501963
20
102.78303588203171
30
0.0
11
173.23032253457257
21
102.67973327435803
31
0.0
  0
LINE
 8
Arm
10
173.23032253457257
20
102.67973327435803
30
0.0
11
173.25409766115519
21
102.57776731741984
31
0.0
  0
LINE
 8
Arm
10
173.25409766115519
20
102.57776731741984
30
0.0
11
173.2844907760258
21
102.47757464509878
31
0.0
  0
LINE
 8
Arm
10
173.2844907760258
20
102.47757464509878
30
0.0
11
173.32137173119978
21
102.37958429779972
31
0.0
  0
LINE
 8
Arm
10
173.32137173119978
20
102.37958429779972
30
0.0
11
173.36458259676542
21
102.28421588523346
31
0.0
  0
LINE
 8
Arm
10
173.36458259676542
20
102.28421588523346
30
0.0
11
173.4139383371628
21
102.19187778958383
31
0.0
  0
LINE
 8
Arm
10
173.4139383371628
20
102.19187778958383
30
0.0
11
173.4692276035339
21
102.10296541675254
31
0.0
  0
LINE
 8
Arm
10
173.4692276035339
20
102.10296541675254
30
0.0
11
173.53021363875186
21
102.01785950316993
31
0.0
  0
LINE
 8
Arm
10
173.53021363875186
20
102.01785950316993
30
0.0
11
173.59663529125146
21
101.93692448542373
31
0.0
  0
LINE
 8
Arm
10
173.59663529125146
20
101.93692448542373
30
0.0
11
173.6682081333194
21
101.86050693968538
31
0.0
  0
LINE
 8
Arm
10
173.6682081333194
20
101.86050693968538
30
0.0
11
173.74462567905763
21
101.7889340976175
31
0.0
  0
LINE
 8
Arm
10
173.74462567905763
20
101.7889340976175
30
0.0
11
173.8255606968039
21
101.72251244511789
31
0.0
  0
LINE
 8
Arm
10
174.09191707886728
20
104.42687417603618
30
0.0
11
173.99957898321756
21
104.37751843563893
31
0.0
  0
LINE
 8
Arm
10
173.99957898321756
20
104.37751843563893
30
0.0
11
173.91066661038636
21
104.32222916926793
31
0.0
  0
LINE
 8
Arm
10
173.91066661038636
20
104.32222916926793
30
0.0
11
173.8255606968037
21
104.26124313404979
31
0.0
  0
LINE
 8
Arm
10
173.8255606968037
20
104.26124313404979
30
0.0
11
173.74462567905763
21
104.19482148155016
31
0.0
  0
LINE
 8
Arm
10
173.74462567905763
20
104.19482148155016
30
0.0
11
173.66820813331924
21
104.12324863948233
31
0.0
  0
LINE
 8
Arm
10
173.66820813331924
20
104.12324863948233
30
0.0
11
173.59663529125146
21
104.04683109374398
31
0.0
  0
LINE
 8
Arm
10
173.59663529125146
20
104.04683109374398
30
0.0
11
173.53021363875166
21
103.96589607599775
31
0.0
  0
LINE
 8
Arm
10
173.53021363875166
20
103.96589607599775
30
0.0
11
173.4692276035337
21
103.88079016241524
31
0.0
  0
LINE
 8
Arm
10
173.4692276035337
20
103.88079016241524
30
0.0
11
173.41393833716262
21
103.79187778958384
31
0.0
  0
LINE
 8
Arm
10
173.41393833716262
20
103.79187778958384
30
0.0
11
173.36458259676525
21
103.6995396939342
31
0.0
  0
LINE
 8
Arm
10
174.18728549143347
20
104.47008504160196
30
0.0
11
174.09191707886728
21
104.42687417603618
31
0.0
  0
LINE
 8
Arm
10
174.28527583873267
20
104.50696599677597
30
0.0
11
174.18728549143347
21
104.47008504160196
31
0.0
  0
LINE
 8
Arm
10
174.38546851105352
20
104.53735911164638
30
0.0
11
174.28527583873267
21
104.50696599677597
31
0.0
  0
LINE
 8
Arm
10
174.4874344679919
20
104.561134238229
30
0.0
11
174.38546851105352
21
104.53735911164638
31
0.0
  0
LINE
 8
Arm
10
174.5907370756655
20
104.57818956778198
30
0.0
11
174.4874344679919
21
104.561134238229
31
0.0
  0
LINE
 8
Arm
10
174.69493397644945
20
104.58845206676568
30
0.0
11
174.5907370756655
21
104.57818956778198
31
0.0
  0
LINE
 8
Arm
10
174.79957898321757
20
104.59187778958396
30
0.0
11
174.69493397644945
21
104.58845206676568
31
0.0
  0
LINE
 8
Arm
10
174.90422398998587
20
104.58845206676568
30
0.0
11
174.79957898321757
21
104.59187778958396
31
0.0
  0
LINE
 8
Arm
10
175.00842089076963
20
104.57818956778202
30
0.0
11
174.90422398998587
21
104.58845206676568
31
0.0
  0
LINE
 8
Arm
10
175.11172349844358
20
104.56113423822904
30
0.0
11
175.00842089076963
21
104.57818956778202
31
0.0
  0
LINE
 8
Arm
10
175.21368945538163
20
104.53735911164638
30
0.0
11
175.11172349844358
21
104.56113423822904
31
0.0
  0
LINE
 8
Arm
10
175.59957898321775
20
104.37751843563903
30
0.0
11
175.50724088756803
21
104.42687417603626
31
0.0
  0
LINE
 8
Arm
10
175.50724088756803
20
104.42687417603626
30
0.0
11
175.41187247500164
21
104.47008504160195
31
0.0
  0
LINE
 8
Arm
10
175.41187247500164
20
104.47008504160195
30
0.0
11
175.31388212770264
21
104.50696599677607
31
0.0
  0
LINE
 8
Arm
10
175.68849135604896
20
104.32222916926796
30
0.0
11
175.59957898321775
21
104.37751843563903
31
0.0
  0
LINE
 8
Arm
10
175.7735972696316
20
104.26124313404995
30
0.0
11
175.68849135604896
21
104.32222916926796
31
0.0
  0
LINE
 8
Arm
10
175.85453228737788
20
104.19482148155033
30
0.0
11
175.7735972696316
21
104.26124313404995
31
0.0
  0
LINE
 8
Arm
10
174.69493397644982
20
91.92007264450237
30
0.0
11
174.7995789832181
21
91.91664692168413
31
0.0
  0
LINE
 8
Arm
10
174.59073707566603
20
91.93033514348606
30
0.0
11
174.69493397644982
21
91.92007264450237
31
0.0
  0
LINE
 8
Arm
10
174.48743446799244
20
91.94739047303901
30
0.0
11
174.59073707566603
21
91.93033514348606
31
0.0
  0
LINE
 8
Arm
10
174.38546851105423
20
91.97116559962166
30
0.0
11
174.48743446799244
21
91.94739047303901
31
0.0
  0
LINE
 8
Arm
10
174.28527583873304
20
92.00155871449196
30
0.0
11
174.38546851105423
21
91.97116559962166
31
0.0
  0
LINE
 8
Arm
10
174.187285491434
20
92.03843966966612
30
0.0
11
174.28527583873304
21
92.00155871449196
31
0.0
  0
LINE
 8
Arm
10
174.09191707886765
20
92.0816505352319
30
0.0
11
174.187285491434
21
92.03843966966612
31
0.0
  0
LINE
 8
Arm
10
173.9995789832181
20
92.13100627562902
30
0.0
11
174.09191707886765
21
92.0816505352319
31
0.0
  0
LINE
 8
Arm
10
173.9106666103869
20
92.18629554199998
30
0.0
11
173.9995789832181
21
92.13100627562902
31
0.0
  0
LINE
 8
Arm
10
173.82556069680408
20
92.24728157721816
30
0.0
11
173.9106666103869
21
92.18629554199998
31
0.0
  0
LINE
 8
Arm
10
173.74462567905798
20
92.31370322971779
30
0.0
11
173.82556069680408
21
92.24728157721816
31
0.0
  0
LINE
 8
Arm
10
173.66820813331958
20
92.38527607178571
30
0.0
11
173.74462567905798
21
92.31370322971779
31
0.0
  0
LINE
 8
Arm
10
173.5966352912518
20
92.46169361752405
30
0.0
11
173.66820813331958
21
92.38527607178571
31
0.0
  0
LINE
 8
Arm
10
173.5302136387522
20
92.54262863527023
30
0.0
11
173.5966352912518
21
92.46169361752405
31
0.0
  0
LINE
 8
Arm
10
173.46922760353408
20
92.6277345488528
30
0.0
11
173.5302136387522
21
92.54262863527023
31
0.0
  0
LINE
 8
Arm
10
173.41393833716316
20
92.71664692168413
30
0.0
11
173.46922760353408
21
92.6277345488528
31
0.0
  0
LINE
 8
Arm
10
173.36458259676579
20
92.8089850173338
30
0.0
11
173.41393833716316
21
92.71664692168413
31
0.0
  0
LINE
 8
Arm
10
173.32137173120014
20
92.9043534299
30
0.0
11
173.36458259676579
21
92.8089850173338
31
0.0
  0
LINE
 8
Arm
10
173.284490776026
20
93.00234377719913
30
0.0
11
173.32137173120014
21
92.9043534299
31
0.0
  0
LINE
 8
Arm
10
173.25409766115553
20
93.1025364495201
30
0.0
11
173.284490776026
21
93.00234377719913
31
0.0
  0
LINE
 8
Arm
10
173.2303225345731
20
93.20450240645832
30
0.0
11
173.25409766115553
21
93.1025364495201
31
0.0
  0
LINE
 8
Arm
10
173.21326720502
20
93.30780501413203
30
0.0
11
173.2303225345731
21
93.20450240645832
31
0.0
  0
LINE
 8
Arm
10
173.20300470603627
20
93.41200191491589
30
0.0
11
173.21326720502
21
93.30780501413203
31
0.0
  0
LINE
 8
Arm
10
173.19957898321812
20
93.51664692168413
30
0.0
11
173.20300470603627
21
93.41200191491589
31
0.0
  0
LINE
 8
Arm
10
173.20300470603644
20
93.6212919284524
30
0.0
11
173.19957898321812
21
93.51664692168413
31
0.0
  0
LINE
 8
Arm
10
173.21326720502
20
93.72548882923623
30
0.0
11
173.20300470603644
21
93.6212919284524
31
0.0
  0
LINE
 8
Arm
10
173.2303225345731
20
93.82879143690994
30
0.0
11
173.21326720502
21
93.72548882923623
31
0.0
  0
LINE
 8
Arm
10
173.25409766115553
20
93.93075739384811
30
0.0
11
173.2303225345731
21
93.82879143690994
31
0.0
  0
LINE
 8
Arm
10
173.284490776026
20
94.03095006616918
30
0.0
11
173.25409766115553
21
93.93075739384811
31
0.0
  0
LINE
 8
Arm
10
173.32137173120014
20
94.12894041346829
30
0.0
11
173.284490776026
21
94.03095006616918
31
0.0
  0
LINE
 8
Arm
10
173.36458259676579
20
94.22430882603456
30
0.0
11
173.32137173120014
21
94.12894041346829
31
0.0
  0
LINE
 8
Arm
10
173.41393833716316
20
94.31664692168413
30
0.0
11
173.36458259676579
21
94.22430882603456
31
0.0
  0
LINE
 8
Arm
10
173.46922760353408
20
94.40555929451553
30
0.0
11
173.41393833716316
21
94.31664692168413
31
0.0
  0
LINE
 8
Arm
10
176.3961532603996
20
102.88723278281574
30
0.0
11
176.39957898321774
21
102.99187778958404
31
0.0
  0
LINE
 8
Arm
10
175.93094983311627
20
104.12324863948245
30
0.0
11
175.85453228737788
21
104.19482148155033
31
0.0
  0
LINE
 8
Arm
10
176.06894432768365
20
103.96589607599793
30
0.0
11
176.00252267518403
21
104.04683109374409
31
0.0
  0
LINE
 8
Arm
10
176.2777862352357
20
103.60417128136812
30
0.0
11
176.23457536966987
21
103.6995396939344
31
0.0
  0
LINE
 8
Arm
10
176.23457536966987
20
103.6995396939344
30
0.0
11
176.1852196292727
21
103.79187778958399
31
0.0
  0
LINE
 8
Arm
10
176.31466719040986
20
103.50618093406906
30
0.0
11
176.2777862352357
21
103.60417128136812
31
0.0
  0
LINE
 8
Arm
10
176.34506030528033
20
102.57776731741995
30
0.0
11
176.36883543186275
21
102.67973327435811
31
0.0
  0
LINE
 8
Arm
10
176.38589076141568
20
102.7830358820319
30
0.0
11
176.3961532603996
21
102.88723278281574
31
0.0
  0
LINE
 8
Arm
10
176.12993036290177
20
103.8807901624154
30
0.0
11
176.06894432768365
21
103.96589607599793
31
0.0
  0
LINE
 8
Arm
10
176.00252267518403
20
104.04683109374409
30
0.0
11
175.93094983311627
21
104.12324863948245
31
0.0
  0
LINE
 8
Arm
10
176.36883543186275
20
102.67973327435811
30
0.0
11
176.38589076141568
21
102.7830358820319
31
0.0
  0
LINE
 8
Arm
10
176.36883543186275
20
103.30402230480975
30
0.0
11
176.34506030528013
21
103.40598826174802
31
0.0
  0
LINE
 8
Arm
10
176.38589076141568
20
103.20071969713605
30
0.0
11
176.36883543186275
21
103.30402230480975
31
0.0
  0
LINE
 8
Arm
10
176.3961532603996
20
103.09652279635223
30
0.0
11
176.38589076141568
21
103.20071969713605
31
0.0
  0
LINE
 8
Arm
10
176.39957898321774
20
102.99187778958404
30
0.0
11
176.3961532603996
21
103.09652279635223
31
0.0
  0
LINE
 8
Arm
10
176.31466719040986
20
102.47757464509894
30
0.0
11
176.34506030528033
21
102.57776731741995
31
0.0
  0
LINE
 8
Arm
10
176.2777862352357
20
102.37958429779977
30
0.0
11
176.31466719040986
21
102.47757464509894
31
0.0
  0
LINE
 8
Arm
10
176.34506030528013
20
103.40598826174802
30
0.0
11
176.31466719040986
21
103.50618093406906
31
0.0
  0
LINE
 8
Arm
10
186.19484418050033
20
166.92766339816535
30
0.0
11
185.84671902787753
21
165.89726437126504
31
0.0
  0
LINE
 8
Arm
10
176.1852196292727
20
103.79187778958399
30
0.0
11
176.12993036290177
21
103.8807901624154
31
0.0
  0
LINE
 8
Arm
10
168.29771355176882
20
147.9239990529821
30
0.0
11
168.29771355176916
21
111.5552379004694
31
0.0
  0
LINE
 8
Arm
10
178.89169113808182
20
182.24080991969706
30
0.0
11
178.935522585951
21
182.04471929409857
31
0.0
  0
LINE
 8
Arm
10
167.59032927854753
20
83.17988190887631
30
0.0
11
167.98332492635168
21
84.06363071928568
31
0.0
  0
LINE
 8
Arm
10
167.98332492635168
20
84.06363071928568
30
0.0
11
168.29551985660748
21
84.97904967507353
31
0.0
  0
LINE
 8
Arm
10
165.96127463894643
20
80.78819443976609
30
0.0
11
166.57521759363942
21
81.53554414872157
31
0.0
  0
LINE
 8
Arm
10
167.11969708307328
20
82.33491866963092
30
0.0
11
167.59032927854753
21
83.17988190887631
31
0.0
  0
LINE
 8
Arm
10
166.57521759363942
20
81.53554414872157
30
0.0
11
167.11969708307328
21
82.33491866963092
31
0.0
  0
LINE
 8
Arm
10
182.93117769680669
20
190.93006508558287
30
0.0
11
183.95771141516295
21
189.21840595721093
31
0.0
  0
LINE
 8
Arm
10
186.2896133939231
20
183.71404107667237
30
0.0
11
186.80507904942672
21
181.78587002496133
31
0.0
  0
LINE
 8
Arm
10
185.64102218704895
20
185.60159978914376
30
0.0
11
186.2896133939231
21
183.71404107667237
31
0.0
  0
LINE
 8
Arm
10
187.42726655507644
20
177.84534915584632
30
0.0
11
187.53096274198947
21
175.85216187225245
31
0.0
  0
LINE
 8
Arm
10
187.53096274198947
20
175.85216187225245
30
0.0
11
187.49549676469766
21
173.8565941307023
31
0.0
  0
LINE
 8
Arm
10
187.49549676469766
20
173.8565941307023
30
0.0
11
187.3210410922762
21
171.8683502661271
31
0.0
  0
LINE
 8
Arm
10
187.3210410922762
20
171.8683502661271
30
0.0
11
187.00844409295647
21
169.89709899785174
31
0.0
  0
LINE
 8
Arm
10
187.00844409295647
20
169.89709899785174
30
0.0
11
186.55922590855917
21
167.95242641115047
31
0.0
  0
LINE
 8
Arm
10
186.80507904942672
20
181.78587002496133
30
0.0
11
187.18491247274818
21
179.8264632225875
31
0.0
  0
LINE
 8
Arm
10
187.18491247274818
20
179.8264632225875
30
0.0
11
187.42726655507644
21
177.84534915584632
31
0.0
  0
LINE
 8
Arm
10
183.95771141516295
20
189.21840595721093
30
0.0
11
184.86245949176805
21
187.43936706934483
31
0.0
  0
LINE
 8
Arm
10
165.96127463894643
20
80.78819443976609
30
0.0
11
174.79957898321882
21
71.94989009549444
31
0.0
  0
LINE
 8
Arm
10
188.5304231380064
20
108.68976308586129
30
0.0
11
189.21395649799405
21
109.09993594003976
31
0.0
  0
LINE
 8
Arm
10
187.79237395635994
20
108.38852724803313
30
0.0
11
188.23636741241646
21
108.56974381740463
31
0.0
  0
LINE
 8
Arm
10
187.01704387195883
20
108.20326288356046
30
0.0
11
187.79237395635994
21
108.38852724803313
31
0.0
  0
LINE
 8
Arm
10
186.22253838706584
20
108.13829628448025
30
0.0
11
187.01704387195883
21
108.20326288356046
31
0.0
  0
LINE
 8
Arm
10
185.42741078775148
20
108.19514455032257
30
0.0
11
186.22253838706584
21
108.13829628448025
31
0.0
  0
LINE
 8
Arm
10
184.65022888769673
20
108.37248016081371
30
0.0
11
185.42741078775148
21
108.19514455032257
31
0.0
  0
LINE
 8
Arm
10
183.9091414327497
20
108.66616197611962
30
0.0
11
184.65022888769673
21
108.37248016081371
31
0.0
  0
LINE
 8
Arm
10
183.22145429155006
20
109.0693319407119
30
0.0
11
183.9091414327497
21
108.66616197611962
31
0.0
  0
LINE
 8
Arm
10
182.60322632901378
20
109.57257523262876
30
0.0
11
183.22145429155006
21
109.0693319407119
31
0.0
  0
LINE
 8
Arm
10
182.06889439984363
20
110.16414011832612
30
0.0
11
182.60322632901378
21
109.57257523262876
31
0.0
  0
LINE
 8
Arm
10
181.29957898321808
20
111.5552379004694
30
0.0
11
181.6309362192051
21
110.83021237907028
31
0.0
  0
LINE
 8
Arm
10
181.6309362192051
20
110.83021237907028
30
0.0
11
182.06889439984363
21
110.16414011832612
31
0.0
  0
LINE
 8
Arm
10
181.50095764010968
20
82.01122405797535
30
0.0
11
181.57218171739305
21
80.33207250426477
31
0.0
  0
LINE
 8
Arm
10
181.5471427979654
20
83.69125076630684
30
0.0
11
181.50095764010968
21
82.01122405797535
31
0.0
  0
LINE
 8
Arm
10
181.7105117822895
20
85.36395318588846
30
0.0
11
181.5471427979654
21
83.69125076630684
31
0.0
  0
LINE
 8
Arm
10
181.99026726365355
20
87.02116761985899
30
0.0
11
181.7105117822895
21
85.36395318588846
31
0.0
  0
LINE
 8
Arm
10
182.38504388327124
20
88.65480596114404
30
0.0
11
181.99026726365355
21
87.02116761985899
31
0.0
  0
LINE
 8
Arm
10
182.03850303543817
20
79.27224510658588
30
0.0
11
182.08021851487405
21
79.2305296271501
31
0.0
  0
LINE
 8
Arm
10
181.96088362388775
20
79.36110835403429
30
0.0
11
182.03850303543817
21
79.27224510658588
31
0.0
  0
LINE
 8
Arm
10
181.88942860039032
20
79.45499993732847
30
0.0
11
181.96088362388775
21
79.36110835403429
31
0.0
  0
LINE
 8
Arm
10
181.82446278372925
20
79.55349304603176
30
0.0
11
181.88942860039032
21
79.45499993732847
31
0.0
  0
LINE
 8
Arm
10
181.76628149418315
20
79.65613995218693
30
0.0
11
181.82446278372925
21
79.55349304603176
31
0.0
  0
LINE
 8
Arm
10
181.71514921106683
20
79.76247404558976
30
0.0
11
181.76628149418315
21
79.65613995218693
31
0.0
  0
LINE
 8
Arm
10
181.6712983704663
20
79.87201195489564
30
0.0
11
181.71514921106683
21
79.76247404558976
31
0.0
  0
LINE
 8
Arm
10
181.63492830863476
20
79.98425574491924
30
0.0
11
181.6712983704663
21
79.87201195489564
31
0.0
  0
LINE
 8
Arm
10
181.60620435585435
20
80.09869518013788
30
0.0
11
181.63492830863476
21
79.98425574491924
31
0.0
  0
LINE
 8
Arm
10
181.58525708488204
20
80.21481004411017
30
0.0
11
181.60620435585435
21
80.09869518013788
31
0.0
  0
LINE
 8
Arm
10
181.57218171739305
20
80.33207250426477
30
0.0
11
181.58525708488204
21
80.21481004411017
31
0.0
  0
LINE
 8
Arm
10
174.7995789832181
20
91.91664692168413
30
0.0
11
174.9042239899864
21
91.92007264450248
31
0.0
  0
LINE
 8
Arm
10
174.9042239899864
20
91.92007264450248
30
0.0
11
175.0084208907702
21
91.93033514348602
31
0.0
  0
LINE
 8
Arm
10
175.0084208907702
20
91.93033514348602
30
0.0
11
175.11172349844392
21
91.94739047303898
31
0.0
  0
LINE
 8
Arm
10
175.11172349844392
20
91.94739047303898
30
0.0
11
175.21368945538217
21
91.97116559962163
31
0.0
  0
LINE
 8
Arm
10
175.21368945538217
20
91.97116559962163
30
0.0
11
175.31388212770318
21
92.00155871449203
31
0.0
  0
LINE
 8
Arm
10
175.31388212770318
20
92.00155871449203
30
0.0
11
175.41187247500218
21
92.03843966966612
31
0.0
  0
LINE
 8
Arm
10
175.41187247500218
20
92.03843966966612
30
0.0
11
175.50724088756857
21
92.08165053523187
31
0.0
  0
LINE
 8
Arm
10
175.50724088756857
20
92.08165053523187
30
0.0
11
175.5995789832181
21
92.13100627562906
31
0.0
  0
LINE
 8
Arm
10
175.5995789832181
20
92.13100627562906
30
0.0
11
175.68849135604933
21
92.18629554200008
31
0.0
  0
LINE
 8
Arm
10
175.68849135604933
20
92.18629554200008
30
0.0
11
175.77359726963215
21
92.24728157721816
31
0.0
  0
LINE
 8
Arm
10
175.77359726963215
20
92.24728157721816
30
0.0
11
175.85453228737822
21
92.31370322971786
31
0.0
  0
LINE
 8
Arm
10
175.85453228737822
20
92.31370322971786
30
0.0
11
175.93094983311644
21
92.38527607178564
31
0.0
  0
LINE
 8
Arm
10
175.93094983311644
20
92.38527607178564
30
0.0
11
176.0025226751844
21
92.46169361752399
31
0.0
  0
LINE
 8
Arm
10
176.0025226751844
20
92.46169361752399
30
0.0
11
176.0689443276842
21
92.5426286352702
31
0.0
  0
LINE
 8
Arm
10
176.0689443276842
20
92.5426286352702
30
0.0
11
176.12993036290194
21
92.62773454885277
31
0.0
  0
LINE
 8
Arm
10
176.12993036290194
20
92.62773454885277
30
0.0
11
176.18521962927323
21
92.71664692168412
31
0.0
  0
LINE
 8
Arm
10
176.18521962927323
20
92.71664692168412
30
0.0
11
176.23457536967044
21
92.80898501733373
31
0.0
  0
LINE
 8
Arm
10
176.23457536967044
20
92.80898501733373
30
0.0
11
176.27778623523625
21
92.9043534299
31
0.0
  0
LINE
 8
Arm
10
176.27778623523625
20
92.9043534299
30
0.0
11
176.31466719041023
21
93.00234377719909
31
0.0
  0
LINE
 8
Arm
10
176.31466719041023
20
93.00234377719909
30
0.0
11
176.34506030528067
21
93.1025364495201
31
0.0
  0
LINE
 8
Arm
10
176.34506030528067
20
93.1025364495201
30
0.0
11
176.3688354318633
21
93.20450240645835
31
0.0
  0
LINE
 8
Arm
10
176.3688354318633
20
93.20450240645835
30
0.0
11
176.38589076141605
21
93.30780501413207
31
0.0
  0
LINE
 8
Arm
10
176.38589076141605
20
93.30780501413207
30
0.0
11
176.39615326039979
21
93.4120019149159
31
0.0
  0
LINE
 8
Arm
10
176.39615326039979
20
93.4120019149159
30
0.0
11
176.3995789832181
21
93.51664692168416
31
0.0
  0
LINE
 8
Arm
10
176.3995789832181
20
93.51664692168416
30
0.0
11
176.39615326039979
21
93.62129192845238
31
0.0
  0
LINE
 8
Arm
10
176.39615326039979
20
93.62129192845238
30
0.0
11
176.38589076141622
21
93.72548882923627
31
0.0
  0
LINE
 8
Arm
10
176.38589076141622
20
93.72548882923627
30
0.0
11
176.3688354318635
21
93.82879143691001
31
0.0
  0
LINE
 8
Arm
10
176.3688354318635
20
93.82879143691001
30
0.0
11
176.34506030528067
21
93.93075739384821
31
0.0
  0
LINE
 8
Arm
10
176.34506030528067
20
93.93075739384821
30
0.0
11
176.3146671904104
21
94.03095006616927
31
0.0
  0
LINE
 8
Arm
10
176.3146671904104
20
94.03095006616927
30
0.0
11
176.27778623523625
21
94.12894041346834
31
0.0
  0
LINE
 8
Arm
10
176.27778623523625
20
94.12894041346834
30
0.0
11
176.2345753696706
21
94.22430882603459
31
0.0
  0
LINE
 8
Arm
10
176.2345753696706
20
94.22430882603459
30
0.0
11
176.18521962927323
21
94.31664692168422
31
0.0
  0
LINE
 8
Arm
10
176.18521962927323
20
94.31664692168422
30
0.0
11
176.12993036290214
21
94.40555929451557
31
0.0
  0
LINE
 8
Arm
10
176.12993036290214
20
94.40555929451557
30
0.0
11
176.0689443276842
21
94.49066520809812
31
0.0
  0
LINE
 8
Arm
10
176.0689443276842
20
94.49066520809812
30
0.0
11
176.00252267518457
21
94.57160022584434
31
0.0
  0
LINE
 8
Arm
10
176.00252267518457
20
94.57160022584434
30
0.0
11
175.9309498331166
21
94.64801777158263
31
0.0
  0
LINE
 8
Arm
10
175.9309498331166
20
94.64801777158263
30
0.0
11
175.85453228737822
21
94.71959061365058
31
0.0
  0
LINE
 8
Arm
10
175.85453228737822
20
94.71959061365058
30
0.0
11
175.77359726963215
21
94.78601226615012
31
0.0
  0
LINE
 8
Arm
10
175.77359726963215
20
94.78601226615012
30
0.0
11
175.6884913560495
21
94.84699830136825
31
0.0
  0
LINE
 8
Arm
10
175.6884913560495
20
94.84699830136825
30
0.0
11
175.59957898321792
21
94.9022875677392
31
0.0
  0
LINE
 8
Arm
10
175.59957898321792
20
94.9022875677392
30
0.0
11
175.50724088756837
21
94.9516433081365
31
0.0
  0
LINE
 8
Arm
10
175.50724088756837
20
94.9516433081365
30
0.0
11
175.41187247500218
21
94.9948541737022
31
0.0
  0
LINE
 8
Arm
10
175.41187247500218
20
94.9948541737022
30
0.0
11
175.31388212770298
21
95.03173512887635
31
0.0
  0
LINE
 8
Arm
10
175.31388212770298
20
95.03173512887635
30
0.0
11
175.21368945538217
21
95.06212824374668
31
0.0
  0
LINE
 8
Arm
10
175.21368945538217
20
95.06212824374668
30
0.0
11
175.11172349844375
21
95.08590337032936
31
0.0
  0
LINE
 8
Arm
10
175.11172349844375
20
95.08590337032936
30
0.0
11
175.00842089077
21
95.10295869988231
31
0.0
  0
LINE
 8
Arm
10
175.00842089077
20
95.10295869988231
30
0.0
11
174.9042239899862
21
95.11322119886599
31
0.0
  0
LINE
 8
Arm
10
174.9042239899862
20
95.11322119886599
30
0.0
11
174.7995789832179
21
95.1166469216842
31
0.0
  0
LINE
 8
Arm
10
174.7995789832179
20
95.1166469216842
30
0.0
11
174.69493397644982
21
95.11322119886599
31
0.0
  0
LINE
 8
Arm
10
174.69493397644982
20
95.11322119886599
30
0.0
11
174.59073707566603
21
95.10295869988231
31
0.0
  0
LINE
 8
Arm
10
174.59073707566603
20
95.10295869988231
30
0.0
11
174.48743446799227
21
95.08590337032936
31
0.0
  0
LINE
 8
Arm
10
174.48743446799227
20
95.08590337032936
30
0.0
11
174.38546851105386
21
95.06212824374666
31
0.0
  0
LINE
 8
Arm
10
174.38546851105386
20
95.06212824374666
30
0.0
11
174.28527583873284
21
95.03173512887639
31
0.0
  0
LINE
 8
Arm
10
174.28527583873284
20
95.03173512887639
30
0.0
11
174.18728549143384
21
94.99485417370235
31
0.0
  0
LINE
 8
Arm
10
174.18728549143384
20
94.99485417370235
30
0.0
11
174.09191707886765
21
94.9516433081365
31
0.0
  0
LINE
 8
Arm
10
174.09191707886765
20
94.9516433081365
30
0.0
11
173.9995789832181
21
94.90228756773924
31
0.0
  0
LINE
 8
Arm
10
173.9995789832181
20
94.90228756773924
30
0.0
11
173.9106666103867
21
94.84699830136815
31
0.0
  0
LINE
 8
Arm
10
173.9106666103867
20
94.84699830136815
30
0.0
11
173.82556069680425
21
94.78601226615017
31
0.0
  0
LINE
 8
Arm
10
173.82556069680425
20
94.78601226615017
30
0.0
11
173.74462567905798
21
94.71959061365051
31
0.0
  0
LINE
 8
Arm
10
173.74462567905798
20
94.71959061365051
30
0.0
11
173.66820813331958
21
94.64801777158263
31
0.0
  0
LINE
 8
Arm
10
173.66820813331958
20
94.64801777158263
30
0.0
11
173.5966352912518
21
94.57160022584429
31
0.0
  0
LINE
 8
Arm
10
173.5966352912518
20
94.57160022584429
30
0.0
11
173.5302136387522
21
94.49066520809816
31
0.0
  0
LINE
 8
Arm
10
173.5302136387522
20
94.49066520809816
30
0.0
11
173.46922760353408
21
94.40555929451553
31
0.0
  0
LINE
 8
Arm
10
181.29957898321808
20
111.5552379004694
30
0.0
11
181.29957898321842
21
147.9239990529821
31
0.0
  0
LINE
 8
Arm
10
193.71541338122722
20
104.4109183533386
30
0.0
11
189.21395649799405
21
109.09993594003976
31
0.0
  0
LINE
 8
Arm
10
178.78483688337542
20
199.56827511356497
30
0.0
11
182.93117769680669
21
190.93006508558287
31
0.0
  0
LINE
 8
Arm
10
185.84671902787753
20
165.89726437126504
30
0.0
11
185.5149375739697
21
164.8614872024839
31
0.0
  0
LINE
 8
Arm
10
186.55922590855917
20
167.95242641115047
30
0.0
11
186.19484418050033
21
166.92766339816535
31
0.0
  0
LINE
 8
Arm
10
181.5752969347935
20
149.3529705899773
30
0.0
11
181.86485381649646
21
150.77920228736085
31
0.0
  0
LINE
 8
Arm
10
184.2767932821692
20
160.67488655561021
30
0.0
11
184.67597340862335
21
162.07439906681094
31
0.0
  0
LINE
 8
Arm
10
183.89119823117588
20
159.27157030507632
30
0.0
11
184.2767932821692
21
160.67488655561021
31
0.0
  0
LINE
 8
Arm
10
183.5192244893043
20
157.8645821822689
30
0.0
11
183.89119823117588
21
159.27157030507632
31
0.0
  0
LINE
 8
Arm
10
181.29957898321842
20
147.9239990529821
30
0.0
11
181.5752969347935
21
149.3529705899773
31
0.0
  0
LINE
 8
Arm
10
181.86485381649646
20
150.77920228736085
30
0.0
11
182.1682224191973
21
152.20256012475045
31
0.0
  0
LINE
 8
Arm
10
182.1682224191973
20
152.20256012475045
30
0.0
11
182.4853742359034
21
153.6229103518153
31
0.0
  0
LINE
 8
Arm
10
182.81627946443925
20
155.040119500844
30
0.0
11
183.16090701024618
21
156.45405439928675
31
0.0
  0
LINE
 8
Arm
10
182.4853742359034
20
153.6229103518153
30
0.0
11
182.81627946443925
21
155.040119500844
31
0.0
  0
LINE
 8
Arm
10
184.67597340862335
20
162.07439906681094
30
0.0
11
185.08870110031194
21
163.46997632904916
31
0.0
  0
LINE
 8
Arm
10
183.16090701024618
20
156.45405439928675
30
0.0
11
183.5192244893043
21
157.8645821822689
31
0.0
  0
LINE
 8
Arm
10
185.08870110031194
20
163.46997632904916
30
0.0
11
185.5149375739697
21
164.8614872024839
31
0.0
  0
LINE
 8
Arm
10
177.855697392644
20
179.87480997337093
30
0.0
11
177.69319701421105
21
180.03060930515704
31
0.0
  0
LINE
 8
Arm
10
182.9257750851498
20
182.6844243964058
30
0.0
11
183.01778396738075
21
182.7946331997518
31
0.0
  0
LINE
 8
Arm
10
183.34116048924434
20
183.87152767887636
30
0.0
11
183.32508603412208
21
184.0141924139615
31
0.0
  0
LINE
 8
Arm
10
179.2077444632332
20
181.51045377791664
30
0.0
11
179.34062163313573
21
181.35973421386265
31
0.0
  0
LINE
 8
Arm
10
179.04638204433277
20
183.21748986334478
30
0.0
11
178.96658325270758
21
183.03308573615388
31
0.0
  0
LINE
 8
Arm
10
178.87909333966942
20
182.6416783650709
30
0.0
11
178.87278198644896
21
182.44084784923663
31
0.0
  0
LINE
 8
Arm
10
183.20154876382415
20
184.42559087784338
30
0.0
11
183.13637050221905
21
184.55351041880004
31
0.0
  0
LINE
 8
Arm
10
182.53439783807286
20
185.15548308294626
30
0.0
11
182.4064782971163
21
185.22066134455125
31
0.0
  0
LINE
 8
Arm
10
182.77018567154607
20
184.99212885447
30
0.0
11
182.65595987823943
21
185.07910059061376
31
0.0
  0
LINE
 8
Arm
10
181.56564152740464
20
185.35383680572633
30
0.0
11
181.42384162391673
21
185.33137790737422
31
0.0
  0
LINE
 8
Arm
10
179.09480523982805
20
181.6766387985608
30
0.0
11
179.2077444632332
21
181.51045377791664
31
0.0
  0
LINE
 8
Arm
10
181.99507983323434
20
185.3441986148494
30
0.0
11
181.85241509814932
21
185.36027306997133
31
0.0
  0
LINE
 8
Arm
10
183.33472422499906
20
183.58475410813185
30
0.0
11
183.34438186507785
21
183.7279963670237
31
0.0
  0
LINE
 8
Arm
10
179.00358508193963
20
181.85566843874568
30
0.0
11
179.09480523982805
21
181.6766387985608
31
0.0
  0
LINE
 8
Arm
10
183.05998800988658
20
184.6750724589666
30
0.0
11
182.97301627374287
21
184.78929825227314
31
0.0
  0
LINE
 8
Arm
10
182.2732311882982
20
185.27411059839045
30
0.0
11
182.13572933899056
21
185.31540050249976
31
0.0
  0
LINE
 8
Arm
10
182.4064782971163
20
185.22066134455125
30
0.0
11
182.2732311882982
21
185.27411059839045
31
0.0
  0
LINE
 8
Arm
10
182.87615553906852
20
184.89526811979547
30
0.0
11
182.77018567154607
21
184.99212885447
31
0.0
  0
LINE
 8
Arm
10
182.97301627374287
20
184.78929825227314
30
0.0
11
182.87615553906852
21
184.89526811979547
31
0.0
  0
LINE
 8
Arm
10
181.01397315542656
20
180.9856958334347
30
0.0
11
181.1983772826173
21
181.06549462505996
31
0.0
  0
LINE
 8
Arm
10
183.13637050221905
20
184.55351041880004
30
0.0
11
183.05998800988658
21
184.6750724589666
31
0.0
  0
LINE
 8
Arm
10
179.4913411971893
20
181.22685704396022
30
0.0
11
179.6575262178337
21
181.11391782055517
31
0.0
  0
LINE
 8
Arm
10
182.65595987823943
20
185.07910059061376
30
0.0
11
182.53439783807286
21
185.15548308294626
31
0.0
  0
LINE
 8
Arm
10
181.53009146755196
20
181.29092735235264
30
0.0
11
182.9257750851498
21
182.6844243964058
31
0.0
  0
LINE
 8
Arm
10
183.25499801766335
20
184.29234376902542
30
0.0
11
183.20154876382415
21
184.42559087784338
31
0.0
  0
LINE
 8
Arm
10
183.01778396738075
20
182.7946331997518
30
0.0
11
183.09954340793527
21
182.91264594747253
31
0.0
  0
LINE
 8
Arm
10
181.3713258875977
20
181.1677761449221
30
0.0
11
181.53009146755196
21
181.29092735235264
31
0.0
  0
LINE
 8
Arm
10
183.1703951278713
20
183.03751247031377
30
0.0
11
183.22976867080038
21
183.168227416454
31
0.0
  0
LINE
 8
Arm
10
181.1983772826173
20
181.06549462505996
30
0.0
11
181.3713258875977
21
181.1677761449221
31
0.0
  0
LINE
 8
Arm
10
180.6225657843438
20
180.89820592039635
30
0.0
11
180.8210216692688
21
180.92963824465932
31
0.0
  0
LINE
 8
Arm
10
180.42173526850917
20
180.89189456717614
30
0.0
11
180.6225657843438
21
180.89820592039635
31
0.0
  0
LINE
 8
Arm
10
180.22169733896976
20
180.91080371880935
30
0.0
11
180.42173526850917
21
180.89189456717614
31
0.0
  0
LINE
 8
Arm
10
180.02560671337145
20
180.95463516667843
30
0.0
11
180.22169733896976
21
180.91080371880935
31
0.0
  0
LINE
 8
Arm
10
179.83655585801858
20
181.02269766266704
30
0.0
11
180.02560671337145
21
180.95463516667843
31
0.0
  0
LINE
 8
Arm
10
179.6575262178337
20
181.11391782055517
30
0.0
11
179.83655585801858
21
181.02269766266704
31
0.0
  0
LINE
 8
Arm
10
179.34062163313573
20
181.35973421386265
30
0.0
11
179.4913411971893
21
181.22685704396022
31
0.0
  0
LINE
 8
Arm
10
181.28462576527875
20
185.29629857659302
30
0.0
11
181.14911483572675
21
185.24888125152756
31
0.0
  0
LINE
 8
Arm
10
178.96658325270758
20
183.03308573615388
30
0.0
11
178.91052566393205
21
182.84013424999574
31
0.0
  0
LINE
 8
Arm
10
179.14866356419472
20
183.39043846832487
30
0.0
11
179.04638204433277
21
183.21748986334478
31
0.0
  0
LINE
 8
Arm
10
183.09954340793527
20
182.91264594747253
30
0.0
11
183.1703951278713
21
183.03751247031377
31
0.0
  0
LINE
 8
Arm
10
183.2771859958658
20
183.30373834600573
30
0.0
11
183.31226532664718
21
183.44295420464394
31
0.0
  0
LINE
 8
Arm
10
183.31226532664718
20
183.44295420464394
30
0.0
11
183.33472422499906
21
183.58475410813185
31
0.0
  0
LINE
 8
Arm
10
183.32508603412208
20
184.0141924139615
30
0.0
11
183.29628792177272
21
184.15484191971765
31
0.0
  0
LINE
 8
Arm
10
179.27181477162543
20
183.54920404827925
30
0.0
11
179.14866356419472
21
183.39043846832487
31
0.0
  0
LINE
 8
Arm
10
183.29628792177272
20
184.15484191971765
30
0.0
11
183.25499801766335
21
184.29234376902542
31
0.0
  0
LINE
 8
Arm
10
183.22976867080038
20
183.168227416454
30
0.0
11
183.2771859958658
21
183.30373834600573
31
0.0
  0
LINE
 8
Arm
10
178.935522585951
20
182.04471929409857
30
0.0
11
179.00358508193963
21
181.85566843874568
31
0.0
  0
LINE
 8
Arm
10
178.91052566393205
20
182.84013424999574
30
0.0
11
178.87909333966942
21
182.6416783650709
31
0.0
  0
LINE
 8
Arm
10
181.85241509814932
20
185.36027306997133
30
0.0
11
181.70888378629667
21
185.36349444580512
31
0.0
  0
LINE
 8
Arm
10
181.70888378629667
20
185.36349444580512
30
0.0
11
181.56564152740464
21
185.35383680572633
31
0.0
  0
LINE
 8
Arm
10
181.14911483572675
20
185.24888125152756
30
0.0
11
181.0183998895868
21
185.18950770859848
31
0.0
  0
LINE
 8
Arm
10
181.0183998895868
20
185.18950770859848
30
0.0
11
180.8935333667454
21
185.1186559886623
31
0.0
  0
LINE
 8
Arm
10
180.8935333667454
20
185.1186559886623
30
0.0
11
180.77552061902463
21
185.03689654810788
31
0.0
  0
LINE
 8
Arm
10
180.77552061902463
20
185.03689654810788
30
0.0
11
180.6653118156786
21
184.9448876658768
31
0.0
  0
LINE
 8
Arm
10
179.27181477162543
20
183.54920404827925
30
0.0
11
180.6653118156786
21
184.9448876658768
31
0.0
  0
LINE
 8
Arm
10
182.13572933899056
20
185.31540050249976
30
0.0
11
181.99507983323434
21
185.3441986148494
31
0.0
  0
LINE
 8
Arm
10
180.8210216692688
20
180.92963824465932
30
0.0
11
181.01397315542656
21
180.9856958334347
31
0.0
  0
LINE
 8
Arm
10
178.87278198644896
20
182.44084784923663
30
0.0
11
178.89169113808182
21
182.24080991969706
31
0.0
  0
LINE
 8
Arm
10
183.34438186507785
20
183.7279963670237
30
0.0
11
183.34116048924434
21
183.87152767887636
31
0.0
  0
LINE
 8
Arm
10
181.42384162391673
20
185.33137790737422
30
0.0
11
181.28462576527875
21
185.29629857659302
31
0.0
  0
LINE
 8
Arm
10
170.32734319481204
20
170.15057614270967
30
0.0
11
170.45049440224275
21
170.30934172266404
31
0.0
  0
LINE
 8
Arm
10
170.45049440224275
20
170.30934172266404
30
0.0
11
170.55277592210487
21
170.48229032764408
31
0.0
  0
LINE
 8
Arm
10
170.55277592210487
20
170.48229032764408
30
0.0
11
170.63257471373007
21
170.666694454835
31
0.0
  0
LINE
 8
Arm
10
170.63257471373007
20
170.666694454835
30
0.0
11
170.68863230250543
21
170.85964594099312
31
0.0
  0
LINE
 8
Arm
10
170.68863230250543
20
170.85964594099312
30
0.0
11
170.72006462676825
21
171.05810182591796
31
0.0
  0
LINE
 8
Arm
10
170.72006462676825
20
171.05810182591796
30
0.0
11
170.7263759799887
21
171.2589323417523
31
0.0
  0
LINE
 8
Arm
10
170.70746682835565
20
171.45897027129175
30
0.0
11
170.66363538048668
21
171.65506089689023
31
0.0
  0
LINE
 8
Arm
10
170.66363538048668
20
171.65506089689023
30
0.0
11
170.59557288449784
21
171.84411175224318
31
0.0
  0
LINE
 8
Arm
10
170.59557288449784
20
171.84411175224318
30
0.0
11
170.5043527266096
21
172.02314139242802
31
0.0
  0
LINE
 8
Arm
10
170.5043527266096
20
172.02314139242802
30
0.0
11
170.39141350320443
21
172.18932641307225
31
0.0
  0
LINE
 8
Arm
10
170.39141350320443
20
172.18932641307225
30
0.0
11
170.25853633330192
21
172.34004597712615
31
0.0
  0
LINE
 8
Arm
10
170.25853633330192
20
172.34004597712615
30
0.0
11
170.10781676924816
21
172.47292314702855
31
0.0
  0
LINE
 8
Arm
10
170.10781676924816
20
172.47292314702855
30
0.0
11
169.94163174860395
21
172.58586237043374
31
0.0
  0
LINE
 8
Arm
10
169.94163174860395
20
172.58586237043374
30
0.0
11
169.76260210841906
21
172.67708252832176
31
0.0
  0
LINE
 8
Arm
10
169.76260210841906
20
172.67708252832176
30
0.0
11
169.57355125306603
21
172.74514502431046
31
0.0
  0
LINE
 8
Arm
10
169.57355125306603
20
172.74514502431046
30
0.0
11
169.3774606274677
21
172.78897647217948
31
0.0
  0
LINE
 8
Arm
10
169.3774606274677
20
172.78897647217948
30
0.0
11
169.1774226979283
21
172.8078856238126
31
0.0
  0
LINE
 8
Arm
10
169.1774226979283
20
172.8078856238126
30
0.0
11
168.97659218209384
21
172.80157427059254
31
0.0
  0
LINE
 8
Arm
10
168.97659218209384
20
172.80157427059254
30
0.0
11
168.77813629716888
21
172.77014194632946
31
0.0
  0
LINE
 8
Arm
10
168.5851848110111
20
172.71408435755413
30
0.0
11
168.4007806838202
21
172.63428556592893
31
0.0
  0
LINE
 8
Arm
10
168.4007806838202
20
172.63428556592893
30
0.0
11
168.22783207883998
21
172.5320040460668
31
0.0
  0
LINE
 8
Arm
10
168.22783207883998
20
172.5320040460668
30
0.0
11
168.06906649888572
21
172.4088528386362
31
0.0
  0
LINE
 8
Arm
10
166.31879771604022
20
184.17011277989096
30
0.0
11
166.2899996036905
21
184.02946327413463
31
0.0
  0
LINE
 8
Arm
10
177.82449886109524
20
173.79377168606916
30
0.0
11
177.9802981928814
21
173.95627206450217
31
0.0
  0
LINE
 8
Arm
10
168.06906649888572
20
172.4088528386362
30
0.0
11
166.67338288128784
21
171.01535579458314
31
0.0
  0
LINE
 8
Arm
10
188.23636741241646
20
108.56974381740463
30
0.0
11
188.5304231380064
21
108.68976308586129
31
0.0
  0
LINE
 8
Arm
10
168.29771355176916
20
111.5552379004694
30
0.0
11
168.29551985660748
21
84.97904967507353
31
0.0
  0
LINE
 8
Arm
10
166.67338288128784
20
171.01535579458314
30
0.0
11
166.58137399905672
21
170.9051469912371
31
0.0
  0
LINE
 8
Arm
10
166.58137399905672
20
170.9051469912371
30
0.0
11
166.49961455850237
21
170.78713424351636
31
0.0
  0
LINE
 8
Arm
10
166.49961455850237
20
170.78713424351636
30
0.0
11
166.42876283856634
21
170.6622677206751
31
0.0
  0
LINE
 8
Arm
10
166.42876283856634
20
170.6622677206751
30
0.0
11
166.36938929563726
21
170.53155277453484
31
0.0
  0
LINE
 8
Arm
10
166.36938929563726
20
170.53155277453484
30
0.0
11
166.32197197057167
21
170.396041844983
31
0.0
  0
LINE
 8
Arm
10
166.32197197057167
20
170.396041844983
30
0.0
11
166.28689263979047
21
170.25682598634498
31
0.0
  0
LINE
 8
Arm
10
166.28689263979047
20
170.25682598634498
30
0.0
11
166.2644337414384
21
170.11502608285696
31
0.0
  0
LINE
 8
Arm
10
166.2644337414384
20
170.11502608285696
30
0.0
11
166.25477610135962
21
169.9717838239651
31
0.0
  0
LINE
 8
Arm
10
166.25477610135962
20
169.9717838239651
30
0.0
11
166.25799747719333
21
169.82825251211253
31
0.0
  0
LINE
 8
Arm
10
166.25799747719333
20
169.82825251211253
30
0.0
11
166.2740719323154
21
169.68558777702728
31
0.0
  0
LINE
 8
Arm
10
166.2740719323154
20
169.68558777702728
30
0.0
11
166.30287004466496
21
169.54493827127115
31
0.0
  0
LINE
 8
Arm
10
166.30287004466496
20
169.54493827127115
30
0.0
11
166.3441599487743
21
169.40743642196347
31
0.0
  0
LINE
 8
Arm
10
166.3441599487743
20
169.40743642196347
30
0.0
11
166.3976092026135
21
169.2741893131453
31
0.0
  0
LINE
 8
Arm
10
166.3976092026135
20
169.2741893131453
30
0.0
11
166.46278746421842
21
169.14626977218876
31
0.0
  0
LINE
 8
Arm
10
166.46278746421842
20
169.14626977218876
30
0.0
11
166.5391699565509
21
169.0247077320222
31
0.0
  0
LINE
 8
Arm
10
166.5391699565509
20
169.0247077320222
30
0.0
11
166.6261416926948
21
168.9104819387157
31
0.0
  0
LINE
 8
Arm
10
166.6261416926948
20
168.9104819387157
30
0.0
11
166.72300242736912
21
168.80451207119333
31
0.0
  0
LINE
 8
Arm
10
166.72300242736912
20
168.80451207119333
30
0.0
11
166.8289722948916
21
168.70765133651884
31
0.0
  0
LINE
 8
Arm
10
166.8289722948916
20
168.70765133651884
30
0.0
11
166.94319808819805
21
168.62067960037498
31
0.0
  0
LINE
 8
Arm
10
166.94319808819805
20
168.62067960037498
30
0.0
11
167.0647601283646
21
168.54429710804257
31
0.0
  0
LINE
 8
Arm
10
167.0647601283646
20
168.54429710804257
30
0.0
11
167.19267966932117
21
168.47911884643756
31
0.0
  0
LINE
 8
Arm
10
167.19267966932117
20
168.47911884643756
30
0.0
11
167.3259267781393
21
168.42566959259835
31
0.0
  0
LINE
 8
Arm
10
167.3259267781393
20
168.42566959259835
30
0.0
11
167.4634286274471
21
168.3843796884891
31
0.0
  0
LINE
 8
Arm
10
167.60407813320333
20
168.35558157613949
30
0.0
11
167.74674286828835
21
168.3395071210175
31
0.0
  0
LINE
 8
Arm
10
167.74674286828835
20
168.3395071210175
30
0.0
11
167.89027418014098
21
168.3362857451837
31
0.0
  0
LINE
 8
Arm
10
167.89027418014098
20
168.3362857451837
30
0.0
11
168.03351643903284
21
168.3459433852626
31
0.0
  0
LINE
 8
Arm
10
168.03351643903284
20
168.3459433852626
30
0.0
11
168.17531634252094
21
168.36840228361459
31
0.0
  0
LINE
 8
Arm
10
168.31453220115873
20
168.40348161439587
30
0.0
11
168.45004313071072
21
168.45089893946124
31
0.0
  0
LINE
 8
Arm
10
168.45004313071072
20
168.45089893946124
30
0.0
11
168.58075807685086
21
168.5102724823904
31
0.0
  0
LINE
 8
Arm
10
168.58075807685086
20
168.5102724823904
30
0.0
11
168.70562459969207
21
168.58112420232646
31
0.0
  0
LINE
 8
Arm
10
168.70562459969207
20
168.58112420232646
30
0.0
11
168.82363734741284
21
168.6628836428809
31
0.0
  0
LINE
 8
Arm
10
168.82363734741284
20
168.6628836428809
30
0.0
11
168.93384615075888
21
168.7548925251121
31
0.0
  0
LINE
 8
Arm
10
170.32734319481204
20
170.15057614270967
30
0.0
11
168.93384615075888
21
168.7548925251121
31
0.0
  0
LINE
 8
Arm
10
170.7263759799887
20
171.2589323417523
30
0.0
11
170.70746682835565
21
171.45897027129175
31
0.0
  0
LINE
 8
Arm
10
168.77813629716888
20
172.77014194632946
30
0.0
11
168.5851848110111
21
172.71408435755413
31
0.0
  0
LINE
 8
Arm
10
168.17531634252094
20
168.36840228361459
30
0.0
11
168.31453220115873
21
168.40348161439587
31
0.0
  0
LINE
 8
Arm
10
167.4634286274471
20
168.3843796884891
30
0.0
11
167.60407813320333
21
168.35558157613949
31
0.0
  0
LINE
 8
Arm
10
166.30282031116576
20
183.45822506481707
30
0.0
11
166.33789964194696
21
183.31900920617917
31
0.0
  0
LINE
 8
Arm
10
170.70455997388052
20
182.85540511016913
30
0.0
11
170.64850238510516
21
183.048356596327
31
0.0
  0
LINE
 8
Arm
10
169.1933503693032
20
180.90716542734924
30
0.0
11
169.3933882988428
21
180.9260745789823
31
0.0
  0
LINE
 8
Arm
10
170.73599229814351
20
182.65694922524415
30
0.0
11
170.70455997388052
21
182.85540511016913
31
0.0
  0
LINE
 8
Arm
10
166.6420693640699
20
184.80456911244647
30
0.0
11
166.55509762792616
21
184.69034331913983
31
0.0
  0
LINE
 8
Arm
10
168.24375975021508
20
181.18304700509512
30
0.0
11
168.41670835519508
21
181.0807654852331
31
0.0
  0
LINE
 8
Arm
10
166.9591257595733
20
185.09437145078707
30
0.0
11
166.8448999662667
21
185.0073997146432
31
0.0
  0
LINE
 8
Arm
10
166.8448999662667
20
185.0073997146432
30
0.0
11
166.7389300987444
21
184.9105389799689
31
0.0
  0
LINE
 8
Arm
10
166.7389300987444
20
184.9105389799689
30
0.0
11
166.6420693640699
21
184.80456911244647
31
0.0
  0
LINE
 8
Arm
10
168.60111248238601
20
181.0009666936079
30
0.0
11
168.79406396854415
21
180.94490910483253
31
0.0
  0
LINE
 8
Arm
10
170.5202803979847
20
181.6919096587341
30
0.0
11
170.61150055587277
21
181.8709392989189
31
0.0
  0
LINE
 8
Arm
10
170.27446400467718
20
181.3750050740361
30
0.0
11
170.40734117457953
21
181.52572463808983
31
0.0
  0
LINE
 8
Arm
10
169.95755941997905
20
181.12918868072828
30
0.0
11
170.12374444062326
21
181.2421279041336
31
0.0
  0
LINE
 8
Arm
10
169.77852977979416
20
181.03796852284012
30
0.0
11
169.95755941997905
21
181.12918868072828
31
0.0
  0
LINE
 8
Arm
10
170.64850238510516
20
183.048356596327
30
0.0
11
170.5687035934798
21
183.2327607235178
31
0.0
  0
LINE
 8
Arm
10
169.3933882988428
20
180.9260745789823
30
0.0
11
169.58947892444112
21
180.96990602685128
31
0.0
  0
LINE
 8
Arm
10
170.72339449973057
20
182.2560807798702
30
0.0
11
170.7423036513636
21
182.45611870940968
31
0.0
  0
LINE
 8
Arm
10
168.72155227106734
20
185.13392684883559
30
0.0
11
168.59668574822615
21
185.20477856877176
31
0.0
  0
LINE
 8
Arm
10
170.61150055587277
20
181.8709392989189
30
0.0
11
170.6795630518614
21
182.0599901542719
31
0.0
  0
LINE
 8
Arm
10
166.3600876201494
20
184.30761462919864
30
0.0
11
166.31879771604022
21
184.17011277989096
31
0.0
  0
LINE
 8
Arm
10
168.79406396854415
20
180.94490910483253
30
0.0
11
168.99251985346893
21
180.91347678056977
31
0.0
  0
LINE
 8
Arm
10
166.4135368739886
20
184.4408617380167
30
0.0
11
166.3600876201494
21
184.30761462919864
31
0.0
  0
LINE
 8
Arm
10
170.7423036513636
20
182.45611870940968
30
0.0
11
170.73599229814351
21
182.65694922524415
31
0.0
  0
LINE
 8
Arm
10
170.5687035934798
20
183.2327607235178
30
0.0
11
170.46642207361768
21
183.40570932849803
31
0.0
  0
LINE
 8
Arm
10
169.58947892444112
20
180.96990602685128
30
0.0
11
169.77852977979416
21
181.03796852284012
31
0.0
  0
LINE
 8
Arm
10
168.41670835519508
20
181.0807654852331
30
0.0
11
168.60111248238601
21
181.0009666936079
31
0.0
  0
LINE
 8
Arm
10
168.8395650187881
20
185.0521674082812
30
0.0
11
168.72155227106734
21
185.13392684883559
31
0.0
  0
LINE
 8
Arm
10
170.34327086618734
20
183.56447490845235
30
0.0
11
168.94977382213398
21
184.96015852605012
31
0.0
  0
LINE
 8
Arm
10
168.94977382213398
20
184.96015852605012
30
0.0
11
168.8395650187881
21
185.0521674082812
31
0.0
  0
LINE
 8
Arm
10
167.0806877997399
20
185.17075394311945
30
0.0
11
166.9591257595733
21
185.09437145078707
31
0.0
  0
LINE
 8
Arm
10
167.20860734069646
20
185.2359322047244
30
0.0
11
167.0806877997399
21
185.17075394311945
31
0.0
  0
LINE
 8
Arm
10
167.34185444951456
20
185.28938145856367
30
0.0
11
167.20860734069646
21
185.2359322047244
31
0.0
  0
LINE
 8
Arm
10
167.47935629882218
20
185.33067136267306
30
0.0
11
167.34185444951456
21
185.28938145856367
31
0.0
  0
LINE
 8
Arm
10
167.62000580457843
20
185.35946947502254
30
0.0
11
167.47935629882218
21
185.33067136267306
31
0.0
  0
LINE
 8
Arm
10
168.08499417026061
20
181.30619821252586
30
0.0
11
168.24375975021508
21
181.18304700509512
31
0.0
  0
LINE
 8
Arm
10
167.76267053966362
20
185.3755439301447
30
0.0
11
167.62000580457843
21
185.35946947502254
31
0.0
  0
LINE
 8
Arm
10
167.90620185151607
20
185.3787653059784
30
0.0
11
167.76267053966362
21
185.3755439301447
31
0.0
  0
LINE
 8
Arm
10
168.33045987253402
20
185.3115694367662
30
0.0
11
168.19124401389604
21
185.34664876754758
31
0.0
  0
LINE
 8
Arm
10
168.19124401389604
20
185.34664876754758
30
0.0
11
168.04944411040793
21
185.36910766589955
31
0.0
  0
LINE
 8
Arm
10
168.04944411040793
20
185.36910766589955
30
0.0
11
167.90620185151607
21
185.3787653059784
31
0.0
  0
LINE
 8
Arm
10
168.465970802086
20
185.26415211170084
30
0.0
11
168.33045987253402
21
185.3115694367662
31
0.0
  0
LINE
 8
Arm
10
168.99251985346893
20
180.91347678056977
30
0.0
11
169.1933503693032
21
180.90716542734924
31
0.0
  0
LINE
 8
Arm
10
166.55509762792616
20
184.69034331913983
30
0.0
11
166.47871513559352
21
184.56878127897335
31
0.0
  0
LINE
 8
Arm
10
168.59668574822615
20
185.20477856877176
30
0.0
11
168.465970802086
21
185.26415211170084
31
0.0
  0
LINE
 8
Arm
10
170.12374444062326
20
181.2421279041336
30
0.0
11
170.27446400467718
21
181.3750050740361
31
0.0
  0
LINE
 8
Arm
10
170.6795630518614
20
182.0599901542719
30
0.0
11
170.72339449973057
21
182.2560807798702
31
0.0
  0
LINE
 8
Arm
10
170.46642207361768
20
183.40570932849803
30
0.0
11
170.34327086618734
21
183.56447490845235
31
0.0
  0
LINE
 8
Arm
10
168.08499417026061
20
181.30619821252586
30
0.0
11
166.68931055266313
21
182.69969525657908
31
0.0
  0
LINE
 8
Arm
10
170.40734117457953
20
181.52572463808983
30
0.0
11
170.5202803979847
21
181.6919096587341
31
0.0
  0
LINE
 8
Arm
10
166.38531696701236
20
183.1834982766272
30
0.0
11
166.44469050994144
21
183.0527833304871
31
0.0
  0
LINE
 8
Arm
10
166.51554222987747
20
182.9279168076459
30
0.0
11
166.597301670432
21
182.80990405992503
31
0.0
  0
LINE
 8
Arm
10
166.44469050994144
20
183.0527833304871
30
0.0
11
166.51554222987747
21
182.9279168076459
31
0.0
  0
LINE
 8
Arm
10
166.597301670432
20
182.80990405992503
30
0.0
11
166.68931055266313
21
182.69969525657908
31
0.0
  0
LINE
 8
Arm
10
166.33789964194696
20
183.31900920617917
30
0.0
11
166.38531696701236
21
183.1834982766272
31
0.0
  0
LINE
 8
Arm
10
166.2707037727349
20
183.74326722719707
30
0.0
11
166.28036141281368
21
183.60002496830498
31
0.0
  0
LINE
 8
Arm
10
166.28036141281368
20
183.60002496830498
30
0.0
11
166.30282031116576
21
183.45822506481707
31
0.0
  0
LINE
 8
Arm
10
166.2899996036905
20
184.02946327413463
30
0.0
11
166.2739251485686
21
183.8867985390496
31
0.0
  0
LINE
 8
Arm
10
166.47871513559352
20
184.56878127897335
30
0.0
11
166.4135368739886
21
184.4408617380167
31
0.0
  0
LINE
 8
Arm
10
166.2739251485686
20
183.8867985390496
30
0.0
11
166.2707037727349
21
183.74326722719707
31
0.0
  0
LINE
 8
Arm
10
177.79728848062467
20
83.93397507590169
30
0.0
11
177.79044456967046
21
84.02686861402108
31
0.0
  0
LINE
 8
Arm
10
177.79794023816552
20
83.84083204742615
30
0.0
11
177.79728848062467
21
83.93397507590169
31
0.0
  0
LINE
 8
Arm
10
177.79239695725195
20
83.7478518313681
30
0.0
11
177.79794023816552
21
83.84083204742615
31
0.0
  0
LINE
 8
Arm
10
177.78068317552393
20
83.655446009803
30
0.0
11
177.79239695725195
21
83.7478518313681
31
0.0
  0
LINE
 8
Arm
10
177.76285074468515
20
83.56402362221732
30
0.0
11
177.78068317552393
21
83.655446009803
31
0.0
  0
LINE
 8
Arm
10
177.73897860097821
20
83.4739893548725
30
0.0
11
177.76285074468515
21
83.56402362221732
31
0.0
  0
LINE
 8
Arm
10
177.70917241576905
20
83.38574174943889
30
0.0
11
177.73897860097821
21
83.4739893548725
31
0.0
  0
LINE
 8
Arm
10
177.6735641277873
20
83.29967143882894
30
0.0
11
177.70917241576905
21
83.38574174943889
31
0.0
  0
LINE
 8
Arm
10
176.07332898035378
20
79.76899389131732
30
0.0
11
177.6735641277873
21
83.29967143882894
31
0.0
  0
LINE
 8
Arm
10
176.03302193670612
20
79.68748090567233
30
0.0
11
176.07332898035378
21
79.76899389131732
31
0.0
  0
LINE
 8
Arm
10
175.9856250729544
20
79.6059521828077
30
0.0
11
176.03302193670612
21
79.68748090567233
31
0.0
  0
LINE
 8
Arm
10
175.93284746099516
20
79.52779900615236
30
0.0
11
175.9856250729544
21
79.6059521828077
31
0.0
  0
LINE
 8
Arm
10
175.87492853759522
20
79.45337593407375
30
0.0
11
175.93284746099516
21
79.52779900615236
31
0.0
  0
LINE
 8
Arm
10
175.81213106416493
20
79.38302060253314
30
0.0
11
175.87492853759522
21
79.45337593407375
31
0.0
  0
LINE
 8
Arm
10
175.74473993468533
20
79.31705219332906
30
0.0
11
175.81213106416493
21
79.38302060253314
31
0.0
  0
LINE
 8
Arm
10
175.67306088322746
20
79.2557699860618
30
0.0
11
175.74473993468533
21
79.31705219332906
31
0.0
  0
LINE
 8
Arm
10
175.5974190969246
20
79.19945200038816
30
0.0
11
175.67306088322746
21
79.2557699860618
31
0.0
  0
LINE
 8
Arm
10
175.51815774069192
20
79.14835373472692
30
0.0
11
175.5974190969246
21
79.19945200038816
31
0.0
  0
LINE
 8
Arm
10
175.43563640038718
20
79.1027070071362
30
0.0
11
175.51815774069192
21
79.14835373472692
31
0.0
  0
LINE
 8
Arm
10
175.3502294514732
20
79.06271890362196
30
0.0
11
175.43563640038718
21
79.1027070071362
31
0.0
  0
LINE
 8
Arm
10
175.26232436058535
20
79.02857083864879
30
0.0
11
175.3502294514732
21
79.06271890362196
31
0.0
  0
LINE
 8
Arm
10
175.1723199277061
20
79.00041773211484
30
0.0
11
175.26232436058535
21
79.02857083864879
31
0.0
  0
LINE
 8
Arm
10
175.08062447692598
20
78.97838730652495
30
0.0
11
175.1723199277061
21
79.00041773211484
31
0.0
  0
LINE
 8
Arm
10
174.98765400399486
20
78.96257950755081
30
0.0
11
175.08062447692598
21
78.97838730652495
31
0.0
  0
LINE
 8
Arm
10
174.89383028906954
20
78.95306605060607
30
0.0
11
174.98765400399486
21
78.96257950755081
31
0.0
  0
LINE
 8
Arm
10
174.79957898321882
20
78.94989009549444
30
0.0
11
174.89383028906954
21
78.95306605060607
31
0.0
  0
LINE
 8
Arm
10
174.7053276773681
20
78.95306605060604
30
0.0
11
174.79957898321882
21
78.94989009549444
31
0.0
  0
LINE
 8
Arm
10
174.6115039624428
20
78.96257950755077
30
0.0
11
174.7053276773681
21
78.95306605060604
31
0.0
  0
LINE
 8
Arm
10
174.51853348951167
20
78.97838730652491
30
0.0
11
174.6115039624428
21
78.96257950755077
31
0.0
  0
LINE
 8
Arm
10
174.42683803873155
20
79.00041773211474
30
0.0
11
174.51853348951167
21
78.97838730652491
31
0.0
  0
LINE
 8
Arm
10
174.3368336058523
20
79.0285708386487
30
0.0
11
174.42683803873155
21
79.00041773211474
31
0.0
  0
LINE
 8
Arm
10
174.24892851496426
20
79.06271890362184
30
0.0
11
174.3368336058523
21
79.0285708386487
31
0.0
 0
ENDSEC
 0
EOF
