 0
SECTION
 2
ENTITIES
  0
LINE
 8
Arm#2
10
38.76388899049055
20
177.69145950145148
30
0.0
11
37.837906628855784
21
176.34402120523555
31
0.0
  0
LINE
 8
Arm#2
10
36.16253591427038
20
173.53681669151237
30
0.0
11
35.41619927500182
21
172.0821638404674
31
0.0
  0
LINE
 8
Arm#2
10
34.732611673419456
20
170.59699001658993
30
0.0
11
34.11301827491791
21
169.0840004869827
31
0.0
  0
LINE
 8
Arm#2
10
35.41619927500182
20
172.0821638404674
30
0.0
11
34.732611673419456
21
170.59699001658993
31
0.0
  0
LINE
 8
Arm#2
10
40.78401733877308
20
180.26174074474437
30
0.0
11
39.74652252119041
21
178.9981594059867
31
0.0
  0
LINE
 8
Arm#2
10
37.837906628855784
20
176.34402120523555
30
0.0
11
36.9702621274872
21
174.95829889704655
31
0.0
  0
LINE
 8
Arm#2
10
36.9702621274872
20
174.95829889704655
30
0.0
11
36.16253591427038
21
173.53681669151237
31
0.0
  0
LINE
 8
Arm#2
10
41.87448363037401
20
181.47990188476254
30
0.0
11
40.78401733877308
21
180.26174074474437
31
0.0
  0
LINE
 8
Arm#2
10
43.01593509476799
20
182.650423926674
30
0.0
11
41.87448363037401
21
181.47990188476254
31
0.0
  0
LINE
 8
Arm#2
10
39.74652252119041
20
178.9981594059867
30
0.0
11
38.76388899049055
21
177.69145950145148
31
0.0
  0
LINE
 8
Arm#2
10
44.20629256044932
20
183.77117474646607
30
0.0
11
43.01593509476799
21
182.650423926674
31
0.0
  0
LINE
 8
Arm#2
10
45.44338777287387
20
184.84011287917727
30
0.0
11
44.20629256044932
21
183.77117474646607
31
0.0
  0
LINE
 8
Arm#2
10
16.462807434865844
20
267.8685615951835
30
0.0
11
15.684244739584782
21
266.0307943149824
31
0.0
  0
LINE
 8
Arm#2
10
26.527553374865487
20
281.87908462133316
30
0.0
11
26.144295740469577
21
281.8772152540588
31
0.0
  0
LINE
 8
Arm#2
10
26.144295740469577
20
281.8772152540588
30
0.0
11
25.764250558538443
21
281.84513462606367
31
0.0
  0
LINE
 8
Arm#2
10
25.764250558538443
20
281.84513462606367
30
0.0
11
25.387941756497952
21
281.78304442950633
31
0.0
  0
LINE
 8
Arm#2
10
25.387941756497952
20
281.78304442950633
30
0.0
11
25.017735202458354
21
281.69133502787406
31
0.0
  0
LINE
 8
Arm#2
10
25.017735202458354
20
281.69133502787406
30
0.0
11
24.655958399458907
21
281.5705830017499
31
0.0
  0
LINE
 8
Arm#2
10
24.655958399458907
20
281.5705830017499
30
0.0
11
24.304885852365118
21
281.4215475238303
31
0.0
  0
LINE
 8
Arm#2
10
24.304885852365118
20
281.4215475238303
30
0.0
11
23.966724767968486
21
281.24516558597577
31
0.0
  0
LINE
 8
Arm#2
10
23.966724767968486
20
281.24516558597577
30
0.0
11
23.643601178190988
21
281.04254610830645
31
0.0
  0
LINE
 8
Arm#2
10
23.643601178190988
20
281.04254610830645
30
0.0
11
23.337546573639937
21
280.8149629673783
31
0.0
  0
LINE
 8
Arm#2
10
23.337546573639937
20
280.8149629673783
30
0.0
11
23.05048513154682
21
280.5638469872714
31
0.0
  0
LINE
 8
Arm#2
10
23.05048513154682
20
280.5638469872714
30
0.0
11
22.784221618390294
21
280.2907769439435
31
0.0
  0
LINE
 8
Arm#2
10
22.784221618390294
20
280.2907769439435
30
0.0
11
22.54043004325849
21
279.99746963940356
31
0.0
  0
LINE
 8
Arm#2
10
15.130422746133776
20
247.35685792400395
30
0.0
11
15.478547898756366
21
246.3264588971037
31
0.0
  0
LINE
 8
Arm#2
10
18.39408922982723
20
271.3592596114215
30
0.0
11
17.36755551147097
21
269.64760048304953
31
0.0
  0
LINE
 8
Arm#2
10
15.035653532710832
20
264.143235602511
30
0.0
11
14.520187877207219
21
262.2150645507999
31
0.0
  0
LINE
 8
Arm#2
10
15.684244739584782
20
266.0307943149824
30
0.0
11
15.035653532710832
21
264.143235602511
31
0.0
  0
LINE
 8
Arm#2
10
13.898000371557492
20
258.274543681685
30
0.0
11
13.794304184644451
21
256.2813563980911
31
0.0
  0
LINE
 8
Arm#2
10
13.794304184644451
20
256.2813563980911
30
0.0
11
13.829770161936253
21
254.28578865654094
31
0.0
  0
LINE
 8
Arm#2
10
13.829770161936253
20
254.28578865654094
30
0.0
11
14.004225834357726
21
252.29754479196575
31
0.0
  0
LINE
 8
Arm#2
10
14.004225834357726
20
252.29754479196575
30
0.0
11
14.316822833677463
21
250.3262935236904
31
0.0
  0
LINE
 8
Arm#2
10
14.316822833677463
20
250.3262935236904
30
0.0
11
14.766041018074587
21
248.38162093698907
31
0.0
  0
LINE
 8
Arm#2
10
14.520187877207219
20
262.2150645507999
30
0.0
11
14.140354453885756
21
260.25565774842613
31
0.0
  0
LINE
 8
Arm#2
10
14.140354453885756
20
260.25565774842613
30
0.0
11
13.898000371557492
21
258.274543681685
31
0.0
  0
LINE
 8
Arm#2
10
17.36755551147097
20
269.64760048304953
30
0.0
11
16.462807434865844
21
267.8685615951835
31
0.0
  0
LINE
 8
Arm#2
10
22.54043004325849
20
279.99746963940356
30
0.0
11
18.39408922982723
21
271.3592596114215
31
0.0
  0
LINE
 8
Arm#2
10
15.478547898756366
20
246.3264588971037
30
0.0
11
15.810329352664219
21
245.29068172832254
31
0.0
  0
LINE
 8
Arm#2
10
14.766041018074587
20
248.38162093698907
30
0.0
11
15.130422746133776
21
247.35685792400395
31
0.0
  0
LINE
 8
Arm#2
10
17.04847364446471
20
241.1040810814489
30
0.0
11
16.649293518010726
21
242.5035935926495
31
0.0
  0
LINE
 8
Arm#2
10
17.434068695458034
20
239.70076483091495
30
0.0
11
17.04847364446471
21
241.1040810814489
31
0.0
  0
LINE
 8
Arm#2
10
17.80604243732962
20
238.29377670810752
30
0.0
11
17.434068695458034
21
239.70076483091495
31
0.0
  0
LINE
 8
Arm#2
10
18.50898746219465
20
235.4693140266826
30
0.0
11
18.164359916387724
21
236.88324892512543
31
0.0
  0
LINE
 8
Arm#2
10
16.649293518010726
20
242.5035935926495
30
0.0
11
16.236565826321787
21
243.8991708548878
31
0.0
  0
LINE
 8
Arm#2
10
18.164359916387724
20
236.88324892512543
30
0.0
11
17.80604243732962
21
238.29377670810752
31
0.0
  0
LINE
 8
Arm#2
10
16.236565826321787
20
243.8991708548878
30
0.0
11
15.810329352664219
21
245.29068172832254
31
0.0
  0
LINE
 8
Arm#2
10
18.839892690730505
20
234.05210487765393
30
0.0
11
18.50898746219465
21
235.4693140266826
31
0.0
  0
LINE
 8
Arm#2
10
30.269019699890272
20
280.2907769439434
30
0.0
11
30.512811275022077
21
279.9974696394037
31
0.0
  0
LINE
 8
Arm#2
10
30.002756186733745
20
280.5638469872714
30
0.0
11
30.269019699890272
21
280.2907769439434
31
0.0
  0
LINE
 8
Arm#2
10
29.715694744640448
20
280.8149629673783
30
0.0
11
30.002756186733745
21
280.5638469872714
31
0.0
  0
LINE
 8
Arm#2
10
29.40964014008958
20
281.04254610830645
30
0.0
11
29.715694744640448
21
280.8149629673783
31
0.0
  0
LINE
 8
Arm#2
10
29.08651655031208
20
281.2451655859759
30
0.0
11
29.40964014008958
21
281.04254610830645
31
0.0
  0
LINE
 8
Arm#2
10
28.74835546591545
20
281.4215475238303
30
0.0
11
29.08651655031208
21
281.2451655859759
31
0.0
  0
LINE
 8
Arm#2
10
28.39728291882166
20
281.5705830017499
30
0.0
11
28.74835546591545
21
281.4215475238303
31
0.0
  0
LINE
 8
Arm#2
10
28.035506115822212
20
281.69133502787395
30
0.0
11
28.39728291882166
21
281.5705830017499
31
0.0
  0
LINE
 8
Arm#2
10
27.66529956178261
20
281.78304442950645
30
0.0
11
28.035506115822212
21
281.69133502787395
31
0.0
  0
LINE
 8
Arm#2
10
27.288990759742124
20
281.84513462606355
30
0.0
11
27.66529956178261
21
281.78304442950645
31
0.0
  0
LINE
 8
Arm#2
10
26.90894557781099
20
281.8772152540588
30
0.0
11
27.288990759742124
21
281.84513462606355
31
0.0
  0
LINE
 8
Arm#2
10
26.527553374865487
20
281.87908462133316
30
0.0
11
26.90894557781099
21
281.8772152540588
31
0.0
  0
LINE
 8
Arm#2
10
36.590433883414725
20
267.8685615951835
30
0.0
11
37.3689965786956
21
266.0307943149824
31
0.0
  0
LINE
 8
Arm#2
10
33.808192906520716
20
159.65972415298876
30
0.0
11
26.527553374865487
21
152.3790846213331
31
0.0
  0
LINE
 8
Arm#2
10
37.922818572146994
20
247.356857924004
30
0.0
11
37.5746934195242
21
246.3264588971037
31
0.0
  0
LINE
 8
Arm#2
10
17.6892490305931
20
161.21738896560475
30
0.0
11
18.30319198528608
21
161.96473867456024
31
0.0
  0
LINE
 8
Arm#2
10
18.84767147471993
20
162.76411319546958
30
0.0
11
19.025687943415655
21
163.08372025481364
31
0.0
  0
LINE
 8
Arm#2
10
18.30319198528608
20
161.96473867456024
30
0.0
11
18.84767147471993
21
162.76411319546958
31
0.0
  0
LINE
 8
Arm#2
10
34.65915208845333
20
271.3592596114215
30
0.0
11
35.685685806809595
21
269.6476004830496
31
0.0
  0
LINE
 8
Arm#2
10
38.01758778556976
20
264.143235602511
30
0.0
11
38.53305344107337
21
262.21506455080004
31
0.0
  0
LINE
 8
Arm#2
10
37.3689965786956
20
266.0307943149824
30
0.0
11
38.01758778556976
21
264.143235602511
31
0.0
  0
LINE
 8
Arm#2
10
39.1552409467231
20
258.274543681685
30
0.0
11
39.25893713363614
21
256.2813563980911
31
0.0
  0
LINE
 8
Arm#2
10
39.25893713363614
20
256.2813563980911
30
0.0
11
39.22347115634433
21
254.28578865654094
31
0.0
  0
LINE
 8
Arm#2
10
39.22347115634433
20
254.28578865654094
30
0.0
11
39.049015483922865
21
252.29754479196575
31
0.0
  0
LINE
 8
Arm#2
10
39.049015483922865
20
252.29754479196575
30
0.0
11
38.73641848460312
21
250.3262935236904
31
0.0
  0
LINE
 8
Arm#2
10
38.73641848460312
20
250.3262935236904
30
0.0
11
38.28720030020582
21
248.38162093698912
31
0.0
  0
LINE
 8
Arm#2
10
38.53305344107337
20
262.21506455080004
30
0.0
11
38.91288686439483
21
260.25565774842613
31
0.0
  0
LINE
 8
Arm#2
10
38.91288686439483
20
260.25565774842613
30
0.0
11
39.1552409467231
21
258.274543681685
31
0.0
  0
LINE
 8
Arm#2
10
35.685685806809595
20
269.6476004830496
30
0.0
11
36.590433883414725
21
267.8685615951835
31
0.0
  0
LINE
 8
Arm#2
10
17.6892490305931
20
161.21738896560475
30
0.0
11
26.527553374865487
21
152.3790846213331
31
0.0
  0
LINE
 8
Arm#2
10
33.22893203175633
20
162.44041858381402
30
0.0
11
33.3001561090397
21
160.76126703010343
31
0.0
  0
LINE
 8
Arm#2
10
33.27511718961205
20
164.1204452921455
30
0.0
11
33.22893203175633
21
162.44041858381402
31
0.0
  0
LINE
 8
Arm#2
10
33.43848617393616
20
165.79314771172713
30
0.0
11
33.27511718961205
21
164.1204452921455
31
0.0
  0
LINE
 8
Arm#2
10
33.7182416553002
20
167.45036214569765
30
0.0
11
33.43848617393616
21
165.79314771172713
31
0.0
  0
LINE
 8
Arm#2
10
34.11301827491791
20
169.0840004869827
30
0.0
11
33.7182416553002
21
167.45036214569765
31
0.0
  0
LINE
 8
Arm#2
10
33.76647742708484
20
159.70143963242455
30
0.0
11
33.808192906520716
21
159.65972415298876
31
0.0
  0
LINE
 8
Arm#2
10
33.688858015534414
20
159.79030287987294
30
0.0
11
33.76647742708484
21
159.70143963242455
31
0.0
  0
LINE
 8
Arm#2
10
33.61740299203698
20
159.88419446316712
30
0.0
11
33.688858015534414
21
159.79030287987294
31
0.0
  0
LINE
 8
Arm#2
10
33.55243717537591
20
159.98268757187043
30
0.0
11
33.61740299203698
21
159.88419446316712
31
0.0
  0
LINE
 8
Arm#2
10
33.49425588582981
20
160.0853344780256
30
0.0
11
33.55243717537591
21
159.98268757187043
31
0.0
  0
LINE
 8
Arm#2
10
33.44312360271349
20
160.1916685714284
30
0.0
11
33.49425588582981
21
160.0853344780256
31
0.0
  0
LINE
 8
Arm#2
10
33.39927276211295
20
160.3012064807343
30
0.0
11
33.44312360271349
21
160.1916685714284
31
0.0
  0
LINE
 8
Arm#2
10
33.362902700281424
20
160.4134502707579
30
0.0
11
33.39927276211295
21
160.3012064807343
31
0.0
  0
LINE
 8
Arm#2
10
33.33417874750102
20
160.52788970597655
30
0.0
11
33.362902700281424
21
160.4134502707579
31
0.0
  0
LINE
 8
Arm#2
10
33.313231476528706
20
160.64400456994883
30
0.0
11
33.33417874750102
21
160.52788970597655
31
0.0
  0
LINE
 8
Arm#2
10
33.3001561090397
20
160.76126703010343
30
0.0
11
33.313231476528706
21
160.64400456994883
31
0.0
  0
LINE
 8
Arm#2
10
45.44338777287387
20
184.84011287917727
30
0.0
11
34.02755337486491
21
196.7316070437698
31
0.0
  0
LINE
 8
Arm#2
10
30.512811275022077
20
279.9974696394037
30
0.0
11
34.65915208845333
21
271.3592596114215
31
0.0
  0
LINE
 8
Arm#2
10
37.5746934195242
20
246.3264588971037
30
0.0
11
37.242911965616344
21
245.29068172832254
31
0.0
  0
LINE
 8
Arm#2
10
38.28720030020582
20
248.38162093698912
30
0.0
11
37.922818572146994
21
247.356857924004
31
0.0
  0
LINE
 8
Arm#2
10
36.004767673815856
20
241.1040810814489
30
0.0
11
36.403947800270025
21
242.50359359264962
31
0.0
  0
LINE
 8
Arm#2
10
35.61917262282253
20
239.70076483091495
30
0.0
11
36.004767673815856
21
241.1040810814489
31
0.0
  0
LINE
 8
Arm#2
10
35.24719888095095
20
238.29377670810752
30
0.0
11
35.61917262282253
21
239.70076483091495
31
0.0
  0
LINE
 8
Arm#2
10
34.544253856085916
20
235.4693140266827
30
0.0
11
34.88888140189284
21
236.88324892512543
31
0.0
  0
LINE
 8
Arm#2
10
34.21334862755006
20
234.05210487765393
30
0.0
11
34.544253856085916
21
235.4693140266827
31
0.0
  0
LINE
 8
Arm#2
10
36.403947800270025
20
242.50359359264962
30
0.0
11
36.8166754919586
21
243.8991708548878
31
0.0
  0
LINE
 8
Arm#2
10
34.88888140189284
20
236.88324892512543
30
0.0
11
35.24719888095095
21
238.29377670810752
31
0.0
  0
LINE
 8
Arm#2
10
36.8166754919586
20
243.8991708548878
30
0.0
11
37.242911965616344
21
245.29068172832254
31
0.0
  0
LINE
 8
Arm#2
10
19.025687943415655
20
210.1688130025644
30
0.0
11
19.025687943415655
21
163.08372025481364
31
0.0
  0
LINE
 8
Arm#2
10
19.025687943415655
20
210.1688130025644
30
0.0
11
19.025687943415655
21
233.2200291478672
31
0.0
  0
LINE
 8
Arm#2
10
19.025687943415655
20
233.2200291478672
30
0.0
11
18.839892690730505
21
234.05210487765393
31
0.0
  0
LINE
 8
Arm#2
10
34.02755337486491
20
210.1688130025644
30
0.0
11
34.02755337486491
21
233.2200291478672
31
0.0
  0
LINE
 8
Arm#2
10
34.02755337486491
20
233.2200291478672
30
0.0
11
34.21334862755006
21
234.05210487765393
31
0.0
  0
LINE
 8
Arm#2
10
34.02755337486491
20
210.1688130025644
30
0.0
11
34.02755337486491
21
196.7316070437698
31
0.0
  0
LINE
 8
Arm#2
10
33.277688247676195
20
248.75986705092794
30
0.0
11
33.420930506568055
21
248.75020941084912
31
0.0
  0
LINE
 8
Arm#2
10
28.08911070911307
20
261.28552177819176
30
0.0
11
27.877289929326274
21
261.3617566916263
31
0.0
  0
LINE
 8
Arm#2
10
29.35090849135538
20
164.98546323769057
30
0.0
11
29.30307072398066
21
165.0653856785573
31
0.0
  0
LINE
 8
Arm#2
10
33.564461818420696
20
248.75343078668283
30
0.0
11
33.7071265535059
21
248.76950524180484
31
0.0
  0
LINE
 8
Arm#2
10
34.588202259339916
20
249.21843573685848
30
0.0
11
34.68506299401443
21
249.32440560438098
31
0.0
  0
LINE
 8
Arm#2
10
29.461173381680418
20
164.72915125829653
30
0.0
11
29.430135170847343
21
164.8169731121244
31
0.0
  0
LINE
 8
Arm#2
10
30.806851960099614
20
252.4370650580934
30
0.0
11
30.715631802211554
21
252.25803541790847
31
0.0
  0
LINE
 8
Arm#2
10
23.704198258375236
20
164.98546323769048
30
0.0
11
23.661780855091404
21
164.90253668922645
31
0.0
  0
LINE
 8
Arm#2
10
34.94181539107195
20
250.94547644020025
30
0.0
11
34.88244184814287
21
251.07619138634033
31
0.0
  0
LINE
 8
Arm#2
10
29.486303134779348
20
164.63945987604228
30
0.0
11
29.461173381680418
21
164.72915125829653
31
0.0
  0
LINE
 8
Arm#2
10
34.11852501738787
20
248.8930425121029
30
0.0
11
34.24644455834442
21
248.958220773708
31
0.0
  0
LINE
 8
Arm#2
10
27.583444572520328
20
165.65442475916487
30
0.0
11
27.491762351447186
21
165.62511794215087
31
0.0
  0
LINE
 8
Arm#2
10
32.99667248555012
20
248.81740528006117
30
0.0
11
33.13588834418829
21
248.78232594927988
31
0.0
  0
LINE
 8
Arm#2
10
23.52984387745928
20
164.36316960174014
30
0.0
11
23.529192119918438
21
164.27002657326457
31
0.0
  0
LINE
 8
Arm#2
10
33.13588834418829
20
248.78232594927988
30
0.0
11
33.277688247676195
21
248.75986705092794
31
0.0
  0
LINE
 8
Arm#2
10
27.31551050255877
20
165.547984383935
30
0.0
11
27.23177369982661
21
165.5005221141553
31
0.0
  0
LINE
 8
Arm#2
10
24.65107413134902
20
165.67900234839237
30
0.0
11
24.560443771455354
21
165.65750382734933
31
0.0
  0
LINE
 8
Arm#2
10
27.075054833490924
20
165.38892687691848
30
0.0
11
27.00281329773753
21
165.3253212191788
31
0.0
  0
LINE
 8
Arm#2
10
29.25073982153471
20
260.60688503251725
30
0.0
11
29.072844172447752
21
260.7448449644242
31
0.0
  0
LINE
 8
Arm#2
10
27.23177369982661
20
165.5005221141553
30
0.0
11
27.151495366433807
21
165.44741930470013
31
0.0
  0
LINE
 8
Arm#2
10
23.593933368050198
20
164.72915125829638
30
0.0
11
23.568803614951268
21
164.6394598760421
31
0.0
  0
LINE
 8
Arm#2
10
27.402310101562183
20
165.58958184536306
30
0.0
11
27.31551050255877
21
165.547984383935
31
0.0
  0
LINE
 8
Arm#2
10
25.515001293919397
20
159.81221512837158
30
0.0
11
25.58239242339882
21
159.74624671916754
31
0.0
  0
LINE
 8
Arm#2
10
29.39332589463903
20
164.90253668922657
30
0.0
11
29.35090849135538
21
164.98546323769057
31
0.0
  0
LINE
 8
Arm#2
10
25.654071474856675
20
159.68496451190026
30
0.0
11
25.729713261159713
21
159.62864652622667
31
0.0
  0
LINE
 8
Arm#2
10
26.673931468036177
20
164.98888689657068
30
0.0
11
26.608142665736366
21
164.9662118064663
31
0.0
  0
LINE
 8
Arm#2
10
28.755206284829935
20
165.55764711886746
30
0.0
11
28.670639295957166
21
165.59669161828128
31
0.0
  0
LINE
 8
Arm#2
10
31.203387917460894
20
252.88684681269385
30
0.0
11
31.05266835340712
21
252.75396964279136
31
0.0
  0
LINE
 8
Arm#2
10
23.549693557830278
20
164.54829598923203
30
0.0
11
23.5366877884135
21
164.45606313985954
31
0.0
  0
LINE
 8
Arm#2
10
26.752230702738732
20
165.03844180581055
30
0.0
11
26.714728302751084
21
165.01106166538338
31
0.0
  0
LINE
 8
Arm#2
10
26.11999463491372
20
165.2569028808807
30
0.0
11
26.052293451992725
21
165.3253212191789
31
0.0
  0
LINE
 8
Arm#2
10
35.05320720951572
20
250.2421761777778
30
0.0
11
35.05642858534961
21
250.38570748963033
31
0.0
  0
LINE
 8
Arm#2
10
23.80508240068896
20
165.14195023071628
30
0.0
11
23.752036025749774
21
165.06538567855725
31
0.0
  0
LINE
 8
Arm#2
10
26.100026740556952
20
261.55777846139193
30
0.0
11
25.876683117360457
21
261.5295396449623
31
0.0
  0
LINE
 8
Arm#2
10
25.652796648168433
20
165.5895818453631
30
0.0
11
25.56334439828361
21
165.62511794215092
31
0.0
  0
LINE
 8
Arm#2
10
32.33461250461537
20
253.21549793625783
30
0.0
11
32.133781988780925
21
253.22180928947813
31
0.0
  0
LINE
 8
Arm#2
10
31.369572938105264
20
252.99978603609915
30
0.0
11
31.203387917460894
21
252.88684681269385
31
0.0
  0
LINE
 8
Arm#2
10
23.863102570476038
20
165.2148179769374
30
0.0
11
23.80508240068896
21
165.14195023071628
31
0.0
  0
LINE
 8
Arm#2
10
26.872177552918462
20
165.1838865193205
30
0.0
11
26.81478150719224
21
165.10680741154198
31
0.0
  0
LINE
 8
Arm#2
10
19.886910487912818
20
241.68724401875534
30
0.0
11
20.03033338215825
21
241.68080288914783
31
0.0
  0
LINE
 8
Arm#2
10
33.7071265535059
20
248.76950524180484
30
0.0
11
33.847776059262124
21
248.79830335415434
31
0.0
  0
LINE
 8
Arm#2
10
28.583663192259106
20
165.63002637382235
30
0.0
11
28.49466297827526
21
165.65750382734925
31
0.0
  0
LINE
 8
Arm#2
10
27.151495366433807
20
165.44741930470013
30
0.0
11
27.075054833490924
21
165.38892687691848
31
0.0
  0
LINE
 8
Arm#2
10
25.18760821733528
20
165.70373568295082
30
0.0
11
25.09828875288435
21
165.70680741154212
31
0.0
  0
LINE
 8
Arm#2
10
23.534735400831995
20
164.17704635720654
30
0.0
11
23.546449182560018
21
164.08464053564143
31
0.0
  0
LINE
 8
Arm#2
10
26.608142665736366
20
164.9662118064663
30
0.0
11
26.53916823375354
21
164.95700018598342
31
0.0
  0
LINE
 8
Arm#2
10
28.887972058205605
20
260.8733054881329
30
0.0
11
28.696630200423144
21
260.99191450227687
31
0.0
  0
LINE
 8
Arm#2
10
32.73044660985817
20
248.92419614805561
30
0.0
11
32.86116155599833
21
248.8648226051266
31
0.0
  0
LINE
 8
Arm#2
10
32.91042400288922
20
253.04820923159429
30
0.0
11
32.7260198756983
21
253.12800802321962
31
0.0
  0
LINE
 8
Arm#2
10
27.00281329773753
20
165.3253212191788
30
0.0
11
26.935112114816896
21
165.2569028808806
31
0.0
  0
LINE
 8
Arm#2
10
30.75842876460435
20
250.89621399330963
30
0.0
11
30.860710284466638
21
250.72326538832942
31
0.0
  0
LINE
 8
Arm#2
10
30.919791183504604
20
252.6032500787376
30
0.0
11
30.806851960099614
21
252.4370650580934
31
0.0
  0
LINE
 8
Arm#2
10
28.915627877380988
20
165.46314472842136
30
0.0
11
28.836989818418097
21
165.5130657082198
31
0.0
  0
LINE
 8
Arm#2
10
23.5366877884135
20
164.45606313985954
30
0.0
11
23.52984387745928
21
164.36316960174014
31
0.0
  0
LINE
 8
Arm#2
10
27.22200181133031
20
261.52263753947744
30
0.0
11
26.99895969404492
21
261.55316652066983
31
0.0
  0
LINE
 8
Arm#2
10
26.254224684310884
20
165.08819490750858
30
0.0
11
26.182929196812154
21
165.18388651932045
31
0.0
  0
LINE
 8
Arm#2
10
34.68506299401443
20
249.32440560438098
30
0.0
11
34.77203473015815
21
249.43863139768754
31
0.0
  0
LINE
 8
Arm#2
10
34.48223239181763
20
249.1215750021842
30
0.0
11
34.588202259339916
21
249.21843573685848
31
0.0
  0
LINE
 8
Arm#2
10
34.24644455834442
20
248.958220773708
30
0.0
11
34.368006598510995
21
249.03460326604045
31
0.0
  0
LINE
 8
Arm#2
10
28.49466297827526
20
165.65750382734925
30
0.0
11
28.404032618381592
21
165.6790023483923
31
0.0
  0
LINE
 8
Arm#2
10
25.452203820488908
20
159.88257045991216
30
0.0
11
25.515001293919397
21
159.81221512837158
31
0.0
  0
LINE
 8
Arm#2
10
35.02431204691856
20
250.6707496520103
30
0.0
11
34.98923271613736
21
250.80996551064837
31
0.0
  0
LINE
 8
Arm#2
10
29.42117140585771
20
260.45980383099567
30
0.0
11
29.25073982153471
21
260.60688503251725
31
0.0
  0
LINE
 8
Arm#2
10
30.019247618218035
20
259.78868046746817
30
0.0
11
29.883120274219227
21
259.96798231071483
31
0.0
  0
LINE
 8
Arm#2
10
25.283349178527377
20
165.69382672062187
30
0.0
11
25.18760821733528
21
165.70373568295082
31
0.0
  0
LINE
 8
Arm#2
10
23.588153757105918
20
163.9031838807109
30
0.0
11
23.617959942315075
21
163.8149362752773
31
0.0
  0
LINE
 8
Arm#2
10
30.584828706720714
20
251.67285600741783
30
0.0
11
30.5911400599408
21
251.4720254915833
31
0.0
  0
LINE
 8
Arm#2
10
33.08337260786925
20
252.94592771173222
30
0.0
11
32.91042400288922
21
253.04820923159429
31
0.0
  0
LINE
 8
Arm#2
10
29.129267044113604
20
165.2836663641068
30
0.0
11
29.062090653022395
21
165.3481906310258
31
0.0
  0
LINE
 8
Arm#2
10
25.56334439828361
20
165.62511794215092
30
0.0
11
25.471662177210106
21
165.65442475916512
31
0.0
  0
LINE
 8
Arm#2
10
32.377358535950144
20
249.1688161907773
30
0.0
11
32.48756733929621
21
249.07680730854625
31
0.0
  0
LINE
 8
Arm#2
10
27.67692354803046
20
165.67736381585888
30
0.0
11
27.583444572520328
21
165.65442475916487
31
0.0
  0
LINE
 8
Arm#2
10
24.560443771455354
20
165.65750382734933
30
0.0
11
24.47144355747151
21
165.6300263738224
31
0.0
  0
LINE
 8
Arm#2
10
25.294110421378004
20
160.1166754315107
30
0.0
11
25.341507285129744
21
160.0351467086461
31
0.0
  0
LINE
 8
Arm#2
10
28.990772365995753
20
165.40810515745372
30
0.0
11
28.915627877380988
21
165.46314472842136
31
0.0
  0
LINE
 8
Arm#2
10
31.05266835340712
20
252.75396964279136
30
0.0
11
30.919791183504604
21
252.6032500787376
31
0.0
  0
LINE
 8
Arm#2
10
25.58239242339882
20
159.74624671916754
30
0.0
11
25.654071474856675
21
159.68496451190026
31
0.0
  0
LINE
 8
Arm#2
10
34.967044737934934
20
249.82136008762876
30
0.0
11
35.00833464204409
21
249.95886193693644
31
0.0
  0
LINE
 8
Arm#2
10
29.30307072398066
20
165.0653856785573
30
0.0
11
29.250024349041656
21
165.14195023071633
31
0.0
  0
LINE
 8
Arm#2
10
29.505413191900157
20
164.5482959892322
30
0.0
11
29.486303134779348
21
164.63945987604228
31
0.0
  0
LINE
 8
Arm#2
10
25.471662177210106
20
165.65442475916512
30
0.0
11
25.378183201699795
21
165.6773638158589
31
0.0
  0
LINE
 8
Arm#2
10
30.678629972979145
20
251.08061812050036
30
0.0
11
30.75842876460435
21
250.89621399330963
31
0.0
  0
LINE
 8
Arm#2
10
23.529192119918438
20
164.27002657326457
30
0.0
11
23.534735400831995
21
164.17704635720654
31
0.0
  0
LINE
 8
Arm#2
10
26.935112114816896
20
165.2569028808806
30
0.0
11
26.872177552918462
21
165.1838865193205
31
0.0
  0
LINE
 8
Arm#2
10
29.072844172447752
20
260.7448449644242
30
0.0
11
28.887972058205605
21
260.8733054881329
31
0.0
  0
LINE
 8
Arm#2
10
25.823333049904004
20
165.50052211415536
30
0.0
11
25.739596247172024
21
165.54798438393502
31
0.0
  0
LINE
 8
Arm#2
10
28.12639786680588
20
165.70680741154203
30
0.0
11
27.956817996846446
21
165.70680741154206
31
0.0
  0
LINE
 8
Arm#2
10
28.31217329288517
20
165.69442677255753
30
0.0
11
28.2194916221773
21
165.7037088227772
31
0.0
  0
LINE
 8
Arm#2
10
31.54860257829015
20
253.0910061939874
30
0.0
11
31.369572938105264
21
252.99978603609915
31
0.0
  0
LINE
 8
Arm#2
10
26.714728302751084
20
165.01106166538338
30
0.0
11
26.673931468036177
21
164.98888689657068
31
0.0
  0
LINE
 8
Arm#2
10
35.00833464204409
20
249.95886193693644
30
0.0
11
35.03713275439366
21
250.0995114426927
31
0.0
  0
LINE
 8
Arm#2
10
30.5911400599408
20
251.4720254915833
30
0.0
11
30.622572384203785
21
251.27356960665836
31
0.0
  0
LINE
 8
Arm#2
10
34.88244184814287
20
251.07619138634033
30
0.0
11
34.81159012820685
21
251.20105790918163
31
0.0
  0
LINE
 8
Arm#2
10
30.98386149189698
20
250.56449980837507
30
0.0
11
32.377358535950144
21
249.1688161907773
31
0.0
  0
LINE
 8
Arm#2
10
23.993016096708217
20
165.3481906310258
30
0.0
11
23.92583970561683
21
165.28366636410678
31
0.0
  0
LINE
 8
Arm#2
10
26.324542184540935
20
261.5742896754141
30
0.0
11
26.100026740556952
21
261.55777846139193
31
0.0
  0
LINE
 8
Arm#2
10
27.867498532395334
20
165.7037356829508
30
0.0
11
27.77175757120324
21
165.69382672062184
31
0.0
  0
LINE
 8
Arm#2
10
23.752036025749774
20
165.06538567855725
30
0.0
11
23.704198258375236
21
164.98546323769048
31
0.0
  0
LINE
 8
Arm#2
10
23.546449182560018
20
164.08464053564143
30
0.0
11
23.564281613398805
21
163.99321814805575
31
0.0
  0
LINE
 8
Arm#2
10
23.564281613398805
20
163.99321814805575
30
0.0
11
23.588153757105918
21
163.9031838807109
31
0.0
  0
LINE
 8
Arm#2
10
33.24213818782369
20
252.8227765043016
30
0.0
11
33.08337260786925
21
252.94592771173222
31
0.0
  0
LINE
 8
Arm#2
10
30.623859703384877
20
258.58685924370997
30
0.0
11
30.549802222514582
21
258.7994510928083
31
0.0
  0
LINE
 8
Arm#2
10
33.98527790856976
20
248.8395932582637
30
0.0
11
34.11852501738787
21
248.8930425121029
31
0.0
  0
LINE
 8
Arm#2
10
33.420930506568055
20
248.75020941084912
30
0.0
11
33.564461818420696
21
248.75343078668283
31
0.0
  0
LINE
 8
Arm#2
10
34.729830687652324
20
251.31907065690243
30
0.0
11
34.63782180542119
21
251.42927946024838
31
0.0
  0
LINE
 8
Arm#2
10
23.62497157888327
20
164.8169731121243
30
0.0
11
23.593933368050198
21
164.72915125829638
31
0.0
  0
LINE
 8
Arm#2
10
33.847776059262124
20
248.79830335415434
30
0.0
11
33.98527790856976
21
248.8395932582637
31
0.0
  0
LINE
 8
Arm#2
10
25.729713261159713
20
159.62864652622667
30
0.0
11
25.808974617392387
21
159.57754826056544
31
0.0
  0
LINE
 8
Arm#2
10
32.60558008701697
20
248.9950478679918
30
0.0
11
32.73044660985817
21
248.92419614805561
31
0.0
  0
LINE
 8
Arm#2
10
24.928708882924735
20
165.70680741154214
30
0.0
11
24.83561512755331
21
165.70370882277732
31
0.0
  0
LINE
 8
Arm#2
10
35.03713275439366
20
250.0995114426927
30
0.0
11
35.05320720951572
21
250.2421761777778
31
0.0
  0
LINE
 8
Arm#2
10
23.92583970561683
20
165.28366636410678
30
0.0
11
23.863102570476038
21
165.2148179769374
31
0.0
  0
LINE
 8
Arm#2
10
30.262443949030462
20
259.4099512053815
30
0.0
11
30.14580447100073
21
259.6024999964471
31
0.0
  0
LINE
 8
Arm#2
10
26.32117268738221
20
165.0241291282693
30
0.0
11
26.285569123597433
21
165.0539366498112
31
0.0
  0
LINE
 8
Arm#2
10
28.2194916221773
20
165.7037088227772
30
0.0
11
28.12639786680588
21
165.70680741154203
31
0.0
  0
LINE
 8
Arm#2
10
28.696630200423144
20
260.99191450227687
30
0.0
11
28.49934305383254
21
261.1003469077928
31
0.0
  0
LINE
 8
Arm#2
10
22.792662800700512
20
255.14821803728458
30
0.0
11
22.909302278730248
21
254.95566924621903
31
0.0
  0
LINE
 8
Arm#2
10
23.17198647551193
20
254.5901869319514
30
0.0
11
23.317311195139325
21
254.41825517036827
31
0.0
  0
LINE
 8
Arm#2
10
23.34683416520291
20
260.1727026523252
30
0.0
11
23.199752963681394
21
260.0022710680023
31
0.0
  0
LINE
 8
Arm#2
10
23.666723923900697
20
260.48932680105924
30
0.0
11
23.50263349698889
21
260.3352030307583
31
0.0
  0
LINE
 8
Arm#2
10
27.661769615462646
20
261.42680128469925
30
0.0
11
27.44314049372212
21
261.4804772747022
31
0.0
  0
LINE
 8
Arm#2
10
22.055317586458717
20
250.5797706685483
30
0.0
11
20.661820542405554
21
249.18408705095075
31
0.0
  0
LINE
 8
Arm#2
10
18.030794702812415
20
263.8874195906557
30
0.0
11
18.065874033593616
21
263.7482037320178
31
0.0
  0
LINE
 8
Arm#2
10
24.064334383734682
20
165.40810515745372
30
0.0
11
23.993016096708217
21
165.3481906310258
31
0.0
  0
LINE
 8
Arm#2
10
20.44952666271401
20
265.56312137467427
30
0.0
11
20.324660139872805
21
265.6339730946104
31
0.0
  0
LINE
 8
Arm#2
10
21.121362690489477
20
261.355269104821
30
0.0
11
21.317453316087782
21
261.39910055268996
31
0.0
  0
LINE
 8
Arm#2
10
20.144682746841752
20
261.50996001107177
30
0.0
11
20.329086874032676
21
261.4301612194466
31
0.0
  0
LINE
 8
Arm#2
10
19.20733069046885
20
265.7598658885117
30
0.0
11
19.069828841161215
21
265.7185759844024
31
0.0
  0
LINE
 8
Arm#2
10
22.135315566226193
20
261.9549191639285
30
0.0
11
22.24825478963136
21
262.1211041845728
31
0.0
  0
LINE
 8
Arm#2
10
19.053901169785938
20
248.854864118437
30
0.0
11
19.191403019093755
21
248.81357421432776
31
0.0
  0
LINE
 8
Arm#2
10
29.52037134889862
20
164.17704635720676
30
0.0
11
29.525914629812178
21
164.2700265732648
31
0.0
  0
LINE
 8
Arm#2
10
29.508657567170594
20
164.08464053564165
30
0.0
11
29.52037134889862
21
164.17704635720676
31
0.0
  0
LINE
 8
Arm#2
10
29.525914629812178
20
164.2700265732648
30
0.0
11
29.525262872271334
21
164.36316960174034
31
0.0
  0
LINE
 8
Arm#2
10
29.401538519433952
20
163.7288659646676
30
0.0
11
29.43714680741572
21
163.81493627527755
31
0.0
  0
LINE
 8
Arm#2
10
29.43714680741572
20
163.81493627527755
30
0.0
11
29.466952992624876
21
163.90318388071117
31
0.0
  0
LINE
 8
Arm#2
10
29.466952992624876
20
163.90318388071117
30
0.0
11
29.49082513633181
21
163.99321814805597
31
0.0
  0
LINE
 8
Arm#2
10
27.713599464601053
20
160.03514670864635
30
0.0
11
27.76099632835279
21
160.116675431511
31
0.0
  0
LINE
 8
Arm#2
10
27.76099632835279
20
160.116675431511
30
0.0
11
27.801303372000437
21
160.198188417156
31
0.0
  0
LINE
 8
Arm#2
10
27.540105455811577
20
159.8122151283718
30
0.0
11
27.60290292924189
21
159.88257045991242
31
0.0
  0
LINE
 8
Arm#2
10
29.525262872271334
20
164.36316960174034
30
0.0
11
29.518418961317117
21
164.45606313985974
31
0.0
  0
LINE
 8
Arm#2
10
27.660821852641828
20
159.95699353199103
30
0.0
11
27.713599464601053
21
160.03514670864635
31
0.0
  0
LINE
 8
Arm#2
10
27.60290292924189
20
159.88257045991242
30
0.0
11
27.660821852641828
21
159.95699353199103
31
0.0
  0
LINE
 8
Arm#2
10
27.801303372000437
20
160.198188417156
30
0.0
11
29.401538519433952
21
163.7288659646676
31
0.0
  0
LINE
 8
Arm#2
10
27.40103527487412
20
159.68496451190046
30
0.0
11
27.472714326331978
21
159.74624671916771
31
0.0
  0
LINE
 8
Arm#2
10
18.001899540215256
20
264.3159930648883
30
0.0
11
17.998678164381552
21
264.17246175303575
31
0.0
  0
LINE
 8
Arm#2
10
27.472714326331978
20
159.74624671916771
30
0.0
11
27.540105455811577
21
159.8122151283718
31
0.0
  0
LINE
 8
Arm#2
10
26.99029875223202
20
159.45776536448744
30
0.0
11
27.078203843119876
21
159.49191342946062
31
0.0
  0
LINE
 8
Arm#2
10
27.246132132338587
20
159.57754826056558
30
0.0
11
27.325393488571265
21
159.62864652622682
31
0.0
  0
LINE
 8
Arm#2
10
27.325393488571265
20
159.62864652622682
30
0.0
11
27.40103527487412
21
159.68496451190046
31
0.0
  0
LINE
 8
Arm#2
10
27.16361079203385
20
159.53190153297487
30
0.0
11
27.246132132338587
21
159.57754826056558
31
0.0
  0
LINE
 8
Arm#2
10
27.078203843119876
20
159.49191342946062
30
0.0
11
27.16361079203385
21
159.53190153297487
31
0.0
  0
LINE
 8
Arm#2
10
26.715628395641517
20
159.39177403338948
30
0.0
11
26.808598868572638
21
159.4075818323636
31
0.0
  0
LINE
 8
Arm#2
10
18.20668952724019
20
264.99797580481203
30
0.0
11
18.141511265635263
21
264.87005626385536
31
0.0
  0
LINE
 8
Arm#2
10
26.808598868572638
20
159.4075818323636
30
0.0
11
26.900294319352767
21
159.4296122579535
31
0.0
  0
LINE
 8
Arm#2
10
26.900294319352767
20
159.4296122579535
30
0.0
11
26.99029875223202
21
159.45776536448744
31
0.0
  0
LINE
 8
Arm#2
10
18.00833580446034
20
264.0292194941436
30
0.0
11
18.030794702812415
21
263.8874195906557
31
0.0
  0
LINE
 8
Arm#2
10
26.527553374865487
20
159.37908462133308
30
0.0
11
26.621804680716213
21
159.38226057644474
31
0.0
  0
LINE
 8
Arm#2
10
30.368846351605292
20
259.2115618571238
30
0.0
11
30.262443949030462
21
259.4099512053815
31
0.0
  0
LINE
 8
Arm#2
10
26.621804680716213
20
159.38226057644474
30
0.0
11
26.715628395641517
21
159.39177403338948
31
0.0
  0
LINE
 8
Arm#2
10
18.065874033593616
20
263.7482037320178
30
0.0
11
18.11329135865903
21
263.61269280246586
31
0.0
  0
LINE
 8
Arm#2
10
18.01797399533714
20
264.4586577999733
30
0.0
11
18.001899540215256
21
264.3159930648883
31
0.0
  0
LINE
 8
Arm#2
10
29.49082513633181
20
163.99321814805597
30
0.0
11
29.508657567170594
21
164.08464053564165
31
0.0
  0
LINE
 8
Arm#2
10
18.325276062078654
20
263.2390985857637
30
0.0
11
18.417284944309785
21
263.12888978241773
31
0.0
  0
LINE
 8
Arm#2
10
18.17266490158811
20
263.4819778563258
30
0.0
11
18.243516621524126
21
263.35711133348457
31
0.0
  0
LINE
 8
Arm#2
10
17.998678164381552
20
264.17246175303575
30
0.0
11
18.00833580446034
21
264.0292194941436
31
0.0
  0
LINE
 8
Arm#2
10
18.11329135865903
20
263.61269280246586
30
0.0
11
18.17266490158811
21
263.4819778563258
31
0.0
  0
LINE
 8
Arm#2
10
18.243516621524126
20
263.35711133348457
30
0.0
11
18.325276062078654
21
263.2390985857637
31
0.0
  0
LINE
 8
Arm#2
10
34.13445268876296
20
265.6498558703899
30
0.0
11
34.00120557994486
21
265.70330512422913
31
0.0
  0
LINE
 8
Arm#2
10
35.005160387512454
20
263.7329328718444
30
0.0
11
35.04023971829384
21
263.8721487304826
31
0.0
  0
LINE
 8
Arm#2
10
31.38550060948036
20
261.5431123463938
30
0.0
11
31.564530249665246
21
261.45189218850567
31
0.0
  0
LINE
 8
Arm#2
10
31.753581105018107
20
261.3838296925171
30
0.0
11
31.949671730616416
21
261.33999824464803
31
0.0
  0
LINE
 8
Arm#2
10
30.638500055578703
20
263.26932877583437
30
0.0
11
30.607067731316075
21
263.0708728909096
31
0.0
  0
LINE
 8
Arm#2
10
34.957743062447044
20
263.5974219422926
30
0.0
11
35.005160387512454
21
263.7329328718444
31
0.0
  0
LINE
 8
Arm#2
10
32.54899606091544
20
261.358832770498
30
0.0
11
32.74194754707322
21
261.41489035927333
31
0.0
  0
LINE
 8
Arm#2
10
35.06269861664573
20
264.0139486339705
30
0.0
11
35.07235625672452
21
264.15719089286233
31
0.0
  0
LINE
 8
Arm#2
10
32.74637428123345
20
265.61870223443714
30
0.0
11
32.62150775839206
21
265.54785051450096
31
0.0
  0
LINE
 8
Arm#2
10
32.50349501067131
20
265.46609107394653
30
0.0
11
32.39328620732524
21
265.3740821917155
31
0.0
  0
LINE
 8
Arm#2
10
30.999789163272077
20
263.9783985741179
30
0.0
11
30.876637955841375
21
263.81963299416356
31
0.0
  0
LINE
 8
Arm#2
10
22.280750313751533
20
250.91148485348276
30
0.0
11
22.360549105376734
21
251.0958889806737
31
0.0
  0
LINE
 8
Arm#2
10
34.49816006319273
20
265.42132338030865
30
0.0
11
34.38393426988609
21
265.5082951164524
31
0.0
  0
LINE
 8
Arm#2
10
22.055317586458717
20
250.5797706685483
30
0.0
11
22.178468793889422
21
250.73853624850273
31
0.0
  0
LINE
 8
Arm#2
10
20.128755075466838
20
253.0634800917676
30
0.0
11
19.95580647048663
21
252.96119857190544
31
0.0
  0
LINE
 8
Arm#2
10
22.232327118256265
20
252.45233591826667
30
0.0
11
22.119387894851098
21
252.6185209389109
31
0.0
  0
LINE
 8
Arm#2
10
22.391609772133332
20
252.0842554227289
30
0.0
11
22.323547276144506
21
252.27330627808183
31
0.0
  0
LINE
 8
Arm#2
10
21.10543501911438
20
253.21817099801817
30
0.0
11
20.905397089574954
21
253.23708014965126
31
0.0
  0
LINE
 8
Arm#2
10
20.70456657374051
20
253.2307687964312
30
0.0
11
20.506110688815532
21
253.1993364721681
31
0.0
  0
LINE
 8
Arm#2
10
18.097363687283934
20
250.96074730037347
30
0.0
11
18.04994636221834
21
250.82523637082167
31
0.0
  0
LINE
 8
Arm#2
10
30.93571885487988
20
261.9396483037553
30
0.0
11
31.068596024782398
21
261.7889287397013
31
0.0
  0
LINE
 8
Arm#2
10
18.22758895014903
20
251.21632876935502
30
0.0
11
18.156737230213015
21
251.09146224651371
31
0.0
  0
LINE
 8
Arm#2
10
29.55247325274191
20
254.22296621190782
30
0.0
11
29.708272584528068
21
254.38546659034083
31
0.0
  0
LINE
 8
Arm#2
10
32.14970966015584
20
261.32108909301485
30
0.0
11
32.35054017599047
21
261.327400446235
31
0.0
  0
LINE
 8
Arm#2
10
18.07213434042095
20
249.83663094780212
30
0.0
11
18.125583594260167
21
249.703383838984
31
0.0
  0
LINE
 8
Arm#2
10
17.98597186883998
20
250.2574470379512
30
0.0
11
18.002046323962045
21
250.11478230286596
31
0.0
  0
LINE
 8
Arm#2
10
25.324609682898473
20
175.00079475168295
30
0.0
11
25.25818803039887
21
174.91985973393682
31
0.0
  0
LINE
 8
Arm#2
10
25.553535088450914
20
175.21520679198883
30
0.0
11
25.472600070704644
21
175.14878513948918
31
0.0
  0
LINE
 8
Arm#2
10
25.915259883080502
20
175.424048699541
30
0.0
11
25.819891470514314
21
175.38083783397516
31
0.0
  0
LINE
 8
Arm#2
10
26.94166384702882
20
175.49132276958534
30
0.0
11
26.839697890090417
21
175.51509789616802
31
0.0
  0
LINE
 8
Arm#2
10
26.11344290270053
20
175.4913227695853
30
0.0
11
26.013250230379516
21
175.46092965471504
31
0.0
  0
LINE
 8
Arm#2
10
27.13984686664885
20
175.42404869954086
30
0.0
11
27.041856519349658
21
175.46092965471502
31
0.0
  0
LINE
 8
Arm#2
10
27.327553374864586
20
175.33148209357785
30
0.0
11
27.23521527921504
21
175.38083783397516
31
0.0
  0
LINE
 8
Arm#2
10
27.5015716612788
20
175.21520679198878
30
0.0
11
27.416465747696165
21
175.2761928272069
31
0.0
  0
LINE
 8
Arm#2
10
33.099300279244346
20
261.59697067076075
30
0.0
11
33.25806585919861
21
261.72012187819126
31
0.0
  0
LINE
 8
Arm#2
10
32.92635167426396
20
261.49468915089864
30
0.0
11
33.099300279244346
21
261.59697067076075
31
0.0
  0
LINE
 8
Arm#2
10
34.38393426988609
20
265.5082951164524
30
0.0
11
34.26237222971952
21
265.5846776087849
31
0.0
  0
LINE
 8
Arm#2
10
34.8643448938657
20
264.9827049446387
30
0.0
11
34.78796240153324
21
265.1042669848053
31
0.0
  0
LINE
 8
Arm#2
10
27.658924224763282
20
175.07721229742128
30
0.0
11
27.58250667902489
21
175.14878513948923
31
0.0
  0
LINE
 8
Arm#2
10
25.141912728809817
20
174.7458414475228
30
0.0
11
25.092556988412447
21
174.6535033518732
31
0.0
  0
LINE
 8
Arm#2
10
25.092556988412447
20
174.6535033518732
30
0.0
11
25.049346122846792
21
174.55813493930694
31
0.0
  0
LINE
 8
Arm#2
10
25.049346122846792
20
174.55813493930694
30
0.0
11
25.012465167672644
21
174.46014459200785
31
0.0
  0
LINE
 8
Arm#2
10
24.927553374864768
20
173.94584144752278
30
0.0
11
24.930979097682915
21
173.84119644075454
31
0.0
  0
LINE
 8
Arm#2
10
24.982072052802195
20
174.35995191968678
30
0.0
11
24.958296926219756
21
174.2579859627486
31
0.0
  0
LINE
 8
Arm#2
10
24.958296926219756
20
174.2579859627486
30
0.0
11
24.94124159666665
21
174.1546833550749
31
0.0
  0
LINE
 8
Arm#2
10
24.94124159666665
20
174.1546833550749
30
0.0
11
24.930979097683093
21
174.05048645429105
31
0.0
  0
LINE
 8
Arm#2
10
24.930979097683093
20
174.05048645429105
30
0.0
11
24.927553374864768
21
173.94584144752278
31
0.0
  0
LINE
 8
Arm#2
10
25.012465167672644
20
174.46014459200785
30
0.0
11
24.982072052802195
21
174.35995191968678
31
0.0
  0
LINE
 8
Arm#2
10
24.930979097682915
20
173.84119644075454
30
0.0
11
24.94124159666665
21
173.7369995399707
31
0.0
  0
LINE
 8
Arm#2
10
25.197201995180734
20
174.8347538203542
30
0.0
11
25.141912728809817
21
174.7458414475228
31
0.0
  0
LINE
 8
Arm#2
10
24.94124159666665
20
173.7369995399707
30
0.0
11
24.958296926219756
21
173.63369693229697
31
0.0
  0
LINE
 8
Arm#2
10
24.982072052802195
20
173.53173097535876
30
0.0
11
25.012465167672644
21
173.4315383030378
31
0.0
  0
LINE
 8
Arm#2
10
24.958296926219756
20
173.63369693229697
30
0.0
11
24.982072052802195
21
173.53173097535876
31
0.0
  0
LINE
 8
Arm#2
10
25.049346122846792
20
173.33354795573865
30
0.0
11
25.092556988412447
21
173.23817954317244
31
0.0
  0
LINE
 8
Arm#2
10
25.012465167672644
20
173.4315383030378
30
0.0
11
25.049346122846792
21
173.33354795573865
31
0.0
  0
LINE
 8
Arm#2
10
25.197201995180734
20
173.05692907469145
30
0.0
11
25.25818803039887
21
172.9718231611089
31
0.0
  0
LINE
 8
Arm#2
10
25.141912728809817
20
173.1458414475228
30
0.0
11
25.197201995180734
21
173.05692907469145
31
0.0
  0
LINE
 8
Arm#2
10
25.092556988412447
20
173.23817954317244
30
0.0
11
25.141912728809817
21
173.1458414475228
31
0.0
  0
LINE
 8
Arm#2
10
25.915259883080683
20
172.46763419550476
30
0.0
11
26.013250230379697
21
172.43075324033063
31
0.0
  0
LINE
 8
Arm#2
10
25.72755337486477
20
172.5602008014677
30
0.0
11
25.819891470514314
21
172.51084506107057
31
0.0
  0
LINE
 8
Arm#2
10
25.63864100203355
20
172.61549006783864
30
0.0
11
25.72755337486477
21
172.5602008014677
31
0.0
  0
LINE
 8
Arm#2
10
25.39618252496625
20
172.81447059762436
30
0.0
11
25.472600070704644
21
172.74289775555644
31
0.0
  0
LINE
 8
Arm#2
10
25.819891470514314
20
172.51084506107057
30
0.0
11
25.915259883080683
21
172.46763419550476
31
0.0
  0
LINE
 8
Arm#2
10
25.472600070704644
20
172.74289775555644
30
0.0
11
25.553535088450733
21
172.6764761030568
31
0.0
  0
LINE
 8
Arm#2
10
25.553535088450733
20
172.6764761030568
30
0.0
11
25.63864100203355
21
172.61549006783864
31
0.0
  0
LINE
 8
Arm#2
10
25.324609682898473
20
172.8908881433627
30
0.0
11
25.39618252496625
21
172.81447059762436
31
0.0
  0
LINE
 8
Arm#2
10
25.25818803039887
20
172.9718231611089
30
0.0
11
25.324609682898473
21
172.8908881433627
31
0.0
  0
LINE
 8
Arm#2
10
30.738119380291067
20
258.1515145119002
30
0.0
11
30.686689493339244
21
258.37068287527404
31
0.0
  0
LINE
 8
Arm#2
10
39.98576631203476
20
184.8781813747998
30
0.0
11
39.57165583987071
21
184.82366269686233
31
0.0
  0
LINE
 8
Arm#2
10
26.013250230379697
20
172.43075324033063
30
0.0
11
26.113442902700893
21
172.4003601254603
31
0.0
  0
LINE
 8
Arm#2
10
26.113442902700893
20
172.4003601254603
30
0.0
11
26.215408859639115
21
172.37658499887766
31
0.0
  0
LINE
 8
Arm#2
10
26.215408859639115
20
172.37658499887766
30
0.0
11
26.31871146731269
21
172.35952966932473
31
0.0
  0
LINE
 8
Arm#2
10
26.31871146731269
20
172.35952966932473
30
0.0
11
26.42290836809648
21
172.34926717034102
31
0.0
  0
LINE
 8
Arm#2
10
26.42290836809648
20
172.34926717034102
30
0.0
11
26.527553374864766
21
172.3458414475228
31
0.0
  0
LINE
 8
Arm#2
10
30.827496784471617
20
257.257023928112
30
0.0
11
30.822758428946425
21
257.48209581165753
31
0.0
  0
LINE
 8
Arm#2
10
38.44028498997237
20
183.69229184696383
30
0.0
11
38.38576631203476
21
183.2781813747998
31
0.0
  0
LINE
 8
Arm#2
10
39.57165583987071
20
184.82366269686233
30
0.0
11
39.185766312034765
21
184.66382202085492
31
0.0
  0
LINE
 8
Arm#2
10
38.38576631203476
20
183.2781813747998
30
0.0
11
38.44028498997237
21
182.86407090263577
31
0.0
  0
LINE
 8
Arm#2
10
38.44028498997237
20
182.86407090263577
30
0.0
11
38.60012566597963
21
182.47818137479982
31
0.0
  0
LINE
 8
Arm#2
10
30.619665529728476
20
262.6700044455357
30
0.0
11
30.663496977597642
21
262.4739138199372
31
0.0
  0
LINE
 8
Arm#2
10
23.4714349654403
20
254.25416474345653
30
0.0
11
23.63393534387327
21
254.09836541167041
31
0.0
  0
LINE
 8
Arm#2
10
30.778008398494812
20
257.92995487883815
30
0.0
11
30.738119380291067
21
258.1515145119002
31
0.0
  0
LINE
 8
Arm#2
10
30.806247214924227
20
257.7066112556417
30
0.0
11
30.778008398494812
21
257.92995487883815
31
0.0
  0
LINE
 8
Arm#2
10
30.822758428946425
20
257.48209581165753
30
0.0
11
30.806247214924227
21
257.7066112556417
31
0.0
  0
LINE
 8
Arm#2
10
30.80163527420216
20
256.80767830215365
30
0.0
11
30.820449293996266
21
257.032012511393
31
0.0
  0
LINE
 8
Arm#2
10
30.728946028234514
20
256.3634975024764
30
0.0
11
30.77110629300981
21
256.5846361848681
31
0.0
  0
LINE
 8
Arm#2
10
30.675270038231652
20
256.1448683807358
30
0.0
11
30.728946028234514
21
256.3634975024764
31
0.0
  0
LINE
 8
Arm#2
10
30.61022544515879
20
255.92934806687225
30
0.0
11
30.675270038231652
21
256.1448683807358
31
0.0
  0
LINE
 8
Arm#2
10
30.533990531724076
20
255.71752728708546
30
0.0
11
30.61022544515879
21
255.92934806687225
31
0.0
  0
LINE
 8
Arm#2
10
25.97690290661092
20
159.4919134294605
30
0.0
11
26.064807997498953
21
159.45776536448736
31
0.0
  0
LINE
 8
Arm#2
10
26.064807997498953
20
159.45776536448736
30
0.0
11
26.15481243037821
21
159.4296122579534
31
0.0
  0
LINE
 8
Arm#2
10
26.15481243037821
20
159.4296122579534
30
0.0
11
26.246507881158337
21
159.40758183236358
31
0.0
  0
LINE
 8
Arm#2
10
26.246507881158337
20
159.40758183236358
30
0.0
11
26.339478354089458
21
159.39177403338942
31
0.0
  0
LINE
 8
Arm#2
10
26.339478354089458
20
159.39177403338942
30
0.0
11
26.433302069014765
21
159.3822605764447
31
0.0
  0
LINE
 8
Arm#2
10
26.433302069014765
20
159.3822605764447
30
0.0
11
26.527553374865487
21
159.37908462133308
31
0.0
  0
LINE
 8
Arm#2
10
30.44677425252657
20
255.50998662740932
30
0.0
11
30.533990531724076
21
255.71752728708546
31
0.0
  0
LINE
 8
Arm#2
10
30.240383255809284
20
255.1100077957754
30
0.0
11
30.348815661325283
21
255.30729494236604
31
0.0
  0
LINE
 8
Arm#2
10
30.121774241665307
20
254.91866593799293
30
0.0
11
30.240383255809284
21
255.1100077957754
31
0.0
  0
LINE
 8
Arm#2
10
29.993313717956664
20
254.73379382375077
30
0.0
11
30.121774241665307
21
254.91866593799293
31
0.0
  0
LINE
 8
Arm#2
10
29.85535378604958
20
254.55589817466384
30
0.0
11
29.993313717956664
21
254.73379382375077
31
0.0
  0
LINE
 8
Arm#2
10
29.708272584528068
20
254.38546659034083
30
0.0
11
29.85535378604958
21
254.55589817466384
31
0.0
  0
LINE
 8
Arm#2
10
29.388382825830277
20
254.06884244160688
30
0.0
11
29.55247325274191
21
254.22296621190782
31
0.0
  0
LINE
 8
Arm#2
10
30.348815661325283
20
255.30729494236604
30
0.0
11
30.44677425252657
21
255.50998662740932
31
0.0
  0
LINE
 8
Arm#2
10
29.21645106424723
20
253.9235177219794
30
0.0
11
29.388382825830277
21
254.06884244160688
31
0.0
  0
LINE
 8
Arm#2
10
29.037149221000487
20
253.78739037798042
30
0.0
11
29.21645106424723
21
253.9235177219794
31
0.0
  0
LINE
 8
Arm#2
10
28.850968749979558
20
253.66083352519777
30
0.0
11
29.037149221000487
21
253.78739037798042
31
0.0
  0
LINE
 8
Arm#2
10
25.253803377730357
20
160.1981884171557
30
0.0
11
25.294110421378004
21
160.1166754315107
31
0.0
  0
LINE
 8
Arm#2
10
28.65841995891396
20
253.5441940471681
30
0.0
11
28.850968749979558
21
253.66083352519777
31
0.0
  0
LINE
 8
Arm#2
10
28.460030610656148
20
253.4377916445932
30
0.0
11
28.65841995891396
21
253.5441940471681
31
0.0
  0
LINE
 8
Arm#2
10
28.256344476619894
20
253.34191795906244
30
0.0
11
28.460030610656148
21
253.4377916445932
31
0.0
  0
LINE
 8
Arm#2
10
28.04791984634059
20
253.25683577368392
30
0.0
11
28.256344476619894
21
253.34191795906244
31
0.0
  0
LINE
 8
Arm#2
10
27.835327997242295
20
253.1827782928138
30
0.0
11
28.04791984634059
21
253.25683577368392
31
0.0
  0
LINE
 8
Arm#2
10
27.619151628806463
20
253.11994850285924
30
0.0
11
27.835327997242295
21
253.1827782928138
31
0.0
  0
LINE
 8
Arm#2
10
27.399983265432628
20
253.06851861590755
30
0.0
11
27.619151628806463
21
253.11994850285924
31
0.0
  0
LINE
 8
Arm#2
10
27.178423632370517
20
253.0286295977037
30
0.0
11
27.399983265432628
21
253.06851861590755
31
0.0
  0
LINE
 8
Arm#2
10
26.955080009174022
20
253.0003907812742
30
0.0
11
27.178423632370517
21
253.0286295977037
31
0.0
  0
LINE
 8
Arm#2
10
26.730564565189862
20
252.98387956725202
30
0.0
11
26.955080009174022
21
253.0003907812742
31
0.0
  0
LINE
 8
Arm#2
10
26.50549268164431
20
252.979141211727
30
0.0
11
26.730564565189862
21
252.98387956725202
31
0.0
  0
LINE
 8
Arm#2
10
26.28048126492532
20
252.98618870220227
30
0.0
11
26.50549268164431
21
252.979141211727
31
0.0
  0
LINE
 8
Arm#2
10
25.83310493840049
20
253.03553170318867
30
0.0
11
26.056147055686054
21
253.00500272199633
31
0.0
  0
LINE
 8
Arm#2
10
26.056147055686054
20
253.00500272199633
30
0.0
11
26.28048126492532
21
252.98618870220227
31
0.0
  0
LINE
 8
Arm#2
10
25.39333713426815
20
253.13136795796683
30
0.0
11
25.61196625600886
21
253.07769196796394
31
0.0
  0
LINE
 8
Arm#2
10
25.61196625600886
20
253.07769196796394
30
0.0
11
25.83310493840049
21
253.03553170318867
31
0.0
  0
LINE
 8
Arm#2
10
24.965996040617906
20
253.2726474644744
30
0.0
11
25.1778168204047
21
253.1964125510398
31
0.0
  0
LINE
 8
Arm#2
10
25.1778168204047
20
253.1964125510398
30
0.0
11
25.39333713426815
21
253.13136795796683
31
0.0
  0
LINE
 8
Arm#2
10
24.555763695898438
20
253.45782233487336
30
0.0
11
24.758455380941747
21
253.35986374367187
31
0.0
  0
LINE
 8
Arm#2
10
24.758455380941747
20
253.35986374367187
30
0.0
11
24.965996040617906
21
253.2726474644744
31
0.0
  0
LINE
 8
Arm#2
10
23.982262577283223
20
253.81332427824196
30
0.0
11
24.16713469152537
21
253.68486375453327
31
0.0
  0
LINE
 8
Arm#2
10
24.16713469152537
20
253.68486375453327
30
0.0
11
24.35847654930783
21
253.56625474038924
31
0.0
  0
LINE
 8
Arm#2
10
24.35847654930783
20
253.56625474038924
30
0.0
11
24.555763695898438
21
253.45782233487336
31
0.0
  0
LINE
 8
Arm#2
10
23.63393534387327
20
254.09836541167041
30
0.0
11
23.804366928196266
21
253.9512842101489
31
0.0
  0
LINE
 8
Arm#2
10
23.804366928196266
20
253.9512842101489
30
0.0
11
23.982262577283223
21
253.81332427824196
31
0.0
  0
LINE
 8
Arm#2
10
23.035859131512762
20
254.76948877519797
30
0.0
11
23.17198647551193
21
254.5901869319514
31
0.0
  0
LINE
 8
Arm#2
10
23.317311195139325
20
254.41825517036827
30
0.0
11
23.4714349654403
21
254.25416474345653
31
0.0
  0
LINE
 8
Arm#2
10
22.686260398125683
20
255.3466073855424
30
0.0
11
22.792662800700512
21
255.14821803728458
31
0.0
  0
LINE
 8
Arm#2
10
22.909302278730248
20
254.95566924621903
30
0.0
11
23.035859131512762
21
254.76948877519797
31
0.0
  0
LINE
 8
Arm#2
10
22.505304527216396
20
255.7587181498579
30
0.0
11
22.590386712594878
21
255.5502935195786
31
0.0
  0
LINE
 8
Arm#2
10
22.590386712594878
20
255.5502935195786
30
0.0
11
22.686260398125683
21
255.3466073855424
31
0.0
  0
LINE
 8
Arm#2
10
23.06179303177431
20
259.82437541891534
30
0.0
11
22.93333250806567
21
259.63950330467316
31
0.0
  0
LINE
 8
Arm#2
10
34.913595484095715
20
249.68811297881066
30
0.0
11
34.967044737934934
21
249.82136008762876
31
0.0
  0
LINE
 8
Arm#2
10
22.248859534806748
20
256.8515579870245
30
0.0
11
22.277098351236162
21
256.62821436382796
31
0.0
  0
LINE
 8
Arm#2
10
22.232348320784368
20
257.0760734310085
30
0.0
11
22.248859534806748
21
256.8515579870245
31
0.0
  0
LINE
 8
Arm#2
10
22.379836711499323
20
258.41330086193034
30
0.0
11
22.32616072149646
21
258.19467174018973
31
0.0
  0
LINE
 8
Arm#2
10
22.43124704634628
20
255.9713099989562
30
0.0
11
22.505304527216396
21
255.7587181498579
31
0.0
  0
LINE
 8
Arm#2
10
23.199752963681394
20
260.0022710680023
30
0.0
11
23.06179303177431
21
259.82437541891534
31
0.0
  0
LINE
 8
Arm#2
10
22.31698736943991
20
256.406654730766
30
0.0
11
22.36841725639173
21
256.18748636739207
31
0.0
  0
LINE
 8
Arm#2
10
22.36841725639173
20
256.18748636739207
30
0.0
11
22.43124704634628
21
255.9713099989562
31
0.0
  0
LINE
 8
Arm#2
10
22.277098351236162
20
256.62821436382796
30
0.0
11
22.31698736943991
21
256.406654730766
31
0.0
  0
LINE
 8
Arm#2
10
22.444881304572185
20
258.62882117579386
30
0.0
11
22.379836711499323
21
258.41330086193034
31
0.0
  0
LINE
 8
Arm#2
10
22.227609965259358
20
257.3011453145543
30
0.0
11
22.232348320784368
21
257.0760734310085
31
0.0
  0
LINE
 8
Arm#2
10
22.234657455734713
20
257.52615673127315
30
0.0
11
22.227609965259358
21
257.3011453145543
31
0.0
  0
LINE
 8
Arm#2
10
24.83561512755331
20
165.70370882277732
30
0.0
11
24.742933456845446
21
165.69442677255765
31
0.0
  0
LINE
 8
Arm#2
10
22.284000456721163
20
257.973533057798
30
0.0
11
22.253471475528816
21
257.7504909405124
31
0.0
  0
LINE
 8
Arm#2
10
22.253471475528816
20
257.7504909405124
30
0.0
11
22.234657455734713
21
257.52615673127315
31
0.0
  0
LINE
 8
Arm#2
10
22.32616072149646
20
258.19467174018973
30
0.0
11
22.284000456721163
21
257.973533057798
31
0.0
  0
LINE
 8
Arm#2
10
22.93333250806567
20
259.63950330467316
30
0.0
11
22.814723493921694
21
259.4481614468907
31
0.0
  0
LINE
 8
Arm#2
10
22.814723493921694
20
259.4481614468907
30
0.0
11
22.706291088405692
21
259.25087430030004
31
0.0
  0
LINE
 8
Arm#2
10
22.608332497204227
20
259.04818261525674
30
0.0
11
22.5211162180069
21
258.8406419555807
31
0.0
  0
LINE
 8
Arm#2
10
22.706291088405692
20
259.25087430030004
30
0.0
11
22.608332497204227
21
259.04818261525674
31
0.0
  0
LINE
 8
Arm#2
10
22.5211162180069
20
258.8406419555807
30
0.0
11
22.444881304572185
21
258.62882117579386
31
0.0
  0
LINE
 8
Arm#2
10
38.60012566597963
20
182.47818137479982
30
0.0
11
38.854395462136246
21
182.14681052490133
31
0.0
  0
LINE
 8
Arm#2
10
41.11713716193328
20
182.14681052490133
30
0.0
11
41.37140695808989
21
182.4781813747998
31
0.0
  0
LINE
 8
Arm#2
10
23.50263349698889
20
260.3352030307583
30
0.0
11
23.34683416520291
21
260.1727026523252
31
0.0
  0
LINE
 8
Arm#2
10
39.57165583987071
20
181.73270005273727
30
0.0
11
39.98576631203476
21
181.6781813747998
31
0.0
  0
LINE
 8
Arm#2
10
38.854395462136246
20
184.40955222469827
30
0.0
11
38.60012566597963
21
184.0781813747998
31
0.0
  0
LINE
 8
Arm#2
10
38.60012566597963
20
184.0781813747998
30
0.0
11
38.44028498997237
21
183.69229184696383
31
0.0
  0
LINE
 8
Arm#2
10
38.854395462136246
20
182.14681052490133
30
0.0
11
39.185766312034765
21
181.8925407287447
31
0.0
  0
LINE
 8
Arm#2
10
40.78576631203476
20
184.66382202085492
30
0.0
11
40.39987678419882
21
184.82366269686233
31
0.0
  0
LINE
 8
Arm#2
10
40.39987678419882
20
184.82366269686233
30
0.0
11
39.98576631203476
21
184.8781813747998
31
0.0
  0
LINE
 8
Arm#2
10
41.53124763409733
20
182.86407090263577
30
0.0
11
41.58576631203476
21
183.2781813747998
31
0.0
  0
LINE
 8
Arm#2
10
41.53124763409733
20
183.69229184696383
30
0.0
11
41.37140695808989
21
184.0781813747998
31
0.0
  0
LINE
 8
Arm#2
10
26.99895969404492
20
261.55316652066983
30
0.0
11
26.774625484805476
21
261.57198054046387
31
0.0
  0
LINE
 8
Arm#2
10
40.39987678419882
20
181.73270005273727
30
0.0
11
40.78576631203476
21
181.8925407287447
31
0.0
  0
LINE
 8
Arm#2
10
41.11713716193328
20
184.40955222469827
30
0.0
11
40.78576631203476
21
184.66382202085492
31
0.0
  0
LINE
 8
Arm#2
10
39.185766312034765
20
181.8925407287447
30
0.0
11
39.57165583987071
21
181.73270005273727
31
0.0
  0
LINE
 8
Arm#2
10
40.78576631203476
20
181.8925407287447
30
0.0
11
41.11713716193328
21
182.14681052490133
31
0.0
  0
LINE
 8
Arm#2
10
27.956817996846627
20
270.2513618311242
30
0.0
11
28.12639786680624
21
270.2513618311243
31
0.0
  0
LINE
 8
Arm#2
10
30.647569306222728
20
252.06898456255567
30
0.0
11
30.60373785835374
21
251.87289393695727
31
0.0
  0
LINE
 8
Arm#2
10
26.052293451992725
20
165.3253212191789
30
0.0
11
25.980051916239873
21
165.38892687691833
31
0.0
  0
LINE
 8
Arm#2
10
41.58576631203476
20
183.2781813747998
30
0.0
11
41.53124763409733
21
183.69229184696383
31
0.0
  0
LINE
 8
Arm#2
10
30.715631802211554
20
252.25803541790847
30
0.0
11
30.647569306222728
21
252.06898456255567
31
0.0
  0
LINE
 8
Arm#2
10
30.14580447100073
20
259.6024999964471
30
0.0
11
30.019247618218035
21
259.78868046746817
31
0.0
  0
LINE
 8
Arm#2
10
41.37140695808989
20
182.4781813747998
30
0.0
11
41.53124763409733
21
182.86407090263577
31
0.0
  0
LINE
 8
Arm#2
10
32.53306838954017
20
253.18406561199498
30
0.0
11
32.33461250461537
21
253.21549793625783
31
0.0
  0
LINE
 8
Arm#2
10
39.98576631203476
20
181.6781813747998
30
0.0
11
40.39987678419882
21
181.73270005273727
31
0.0
  0
LINE
 8
Arm#2
10
41.37140695808989
20
184.0781813747998
30
0.0
11
41.11713716193328
21
184.40955222469827
31
0.0
  0
LINE
 8
Arm#2
10
35.05642858534961
20
250.38570748963033
30
0.0
11
35.04677094527064
21
250.5289497485224
31
0.0
  0
LINE
 8
Arm#2
10
25.655123484298347
20
261.4896506267586
30
0.0
11
25.43595512092451
21
261.43822073980687
31
0.0
  0
LINE
 8
Arm#2
10
26.54961406808667
20
261.5790280309391
30
0.0
11
26.324542184540935
21
261.5742896754141
31
0.0
  0
LINE
 8
Arm#2
10
26.774625484805476
20
261.57198054046387
30
0.0
11
26.54961406808667
21
261.5790280309391
31
0.0
  0
LINE
 8
Arm#2
10
31.73765343364301
20
253.15906868997612
30
0.0
11
31.54860257829015
21
253.0910061939874
31
0.0
  0
LINE
 8
Arm#2
10
26.492759962344874
20
164.95854110762335
30
0.0
11
26.446964083994068
21
164.9662118064663
31
0.0
  0
LINE
 8
Arm#2
10
26.81478150719224
20
165.10680741154198
30
0.0
11
26.785778594504176
21
165.07054540456144
31
0.0
  0
LINE
 8
Arm#2
10
30.464720037136097
20
259.0078757230874
30
0.0
11
30.368846351605292
21
259.2115618571238
31
0.0
  0
LINE
 8
Arm#2
10
23.653568230296845
20
163.72886596466736
30
0.0
11
25.253803377730357
21
160.1981884171557
31
0.0
  0
LINE
 8
Arm#2
10
23.617959942315075
20
163.8149362752773
30
0.0
11
23.653568230296845
21
163.72886596466736
31
0.0
  0
LINE
 8
Arm#2
10
28.670639295957166
20
165.59669161828128
30
0.0
11
28.583663192259106
21
165.63002637382235
31
0.0
  0
LINE
 8
Arm#2
10
24.396686790817014
20
261.01397519549795
30
0.0
11
24.20413799975142
21
260.89733571746825
31
0.0
  0
LINE
 8
Arm#2
10
24.20413799975142
20
260.89733571746825
30
0.0
11
24.017957528730307
21
260.7707788646856
31
0.0
  0
LINE
 8
Arm#2
10
25.007186903390387
20
261.3013334689822
30
0.0
11
24.79876227311108
21
261.2162512836036
31
0.0
  0
LINE
 8
Arm#2
10
27.877289929326274
20
261.3617566916263
30
0.0
11
27.661769615462646
21
261.42680128469925
31
0.0
  0
LINE
 8
Arm#2
10
24.017957528730307
20
260.7707788646856
30
0.0
11
23.838655685483744
21
260.63465152068676
31
0.0
  0
LINE
 8
Arm#2
10
24.59507613907483
20
261.1203775980729
30
0.0
11
24.396686790817014
21
261.01397519549795
31
0.0
  0
LINE
 8
Arm#2
10
23.838655685483744
20
260.63465152068676
30
0.0
11
23.666723923900697
21
260.48932680105924
31
0.0
  0
LINE
 8
Arm#2
10
30.77110629300981
20
256.5846361848681
30
0.0
11
30.80163527420216
21
256.80767830215365
31
0.0
  0
LINE
 8
Arm#2
10
30.820449293996266
20
257.032012511393
30
0.0
11
30.827496784471617
21
257.257023928112
31
0.0
  0
LINE
 8
Arm#2
10
39.185766312034765
20
184.66382202085492
30
0.0
11
38.854395462136246
21
184.40955222469827
31
0.0
  0
LINE
 8
Arm#2
10
19.812968561907287
20
261.7353927383645
30
0.0
11
18.417284944309785
21
263.12888978241773
31
0.0
  0
LINE
 8
Arm#2
10
22.194396465264337
20
263.8349038543367
30
0.0
11
22.071245257833993
21
263.993669434291
31
0.0
  0
LINE
 8
Arm#2
10
22.40753744350807
20
262.48918468011055
30
0.0
11
22.451368891377236
21
262.68527530570884
31
0.0
  0
LINE
 8
Arm#2
10
22.463966689790176
20
263.0861437510828
30
0.0
11
22.43253436552719
21
263.2845996360078
31
0.0
  0
LINE
 8
Arm#2
10
21.851718832269903
20
261.6713224299723
30
0.0
11
22.002438396323853
21
261.8041995998747
31
0.0
  0
LINE
 8
Arm#2
10
20.324660139872805
20
265.6339730946104
30
0.0
11
20.19394519373265
21
265.69334663753943
31
0.0
  0
LINE
 8
Arm#2
10
18.28307201957283
20
265.11953784497854
30
0.0
11
18.20668952724019
21
264.99797580481203
31
0.0
  0
LINE
 8
Arm#2
10
20.92132476094987
20
261.33635995318787
30
0.0
11
21.121362690489477
21
261.355269104821
31
0.0
  0
LINE
 8
Arm#2
10
20.720494245115606
20
261.3426713064084
30
0.0
11
20.92132476094987
21
261.33635995318787
31
0.0
  0
LINE
 8
Arm#2
10
20.19394519373265
20
265.69334663753943
30
0.0
11
20.058434264180676
21
265.7407639626049
31
0.0
  0
LINE
 8
Arm#2
10
19.971734141861724
20
261.6122415309338
30
0.0
11
20.144682746841752
21
261.50996001107177
31
0.0
  0
LINE
 8
Arm#2
10
18.68710015121998
20
265.5235659766258
30
0.0
11
18.572874357913346
21
265.43659424048184
31
0.0
  0
LINE
 8
Arm#2
10
19.777418502054598
20
265.79830219173823
30
0.0
11
19.634176243162738
21
265.807959831817
31
0.0
  0
LINE
 8
Arm#2
10
18.572874357913346
20
265.43659424048184
30
0.0
11
18.466904490391062
21
265.33973350580754
31
0.0
  0
LINE
 8
Arm#2
10
19.91921840554269
20
265.77584329338623
30
0.0
11
19.777418502054598
21
265.79830219173823
31
0.0
  0
LINE
 8
Arm#2
10
20.058434264180676
20
265.7407639626049
30
0.0
11
19.91921840554269
21
265.77584329338623
31
0.0
  0
LINE
 8
Arm#2
10
19.634176243162738
20
265.807959831817
30
0.0
11
19.490644931310282
21
265.80473845598334
31
0.0
  0
LINE
 8
Arm#2
10
19.490644931310282
20
265.80473845598334
30
0.0
11
19.347980196225077
21
265.78866400086116
31
0.0
  0
LINE
 8
Arm#2
10
19.812968561907287
20
261.7353927383645
30
0.0
11
19.971734141861724
21
261.6122415309338
31
0.0
  0
LINE
 8
Arm#2
10
18.370043755716548
20
265.23376363828515
30
0.0
11
18.28307201957283
21
265.11953784497854
31
0.0
  0
LINE
 8
Arm#2
10
19.347980196225077
20
265.78866400086116
30
0.0
11
19.20733069046885
21
265.7598658885117
31
0.0
  0
LINE
 8
Arm#2
10
19.069828841161215
20
265.7185759844024
30
0.0
11
18.93658173234311
21
265.66512673056303
31
0.0
  0
LINE
 8
Arm#2
10
18.93658173234311
20
265.66512673056303
30
0.0
11
18.808662191386553
21
265.59994846895813
31
0.0
  0
LINE
 8
Arm#2
10
18.466904490391062
20
265.33973350580754
30
0.0
11
18.370043755716548
21
265.23376363828515
31
0.0
  0
LINE
 8
Arm#2
10
18.808662191386553
20
265.59994846895813
30
0.0
11
18.68710015121998
21
265.5235659766258
31
0.0
  0
LINE
 8
Arm#2
10
20.67774821378065
20
265.3893530518888
30
0.0
11
20.567539410434765
21
265.48136193411983
31
0.0
  0
LINE
 8
Arm#2
10
20.329086874032676
20
261.4301612194466
30
0.0
11
20.52203836019081
21
261.3741036306712
31
0.0
  0
LINE
 8
Arm#2
10
22.071245257833993
20
263.993669434291
30
0.0
11
20.67774821378065
21
265.3893530518888
31
0.0
  0
LINE
 8
Arm#2
10
20.567539410434765
20
265.48136193411983
30
0.0
11
20.44952666271401
21
265.56312137467427
31
0.0
  0
LINE
 8
Arm#2
10
21.317453316087782
20
261.39910055268996
30
0.0
11
21.506504171440827
21
261.4671630486788
31
0.0
  0
LINE
 8
Arm#2
10
22.296677985126447
20
263.6619552493565
30
0.0
11
22.194396465264337
21
263.8349038543367
31
0.0
  0
LINE
 8
Arm#2
10
22.470278043010264
20
262.88531323524836
30
0.0
11
22.463966689790176
21
263.0861437510828
31
0.0
  0
LINE
 8
Arm#2
10
18.141511265635263
20
264.87005626385536
30
0.0
11
18.088062011796044
21
264.7368091550373
31
0.0
  0
LINE
 8
Arm#2
10
20.52203836019081
20
261.3741036306712
30
0.0
11
20.720494245115606
21
261.3426713064084
31
0.0
  0
LINE
 8
Arm#2
10
18.088062011796044
20
264.7368091550373
30
0.0
11
18.046772107686888
21
264.59930730572967
31
0.0
  0
LINE
 8
Arm#2
10
22.33947494751942
20
262.30013382475755
30
0.0
11
22.40753744350807
21
262.48918468011055
31
0.0
  0
LINE
 8
Arm#2
10
22.451368891377236
20
262.68527530570884
30
0.0
11
22.470278043010264
21
262.88531323524836
31
0.0
  0
LINE
 8
Arm#2
10
22.37647677675183
20
263.4775511221656
30
0.0
11
22.296677985126447
21
263.6619552493565
31
0.0
  0
LINE
 8
Arm#2
10
21.506504171440827
20
261.4671630486788
30
0.0
11
21.685533811625714
21
261.55838320656693
31
0.0
  0
LINE
 8
Arm#2
10
21.685533811625714
20
261.55838320656693
30
0.0
11
21.851718832269903
21
261.6713224299723
31
0.0
  0
LINE
 8
Arm#2
10
22.002438396323853
20
261.8041995998747
30
0.0
11
22.135315566226193
21
261.9549191639285
31
0.0
  0
LINE
 8
Arm#2
10
22.24825478963136
20
262.1211041845728
30
0.0
11
22.33947494751942
21
262.30013382475755
31
0.0
  0
LINE
 8
Arm#2
10
18.190761855865095
20
249.5754642980274
30
0.0
11
18.267144348197554
21
249.45390225786085
31
0.0
  0
LINE
 8
Arm#2
10
19.191403019093755
20
248.81357421432776
30
0.0
11
19.33205252484998
21
248.78477610197814
31
0.0
  0
LINE
 8
Arm#2
10
22.43253436552719
20
263.2845996360078
30
0.0
11
22.37647677675183
21
263.4775511221656
31
0.0
  0
LINE
 8
Arm#2
10
19.903290734167594
20
248.79759680945324
30
0.0
11
20.0425065928054
21
248.83267614023453
31
0.0
  0
LINE
 8
Arm#2
10
20.506110688815532
20
253.1993364721681
30
0.0
11
20.31315920265776
21
253.14327888339278
31
0.0
  0
LINE
 8
Arm#2
10
20.55161173905949
20
249.09207816871958
30
0.0
11
20.661820542405554
21
249.18408705095075
31
0.0
  0
LINE
 8
Arm#2
10
22.45435037163535
20
251.68812686759097
30
0.0
11
22.43544122000232
21
251.8881647971304
31
0.0
  0
LINE
 8
Arm#2
10
18.55694668653825
20
249.13684586235752
30
0.0
11
18.671172479844703
21
249.04987412621367
31
0.0
  0
LINE
 8
Arm#2
10
18.267144348197554
20
249.45390225786085
30
0.0
11
18.354116084341452
21
249.33967646455434
31
0.0
  0
LINE
 8
Arm#2
10
18.354116084341452
20
249.33967646455434
30
0.0
11
18.450976819015786
21
249.23370659703198
31
0.0
  0
LINE
 8
Arm#2
10
18.450976819015786
20
249.23370659703198
30
0.0
11
18.55694668653825
21
249.13684586235752
31
0.0
  0
LINE
 8
Arm#2
10
20.433598991338734
20
249.01031872816515
30
0.0
11
20.55161173905949
21
249.09207816871958
31
0.0
  0
LINE
 8
Arm#2
10
20.308732468497528
20
248.93946700822906
30
0.0
11
20.433598991338734
21
249.01031872816515
31
0.0
  0
LINE
 8
Arm#2
10
20.178017522357372
20
248.8800934652999
30
0.0
11
20.308732468497528
21
248.93946700822906
31
0.0
  0
LINE
 8
Arm#2
10
19.761490830679502
20
248.77513791110127
30
0.0
11
19.903290734167594
21
248.79759680945324
31
0.0
  0
LINE
 8
Arm#2
10
20.0425065928054
20
248.83267614023453
30
0.0
11
20.178017522357372
21
248.8800934652999
31
0.0
  0
LINE
 8
Arm#2
10
19.618248571787642
20
248.76548027102234
30
0.0
11
19.761490830679502
21
248.77513791110127
31
0.0
  0
LINE
 8
Arm#2
10
19.474717259935005
20
248.76870164685616
30
0.0
11
19.618248571787642
21
248.76548027102234
31
0.0
  0
LINE
 8
Arm#2
10
19.33205252484998
20
248.78477610197814
30
0.0
11
19.474717259935005
21
248.76870164685616
31
0.0
  0
LINE
 8
Arm#2
10
18.920654060967834
20
248.9083133722762
30
0.0
11
19.053901169785938
21
248.854864118437
31
0.0
  0
LINE
 8
Arm#2
10
18.792734520011276
20
248.97349163388125
30
0.0
11
18.920654060967834
21
248.9083133722762
31
0.0
  0
LINE
 8
Arm#2
10
18.671172479844703
20
249.04987412621367
30
0.0
11
18.792734520011276
21
248.97349163388125
31
0.0
  0
LINE
 8
Arm#2
10
25.472600070704644
20
175.14878513948918
30
0.0
11
25.39618252496625
21
175.07721229742128
31
0.0
  0
LINE
 8
Arm#2
10
25.638641002033367
20
175.27619282720678
30
0.0
11
25.553535088450914
21
175.21520679198883
31
0.0
  0
LINE
 8
Arm#2
10
18.125583594260167
20
249.703383838984
30
0.0
11
18.190761855865095
21
249.5754642980274
31
0.0
  0
LINE
 8
Arm#2
10
18.03084443631161
20
249.9741327971098
30
0.0
11
18.07213434042095
21
249.83663094780212
31
0.0
  0
LINE
 8
Arm#2
10
18.002046323962045
20
250.11478230286596
30
0.0
11
18.03084443631161
21
249.9741327971098
31
0.0
  0
LINE
 8
Arm#2
10
25.25818803039887
20
174.91985973393682
30
0.0
11
25.197201995180734
21
174.8347538203542
31
0.0
  0
LINE
 8
Arm#2
10
26.839697890090417
20
175.51509789616802
30
0.0
11
26.736395282416662
21
175.53215322572098
31
0.0
  0
LINE
 8
Arm#2
10
17.982750493006275
20
250.40097834980375
30
0.0
11
17.98597186883998
21
250.2574470379512
31
0.0
  0
LINE
 8
Arm#2
10
17.992408133085064
20
250.5442206086956
30
0.0
11
17.982750493006275
21
250.40097834980375
31
0.0
  0
LINE
 8
Arm#2
10
30.774356435979445
20
263.6466843891834
30
0.0
11
30.69455764435424
21
263.4622802619925
31
0.0
  0
LINE
 8
Arm#2
10
18.014867031437138
20
250.6860205121836
30
0.0
11
17.992408133085064
21
250.5442206086956
31
0.0
  0
LINE
 8
Arm#2
10
18.04994636221834
20
250.82523637082167
30
0.0
11
18.014867031437138
21
250.6860205121836
31
0.0
  0
LINE
 8
Arm#2
10
18.156737230213015
20
251.09146224651371
30
0.0
11
18.097363687283934
21
250.96074730037347
31
0.0
  0
LINE
 8
Arm#2
10
18.30934839070338
20
251.33434151707579
30
0.0
11
18.22758895014903
21
251.21632876935502
31
0.0
  0
LINE
 8
Arm#2
10
35.069134880891
20
264.300722204715
30
0.0
11
35.053060425768756
21
264.4433869398002
31
0.0
  0
LINE
 8
Arm#2
10
18.401357272934508
20
251.4445503204218
30
0.0
11
18.30934839070338
21
251.33434151707579
31
0.0
  0
LINE
 8
Arm#2
10
19.79704089053237
20
252.83804736447487
30
0.0
11
18.401357272934508
21
251.4445503204218
31
0.0
  0
LINE
 8
Arm#2
10
18.046772107686888
20
264.59930730572967
30
0.0
11
18.01797399533714
21
264.4586577999733
31
0.0
  0
LINE
 8
Arm#2
10
34.92952315547081
20
264.85478540368206
30
0.0
11
34.8643448938657
21
264.9827049446387
31
0.0
  0
LINE
 8
Arm#2
10
30.607067731316075
20
263.0708728909096
30
0.0
11
30.600756378095628
21
262.8700423750753
31
0.0
  0
LINE
 8
Arm#2
10
19.95580647048663
20
252.96119857190544
30
0.0
11
19.79704089053237
21
252.83804736447487
31
0.0
  0
LINE
 8
Arm#2
10
20.31315920265776
20
253.14327888339278
30
0.0
11
20.128755075466838
21
253.0634800917676
31
0.0
  0
LINE
 8
Arm#2
10
20.905397089574954
20
253.23708014965126
30
0.0
11
20.70456657374051
21
253.2307687964312
31
0.0
  0
LINE
 8
Arm#2
10
21.301525644712687
20
253.1743395501491
30
0.0
11
21.10543501911438
21
253.21817099801817
31
0.0
  0
LINE
 8
Arm#2
10
21.490576500065732
20
253.10627705416042
30
0.0
11
21.301525644712687
21
253.1743395501491
31
0.0
  0
LINE
 8
Arm#2
10
21.669606140250618
20
253.01505689627243
30
0.0
11
21.490576500065732
21
253.10627705416042
31
0.0
  0
LINE
 8
Arm#2
10
21.835791160894807
20
252.9021176728672
30
0.0
11
21.669606140250618
21
253.01505689627243
31
0.0
  0
LINE
 8
Arm#2
10
21.986510724948577
20
252.7692405029648
30
0.0
11
21.835791160894807
21
252.9021176728672
31
0.0
  0
LINE
 8
Arm#2
10
22.119387894851098
20
252.6185209389109
30
0.0
11
21.986510724948577
21
252.7692405029648
31
0.0
  0
LINE
 8
Arm#2
10
22.323547276144506
20
252.27330627808183
30
0.0
11
22.232327118256265
21
252.45233591826667
31
0.0
  0
LINE
 8
Arm#2
10
22.43544122000232
20
251.8881647971304
30
0.0
11
22.391609772133332
21
252.0842554227289
31
0.0
  0
LINE
 8
Arm#2
10
22.448039018414903
20
251.4872963517566
30
0.0
11
22.45435037163535
21
251.68812686759097
31
0.0
  0
LINE
 8
Arm#2
10
33.29361591905129
20
265.78303133156504
30
0.0
11
33.151816015563384
21
265.7605724332129
31
0.0
  0
LINE
 8
Arm#2
10
22.416606694152094
20
251.28884046683177
30
0.0
11
22.448039018414903
21
251.4872963517566
31
0.0
  0
LINE
 8
Arm#2
10
22.360549105376734
20
251.0958889806737
30
0.0
11
22.416606694152094
21
251.28884046683177
31
0.0
  0
LINE
 8
Arm#2
10
22.178468793889422
20
250.73853624850273
30
0.0
11
22.280750313751533
21
250.91148485348276
31
0.0
  0
LINE
 8
Arm#2
10
34.26237222971952
20
265.5846776087849
30
0.0
11
34.13445268876296
21
265.6498558703899
31
0.0
  0
LINE
 8
Arm#2
10
33.151816015563384
20
265.7605724332129
30
0.0
11
33.012600156925394
21
265.72549310243164
31
0.0
  0
LINE
 8
Arm#2
10
35.07235625672452
20
264.15719089286233
30
0.0
11
35.069134880891
21
264.300722204715
31
0.0
  0
LINE
 8
Arm#2
10
33.723054224881
20
265.77339314068803
30
0.0
11
33.58038948979597
21
265.78946759581004
31
0.0
  0
LINE
 8
Arm#2
10
30.731559473586287
20
262.28486296458436
30
0.0
11
30.82277963147471
21
262.10583332439944
31
0.0
  0
LINE
 8
Arm#2
10
30.600756378095628
20
262.8700423750753
30
0.0
11
30.619665529728476
21
262.6700044455357
31
0.0
  0
LINE
 8
Arm#2
10
34.78796240153324
20
265.1042669848053
30
0.0
11
34.700990665389526
21
265.21849277811185
31
0.0
  0
LINE
 8
Arm#2
10
33.86370373063722
20
265.7445950283384
30
0.0
11
33.723054224881
21
265.77339314068803
31
0.0
  0
LINE
 8
Arm#2
10
30.999789163272077
20
263.9783985741179
30
0.0
11
32.39328620732524
21
265.3740821917155
31
0.0
  0
LINE
 8
Arm#2
10
32.62150775839206
20
265.54785051450096
30
0.0
11
32.50349501067131
21
265.46609107394653
31
0.0
  0
LINE
 8
Arm#2
10
32.877089227373425
20
265.67807577736625
30
0.0
11
32.74637428123345
21
265.61870223443714
31
0.0
  0
LINE
 8
Arm#2
10
33.436858177943336
20
265.7926889716438
30
0.0
11
33.29361591905129
21
265.78303133156504
31
0.0
  0
LINE
 8
Arm#2
10
30.82277963147471
20
262.10583332439944
30
0.0
11
30.93571885487988
21
261.9396483037553
31
0.0
  0
LINE
 8
Arm#2
10
33.58038948979597
20
265.78946759581004
30
0.0
11
33.436858177943336
21
265.7926889716438
31
0.0
  0
LINE
 8
Arm#2
10
30.663496977597642
20
262.4739138199372
30
0.0
11
30.731559473586287
21
262.28486296458436
31
0.0
  0
LINE
 8
Arm#2
10
35.024262313419364
20
264.5840364455563
30
0.0
11
34.98297240931003
21
264.72153829486405
31
0.0
  0
LINE
 8
Arm#2
10
34.00120557994486
20
265.70330512422913
30
0.0
11
33.86370373063722
21
265.7445950283384
31
0.0
  0
LINE
 8
Arm#2
10
35.053060425768756
20
264.4433869398002
30
0.0
11
35.024262313419364
21
264.5840364455563
31
0.0
  0
LINE
 8
Arm#2
10
35.04023971829384
20
263.8721487304826
30
0.0
11
35.06269861664573
21
264.0139486339705
31
0.0
  0
LINE
 8
Arm#2
10
34.60412993071519
20
265.3244626456341
30
0.0
11
34.49816006319273
21
265.42132338030865
31
0.0
  0
LINE
 8
Arm#2
10
34.82751779958195
20
263.34184047331115
30
0.0
11
34.89836951951796
21
263.4667069961525
31
0.0
  0
LINE
 8
Arm#2
10
30.876637955841375
20
263.81963299416356
30
0.0
11
30.774356435979445
21
263.6466843891834
31
0.0
  0
LINE
 8
Arm#2
10
30.69455764435424
20
263.4622802619925
30
0.0
11
30.638500055578703
21
263.26932877583437
31
0.0
  0
LINE
 8
Arm#2
10
33.012600156925394
20
265.72549310243164
30
0.0
11
32.877089227373425
21
265.67807577736625
31
0.0
  0
LINE
 8
Arm#2
10
31.068596024782398
20
261.7889287397013
30
0.0
11
31.21931558883599
21
261.6560515697989
31
0.0
  0
LINE
 8
Arm#2
10
31.564530249665246
20
261.45189218850567
30
0.0
11
31.753581105018107
21
261.3838296925171
31
0.0
  0
LINE
 8
Arm#2
10
31.949671730616416
20
261.33999824464803
30
0.0
11
32.14970966015584
21
261.32108909301485
31
0.0
  0
LINE
 8
Arm#2
10
32.35054017599047
20
261.327400446235
30
0.0
11
32.54899606091544
21
261.358832770498
31
0.0
  0
LINE
 8
Arm#2
10
34.89836951951796
20
263.4667069961525
30
0.0
11
34.957743062447044
21
263.5974219422926
31
0.0
  0
LINE
 8
Arm#2
10
34.74575835902742
20
263.2238277255904
30
0.0
11
34.82751779958195
21
263.34184047331115
31
0.0
  0
LINE
 8
Arm#2
10
34.98297240931003
20
264.72153829486405
30
0.0
11
34.92952315547081
21
264.85478540368206
31
0.0
  0
LINE
 8
Arm#2
10
33.25806585919861
20
261.72012187819126
30
0.0
11
34.65374947679647
21
263.1136189222444
31
0.0
  0
LINE
 8
Arm#2
10
31.21931558883599
20
261.6560515697989
30
0.0
11
31.38550060948036
21
261.5431123463938
31
0.0
  0
LINE
 8
Arm#2
10
32.74194754707322
20
261.41489035927333
30
0.0
11
32.92635167426396
21
261.49468915089864
31
0.0
  0
LINE
 8
Arm#2
10
34.700990665389526
20
265.21849277811185
30
0.0
11
34.60412993071519
21
265.3244626456341
31
0.0
  0
LINE
 8
Arm#2
10
27.58250667902489
20
175.14878513948923
30
0.0
11
27.5015716612788
21
175.21520679198878
31
0.0
  0
LINE
 8
Arm#2
10
29.583671784290676
20
260.3040044992096
30
0.0
11
29.42117140585771
21
260.45980383099567
31
0.0
  0
LINE
 8
Arm#2
10
34.65374947679647
20
263.1136189222444
30
0.0
11
34.74575835902742
21
263.2238277255904
31
0.0
  0
LINE
 8
Arm#2
10
26.736395282416662
20
175.53215322572098
30
0.0
11
26.632198381632875
21
175.54241572470465
31
0.0
  0
LINE
 8
Arm#2
10
27.416465747696165
20
175.2761928272069
30
0.0
11
27.327553374864586
21
175.33148209357785
31
0.0
  0
LINE
 8
Arm#2
10
27.23521527921504
20
175.38083783397516
30
0.0
11
27.13984686664885
21
175.42404869954086
31
0.0
  0
LINE
 8
Arm#2
10
27.041856519349658
20
175.46092965471502
30
0.0
11
26.94166384702882
21
175.49132276958534
31
0.0
  0
LINE
 8
Arm#2
10
25.39618252496625
20
175.07721229742128
30
0.0
11
25.324609682898473
21
175.00079475168295
31
0.0
  0
LINE
 8
Arm#2
10
25.819891470514314
20
175.38083783397516
30
0.0
11
25.72755337486477
21
175.3314820935779
31
0.0
  0
LINE
 8
Arm#2
10
25.72755337486477
20
175.3314820935779
30
0.0
11
25.638641002033367
21
175.27619282720678
31
0.0
  0
LINE
 8
Arm#2
10
26.013250230379516
20
175.46092965471504
30
0.0
11
25.915259883080502
21
175.424048699541
31
0.0
  0
LINE
 8
Arm#2
10
26.215408859638934
20
175.51509789616802
30
0.0
11
26.11344290270053
21
175.4913227695853
31
0.0
  0
LINE
 8
Arm#2
10
26.31871146731269
20
175.53215322572098
30
0.0
11
26.215408859638934
21
175.51509789616802
31
0.0
  0
LINE
 8
Arm#2
10
26.42290836809648
20
175.54241572470465
30
0.0
11
26.31871146731269
21
175.53215322572098
31
0.0
  0
LINE
 8
Arm#2
10
26.527553374864585
20
175.54584144752286
30
0.0
11
26.42290836809648
21
175.54241572470465
31
0.0
  0
LINE
 8
Arm#2
10
26.632198381632875
20
175.54241572470465
30
0.0
11
26.527553374864585
21
175.54584144752286
31
0.0
  0
LINE
 8
Arm#2
10
27.73049706683124
20
175.000794751683
30
0.0
11
27.658924224763282
21
175.07721229742128
31
0.0
  0
LINE
 8
Arm#2
10
27.796918719330844
20
174.9198597339368
30
0.0
11
27.73049706683124
21
175.000794751683
31
0.0
  0
LINE
 8
Arm#2
10
27.857904754548798
20
174.83475382035422
30
0.0
11
27.796918719330844
21
174.9198597339368
31
0.0
  0
LINE
 8
Arm#2
10
27.913194020919896
20
174.74584144752288
30
0.0
11
27.857904754548798
21
174.83475382035422
31
0.0
  0
LINE
 8
Arm#2
10
27.962549761317266
20
174.65350335187324
30
0.0
11
27.913194020919896
21
174.74584144752288
31
0.0
  0
LINE
 8
Arm#2
10
28.00576062688292
20
174.558134939307
30
0.0
11
27.962549761317266
21
174.65350335187324
31
0.0
  0
LINE
 8
Arm#2
10
28.04264158205707
20
174.46014459200794
30
0.0
11
28.00576062688292
21
174.558134939307
31
0.0
  0
LINE
 8
Arm#2
10
28.073034696927337
20
174.35995191968686
30
0.0
11
28.04264158205707
21
174.46014459200794
31
0.0
  0
LINE
 8
Arm#2
10
28.09680982351014
20
174.25798596274868
30
0.0
11
28.073034696927337
21
174.35995191968686
31
0.0
  0
LINE
 8
Arm#2
10
28.113865153062882
20
174.15468335507492
30
0.0
11
28.09680982351014
21
174.25798596274868
31
0.0
  0
LINE
 8
Arm#2
10
28.12412765204644
20
174.05048645429105
30
0.0
11
28.113865153062882
21
174.15468335507492
31
0.0
  0
LINE
 8
Arm#2
10
28.127553374864764
20
173.9458414475228
30
0.0
11
28.12412765204644
21
174.05048645429105
31
0.0
  0
LINE
 8
Arm#2
10
28.12412765204644
20
173.84119644075457
30
0.0
11
28.127553374864764
21
173.9458414475228
31
0.0
  0
LINE
 8
Arm#2
10
28.1138651530627
20
173.73699953997072
30
0.0
11
28.12412765204644
21
173.84119644075457
31
0.0
  0
LINE
 8
Arm#2
10
28.096809823509957
20
173.633696932297
30
0.0
11
28.1138651530627
21
173.73699953997072
31
0.0
  0
LINE
 8
Arm#2
10
28.073034696927337
20
173.53173097535876
30
0.0
11
28.096809823509957
21
173.633696932297
31
0.0
  0
LINE
 8
Arm#2
10
28.042641582056888
20
173.43153830303774
30
0.0
11
28.073034696927337
21
173.53173097535876
31
0.0
  0
LINE
 8
Arm#2
10
28.00576062688292
20
173.33354795573865
30
0.0
11
28.042641582056888
21
173.43153830303774
31
0.0
  0
LINE
 8
Arm#2
10
27.962549761317085
20
173.23817954317238
30
0.0
11
28.00576062688292
21
173.33354795573865
31
0.0
  0
LINE
 8
Arm#2
10
27.913194020919896
20
173.14584144752277
30
0.0
11
27.962549761317085
21
173.23817954317238
31
0.0
  0
LINE
 8
Arm#2
10
27.857904754548617
20
173.05692907469142
30
0.0
11
27.913194020919896
21
173.14584144752277
31
0.0
  0
LINE
 8
Arm#2
10
27.796918719330844
20
172.97182316110886
30
0.0
11
27.857904754548617
21
173.05692907469142
31
0.0
  0
LINE
 8
Arm#2
10
27.73049706683106
20
172.89088814336264
30
0.0
11
27.796918719330844
21
172.97182316110886
31
0.0
  0
LINE
 8
Arm#2
10
27.6589242247631
20
172.8144705976243
30
0.0
11
27.73049706683106
21
172.89088814336264
31
0.0
  0
LINE
 8
Arm#2
10
27.58250667902489
20
172.74289775555653
30
0.0
11
27.6589242247631
21
172.8144705976243
31
0.0
  0
LINE
 8
Arm#2
10
27.5015716612788
20
172.6764761030568
30
0.0
11
27.58250667902489
21
172.74289775555653
31
0.0
  0
LINE
 8
Arm#2
10
27.416465747695984
20
172.61549006783875
30
0.0
11
27.5015716612788
21
172.6764761030568
31
0.0
  0
LINE
 8
Arm#2
10
27.327553374864763
20
172.56020080146772
30
0.0
11
27.416465747695984
21
172.61549006783875
31
0.0
  0
LINE
 8
Arm#2
10
27.23521527921522
20
172.51084506107054
30
0.0
11
27.327553374864763
21
172.56020080146772
31
0.0
  0
LINE
 8
Arm#2
10
27.13984686664885
20
172.46763419550476
30
0.0
11
27.23521527921522
21
172.51084506107054
31
0.0
  0
LINE
 8
Arm#2
10
27.041856519349835
20
172.4307532403307
30
0.0
11
27.13984686664885
21
172.46763419550476
31
0.0
  0
LINE
 8
Arm#2
10
26.94166384702882
20
172.40036012546028
30
0.0
11
27.041856519349835
21
172.4307532403307
31
0.0
  0
LINE
 8
Arm#2
10
26.839697890090598
20
172.37658499887763
30
0.0
11
26.94166384702882
21
172.40036012546028
31
0.0
  0
LINE
 8
Arm#2
10
26.736395282416844
20
172.35952966932467
30
0.0
11
26.839697890090598
21
172.37658499887763
31
0.0
  0
LINE
 8
Arm#2
10
26.632198381633053
20
172.34926717034114
30
0.0
11
26.736395282416844
21
172.35952966932467
31
0.0
  0
LINE
 8
Arm#2
10
26.527553374864766
20
172.3458414475228
30
0.0
11
26.632198381633053
21
172.34926717034114
31
0.0
  0
LINE
 8
Arm#2
10
28.296651368789227
20
261.1983054989943
30
0.0
11
28.08911070911307
21
261.28552177819176
31
0.0
  0
LINE
 8
Arm#2
10
26.785778594504176
20
165.07054540456144
30
0.0
11
26.752230702738732
21
165.03844180581055
31
0.0
  0
LINE
 8
Arm#2
10
30.60373785835374
20
251.87289393695727
30
0.0
11
30.584828706720714
21
251.67285600741783
31
0.0
  0
LINE
 8
Arm#2
10
30.622572384203785
20
251.27356960665836
30
0.0
11
30.678629972979145
21
251.08061812050036
31
0.0
  0
LINE
 8
Arm#2
10
33.24213818782369
20
252.8227765043016
30
0.0
11
34.63782180542119
21
251.42927946024838
31
0.0
  0
LINE
 8
Arm#2
10
24.139478872349628
20
165.46314472842136
30
0.0
11
24.064334383734682
21
165.40810515745372
31
0.0
  0
LINE
 8
Arm#2
10
23.661780855091404
20
164.90253668922645
30
0.0
11
23.62497157888327
21
164.8169731121243
31
0.0
  0
LINE
 8
Arm#2
10
34.8484172224906
20
249.5601934378541
30
0.0
11
34.913595484095715
21
249.68811297881066
31
0.0
  0
LINE
 8
Arm#2
10
25.876683117360457
20
261.5295396449623
30
0.0
11
25.655123484298347
21
261.4896506267586
31
0.0
  0
LINE
 8
Arm#2
10
25.09828875288435
20
165.70680741154212
30
0.0
11
24.928708882924735
21
165.70680741154214
31
0.0
  0
LINE
 8
Arm#2
10
26.53916823375354
20
164.95700018598342
30
0.0
11
26.492759962344874
21
164.95854110762335
31
0.0
  0
LINE
 8
Arm#2
10
32.48756733929621
20
249.07680730854625
30
0.0
11
32.60558008701697
21
248.9950478679918
31
0.0
  0
LINE
 8
Arm#2
10
25.980051916239873
20
165.38892687691833
30
0.0
11
25.90361138329699
21
165.44741930470008
31
0.0
  0
LINE
 8
Arm#2
10
26.360408723269693
20
164.99929698010433
30
0.0
11
26.32117268738221
21
165.0241291282693
31
0.0
  0
LINE
 8
Arm#2
10
35.04677094527064
20
250.5289497485224
30
0.0
11
35.02431204691856
21
250.6707496520103
31
0.0
  0
LINE
 8
Arm#2
10
29.430135170847343
20
164.8169731121244
30
0.0
11
29.39332589463903
21
164.90253668922657
31
0.0
  0
LINE
 8
Arm#2
10
20.03033338215825
20
241.68080288914783
30
0.0
11
20.173756276403868
21
241.68724401875525
31
0.0
  0
LINE
 8
Arm#2
10
27.491762351447186
20
165.62511794215087
30
0.0
11
27.402310101562183
21
165.58958184536306
31
0.0
  0
LINE
 8
Arm#2
10
24.79876227311108
20
261.2162512836036
30
0.0
11
24.59507613907483
21
261.1203775980729
31
0.0
  0
LINE
 8
Arm#2
10
25.341507285129744
20
160.0351467086461
30
0.0
11
25.394284897088966
21
159.9569935319908
31
0.0
  0
LINE
 8
Arm#2
10
29.73779555459165
20
260.13991407229787
30
0.0
11
29.583671784290676
21
260.3040044992096
31
0.0
  0
LINE
 8
Arm#2
10
25.43595512092451
20
261.43822073980687
30
0.0
11
25.219778752488683
21
261.3753909498525
31
0.0
  0
LINE
 8
Arm#2
10
28.404032618381592
20
165.6790023483923
30
0.0
11
28.31217329288517
21
165.69442677255753
31
0.0
  0
LINE
 8
Arm#2
10
24.47144355747151
20
165.6300263738224
30
0.0
11
24.38446745377345
21
165.59669161828134
31
0.0
  0
LINE
 8
Arm#2
10
24.742933456845446
20
165.69442677255765
30
0.0
11
24.65107413134902
21
165.67900234839237
31
0.0
  0
LINE
 8
Arm#2
10
29.250024349041656
20
165.14195023071633
30
0.0
11
29.192004179254397
21
165.21481797693747
31
0.0
  0
LINE
 8
Arm#2
10
24.2999004649005
20
165.55764711886752
30
0.0
11
24.21811693131252
21
165.51306570821984
31
0.0
  0
LINE
 8
Arm#2
10
25.219778752488683
20
261.3753909498525
30
0.0
11
25.007186903390387
21
261.3013334689822
31
0.0
  0
LINE
 8
Arm#2
10
27.77175757120324
20
165.69382672062184
30
0.0
11
27.67692354803046
21
165.67736381585888
31
0.0
  0
LINE
 8
Arm#2
10
24.21811693131252
20
165.51306570821984
30
0.0
11
24.139478872349628
21
165.46314472842136
31
0.0
  0
LINE
 8
Arm#2
10
27.956817996846446
20
165.70680741154206
30
0.0
11
27.867498532395334
21
165.7037356829508
31
0.0
  0
LINE
 8
Arm#2
10
25.394284897088966
20
159.9569935319908
30
0.0
11
25.452203820488908
21
159.88257045991216
31
0.0
  0
LINE
 8
Arm#2
10
34.368006598510995
20
249.03460326604045
30
0.0
11
34.48223239181763
21
249.1215750021842
31
0.0
  0
LINE
 8
Arm#2
10
29.518418961317117
20
164.45606313985974
30
0.0
11
29.505413191900157
21
164.5482959892322
31
0.0
  0
LINE
 8
Arm#2
10
26.446964083994068
20
164.9662118064663
30
0.0
11
26.40258664432799
21
164.9798772718198
31
0.0
  0
LINE
 8
Arm#2
10
32.86116155599833
20
248.8648226051266
30
0.0
11
32.99667248555012
21
248.81740528006117
31
0.0
  0
LINE
 8
Arm#2
10
28.49934305383254
20
261.1003469077928
30
0.0
11
28.296651368789227
21
261.1983054989943
31
0.0
  0
LINE
 8
Arm#2
10
29.883120274219227
20
259.96798231071483
30
0.0
11
29.73779555459165
21
260.13991407229787
31
0.0
  0
LINE
 8
Arm#2
10
26.285569123597433
20
165.0539366498112
30
0.0
11
26.254224684310884
21
165.08819490750858
31
0.0
  0
LINE
 8
Arm#2
10
25.891495957697124
20
159.53190153297473
30
0.0
11
25.97690290661092
21
159.4919134294605
31
0.0
  0
LINE
 8
Arm#2
10
25.90361138329699
20
165.44741930470008
30
0.0
11
25.823333049904004
21
165.50052211415536
31
0.0
  0
LINE
 8
Arm#2
10
26.182929196812154
20
165.18388651932045
30
0.0
11
26.11999463491372
21
165.2569028808807
31
0.0
  0
LINE
 8
Arm#2
10
26.40258664432799
20
164.9798772718198
30
0.0
11
26.360408723269693
21
164.99929698010433
31
0.0
  0
LINE
 8
Arm#2
10
32.133781988780925
20
253.22180928947813
30
0.0
11
31.933744059241498
21
253.2029001378452
31
0.0
  0
LINE
 8
Arm#2
10
31.933744059241498
20
253.2029001378452
30
0.0
11
31.73765343364301
21
253.15906868997612
31
0.0
  0
LINE
 8
Arm#2
10
32.7260198756983
20
253.12800802321962
30
0.0
11
32.53306838954017
21
253.18406561199498
31
0.0
  0
LINE
 8
Arm#2
10
29.192004179254397
20
165.21481797693747
30
0.0
11
29.129267044113604
21
165.2836663641068
31
0.0
  0
LINE
 8
Arm#2
10
29.062090653022395
20
165.3481906310258
30
0.0
11
28.990772365995753
21
165.40810515745372
31
0.0
  0
LINE
 8
Arm#2
10
25.378183201699795
20
165.6773638158589
30
0.0
11
25.283349178527377
21
165.69382672062187
31
0.0
  0
LINE
 8
Arm#2
10
23.568803614951268
20
164.6394598760421
30
0.0
11
23.549693557830278
21
164.54829598923203
31
0.0
  0
LINE
 8
Arm#2
10
34.77203473015815
20
249.43863139768754
30
0.0
11
34.8484172224906
21
249.5601934378541
31
0.0
  0
LINE
 8
Arm#2
10
30.686689493339244
20
258.37068287527404
30
0.0
11
30.623859703384877
21
258.58685924370997
31
0.0
  0
LINE
 8
Arm#2
10
28.836989818418097
20
165.5130657082198
30
0.0
11
28.755206284829935
21
165.55764711886746
31
0.0
  0
LINE
 8
Arm#2
10
34.98923271613736
20
250.80996551064837
30
0.0
11
34.94181539107195
21
250.94547644020025
31
0.0
  0
LINE
 8
Arm#2
10
24.38446745377345
20
165.59669161828134
30
0.0
11
24.2999004649005
21
165.55764711886752
31
0.0
  0
LINE
 8
Arm#2
10
30.549802222514582
20
258.7994510928083
30
0.0
11
30.464720037136097
21
259.0078757230874
31
0.0
  0
LINE
 8
Arm#2
10
34.81159012820685
20
251.20105790918163
30
0.0
11
34.729830687652324
21
251.31907065690243
31
0.0
  0
LINE
 8
Arm#2
10
25.739596247172024
20
165.54798438393502
30
0.0
11
25.652796648168433
21
165.5895818453631
31
0.0
  0
LINE
 8
Arm#2
10
27.44314049372212
20
261.4804772747022
30
0.0
11
27.22200181133031
21
261.52263753947744
31
0.0
  0
LINE
 8
Arm#2
10
25.808974617392387
20
159.57754826056544
30
0.0
11
25.891495957697124
21
159.53190153297473
31
0.0
  0
LINE
 8
Arm#2
10
30.860710284466638
20
250.72326538832942
30
0.0
11
30.98386149189698
21
250.56449980837507
31
0.0
  0
LINE
 8
Arm#2
10
27.501571661278255
20
184.6904376598886
30
0.0
11
27.416465747695625
21
184.7514236951066
31
0.0
  0
LINE
 8
Arm#2
10
26.632198381632513
20
185.01764659260434
30
0.0
11
26.527553374864226
21
185.02107231542263
31
0.0
  0
LINE
 8
Arm#2
10
27.139846866648305
20
184.8992795674406
30
0.0
11
27.041856519349295
21
184.93616052261473
31
0.0
  0
LINE
 8
Arm#2
10
27.235215279214678
20
184.85606870187493
30
0.0
11
27.139846866648305
21
184.8992795674406
31
0.0
  0
LINE
 8
Arm#2
10
27.327553374864404
20
184.8067129614777
30
0.0
11
27.235215279214678
21
184.85606870187493
31
0.0
  0
LINE
 8
Arm#2
10
28.11386515306234
20
183.21223040787055
30
0.0
11
28.12412765204626
21
183.3164273086544
31
0.0
  0
LINE
 8
Arm#2
10
28.073034696926975
20
183.0069618432586
30
0.0
11
28.096809823509417
21
183.10892780019677
31
0.0
  0
LINE
 8
Arm#2
10
27.730497066830697
20
184.47602561958274
30
0.0
11
27.65892422476292
21
184.5524431653211
31
0.0
  0
LINE
 8
Arm#2
10
25.197201995180556
20
182.5321599425912
30
0.0
11
25.258188030398507
21
182.4470540290086
31
0.0
  0
LINE
 8
Arm#2
10
25.258188030398507
20
182.4470540290086
30
0.0
11
25.324609682898114
21
182.36611901126238
31
0.0
  0
LINE
 8
Arm#2
10
25.324609682898114
20
182.36611901126238
30
0.0
11
25.396182524966072
21
182.28970146552405
31
0.0
  0
LINE
 8
Arm#2
10
25.727553374864225
20
184.8067129614776
30
0.0
11
25.638641002033005
21
184.75142369510658
31
0.0
  0
LINE
 8
Arm#2
10
25.638641002033005
20
184.75142369510658
30
0.0
11
25.553535088450374
21
184.69043765988846
31
0.0
  0
LINE
 8
Arm#2
10
27.857904754548436
20
184.30998468825405
30
0.0
11
27.7969187193303
21
184.39509060183659
31
0.0
  0
LINE
 8
Arm#2
10
25.141912728809455
20
182.62107231542248
30
0.0
11
25.197201995180556
21
182.5321599425912
31
0.0
  0
LINE
 8
Arm#2
10
24.930979097682734
20
183.31642730865423
30
0.0
11
24.94124159666629
21
183.21223040787038
31
0.0
  0
LINE
 8
Arm#2
10
24.927553374864228
20
183.4210723154225
30
0.0
11
24.930979097682734
21
183.31642730865423
31
0.0
  0
LINE
 8
Arm#2
10
25.0124651676721
20
183.9353754599075
30
0.0
11
24.982072052801836
21
183.8351827875865
31
0.0
  0
LINE
 8
Arm#2
10
25.25818803039833
20
184.39509060183642
30
0.0
11
25.197201995180375
21
184.30998468825388
31
0.0
  0
LINE
 8
Arm#2
10
26.94166384702828
20
184.96655363748505
30
0.0
11
26.839697890090235
21
184.9903287640677
31
0.0
  0
LINE
 8
Arm#2
10
27.582506679024526
20
184.62401600738897
30
0.0
11
27.501571661278255
21
184.6904376598886
31
0.0
  0
LINE
 8
Arm#2
10
26.422908368096117
20
185.01764659260434
30
0.0
11
26.31871146731215
21
185.00738409362063
31
0.0
  0
LINE
 8
Arm#2
10
26.31871146731215
20
185.00738409362063
30
0.0
11
26.215408859638575
21
184.99032876406767
31
0.0
  0
LINE
 8
Arm#2
10
25.638641002033186
20
182.0907209357384
30
0.0
11
25.727553374864588
21
182.03543166936745
31
0.0
  0
LINE
 8
Arm#2
10
27.913194020919534
20
182.62107231542268
30
0.0
11
27.962549761316723
21
182.71341041107223
31
0.0
  0
LINE
 8
Arm#2
10
25.092556988411907
20
184.12873421977287
30
0.0
11
25.049346122846252
21
184.03336580720662
31
0.0
  0
LINE
 8
Arm#2
10
27.73049706683088
20
182.36611901126247
30
0.0
11
27.79691871933048
21
182.44705402900863
31
0.0
  0
LINE
 8
Arm#2
10
25.39618252496589
20
184.552443165321
30
0.0
11
25.324609682898114
21
184.47602561958263
31
0.0
  0
LINE
 8
Arm#2
10
27.79691871933048
20
182.44705402900863
30
0.0
11
27.857904754548436
21
182.5321599425913
31
0.0
  0
LINE
 8
Arm#2
10
27.416465747695803
20
182.09072093573855
30
0.0
11
27.501571661278437
21
182.15170697095655
31
0.0
  0
LINE
 8
Arm#2
10
27.139846866648668
20
181.94286506340453
30
0.0
11
27.23521527921486
21
181.9860759289703
31
0.0
  0
LINE
 8
Arm#2
10
26.736395282416662
20
181.83476053722453
30
0.0
11
26.839697890090417
21
181.85181586677746
31
0.0
  0
LINE
 8
Arm#2
10
25.81989147051395
20
184.85606870187485
30
0.0
11
25.727553374864225
21
184.8067129614776
31
0.0
  0
LINE
 8
Arm#2
10
27.327553374864404
20
182.03543166936748
30
0.0
11
27.416465747695803
21
182.09072093573855
31
0.0
  0
LINE
 8
Arm#2
10
25.472600070704285
20
182.21812862345615
30
0.0
11
25.553535088450552
21
182.15170697095655
31
0.0
  0
LINE
 8
Arm#2
10
27.041856519349295
20
184.93616052261473
30
0.0
11
26.94166384702828
21
184.96655363748505
31
0.0
  0
LINE
 8
Arm#2
10
27.582506679024707
20
182.21812862345632
30
0.0
11
27.6589242247631
21
182.2897014655242
31
0.0
  0
LINE
 8
Arm#2
10
27.23521527921486
20
181.9860759289703
30
0.0
11
27.327553374864404
21
182.03543166936748
31
0.0
  0
LINE
 8
Arm#2
10
27.857904754548436
20
182.5321599425913
30
0.0
11
27.913194020919534
21
182.62107231542268
31
0.0
  0
LINE
 8
Arm#2
10
26.94166384702864
20
181.87559099336005
30
0.0
11
27.041856519349476
21
181.9059841082304
31
0.0
  0
LINE
 8
Arm#2
10
27.501571661278437
20
182.15170697095655
30
0.0
11
27.582506679024707
21
182.21812862345632
31
0.0
  0
LINE
 8
Arm#2
10
27.041856519349476
20
181.9059841082304
30
0.0
11
27.139846866648668
21
181.94286506340453
31
0.0
  0
LINE
 8
Arm#2
10
26.215408859638757
20
181.8518158667774
30
0.0
11
26.318711467312507
21
181.83476053722453
31
0.0
  0
LINE
 8
Arm#2
10
25.396182524966072
20
182.28970146552405
30
0.0
11
25.472600070704285
21
182.21812862345615
31
0.0
  0
LINE
 8
Arm#2
10
24.94124159666629
20
183.21223040787038
30
0.0
11
24.958296926219212
21
183.10892780019668
31
0.0
  0
LINE
 8
Arm#2
10
25.324609682898114
20
184.47602561958263
30
0.0
11
25.25818803039833
21
184.39509060183642
31
0.0
  0
LINE
 8
Arm#2
10
24.982072052801836
20
183.8351827875865
30
0.0
11
24.958296926219035
21
183.73321683064827
31
0.0
  0
LINE
 8
Arm#2
10
24.93097909768237
20
183.52571732219067
30
0.0
11
24.927553374864228
21
183.4210723154225
31
0.0
  0
LINE
 8
Arm#2
10
24.958296926219035
20
183.73321683064827
30
0.0
11
24.94124159666629
21
183.62991422297458
31
0.0
  0
LINE
 8
Arm#2
10
24.94124159666629
20
183.62991422297458
30
0.0
11
24.93097909768237
21
183.52571732219067
31
0.0
  0
LINE
 8
Arm#2
10
25.092556988412085
20
182.71341041107212
30
0.0
11
25.141912728809455
21
182.62107231542248
31
0.0
  0
LINE
 8
Arm#2
10
26.318711467312507
20
181.83476053722453
30
0.0
11
26.422908368096298
21
181.82449803824085
31
0.0
  0
LINE
 8
Arm#2
10
26.422908368096298
20
181.82449803824085
30
0.0
11
26.527553374864585
21
181.8210723154226
31
0.0
  0
LINE
 8
Arm#2
10
25.04934612284643
20
182.8087788236384
30
0.0
11
25.092556988412085
21
182.71341041107212
31
0.0
  0
LINE
 8
Arm#2
10
25.012465167672463
20
182.90676917093745
30
0.0
11
25.04934612284643
21
182.8087788236384
31
0.0
  0
LINE
 8
Arm#2
10
25.553535088450374
20
184.69043765988846
30
0.0
11
25.472600070704285
21
184.62401600738883
31
0.0
  0
LINE
 8
Arm#2
10
25.472600070704285
20
184.62401600738883
30
0.0
11
25.39618252496589
21
184.552443165321
31
0.0
  0
LINE
 8
Arm#2
10
24.982072052801836
20
183.0069618432585
30
0.0
11
25.012465167672463
21
182.90676917093745
31
0.0
  0
LINE
 8
Arm#2
10
24.958296926219212
20
183.10892780019668
30
0.0
11
24.982072052801836
21
183.0069618432585
31
0.0
  0
LINE
 8
Arm#2
10
25.049346122846252
20
184.03336580720662
30
0.0
11
25.0124651676721
21
183.9353754599075
31
0.0
  0
LINE
 8
Arm#2
10
25.915259883080143
20
184.89927956744063
30
0.0
11
25.81989147051395
21
184.85606870187485
31
0.0
  0
LINE
 8
Arm#2
10
27.65892422476292
20
184.5524431653211
30
0.0
11
27.582506679024526
21
184.62401600738897
31
0.0
  0
LINE
 8
Arm#2
10
25.553535088450552
20
182.15170697095655
30
0.0
11
25.638641002033186
21
182.0907209357384
31
0.0
  0
LINE
 8
Arm#2
10
27.6589242247631
20
182.2897014655242
30
0.0
11
27.73049706683088
21
182.36611901126247
31
0.0
  0
LINE
 8
Arm#2
10
27.962549761316723
20
182.71341041107223
30
0.0
11
28.005760626882378
21
182.80877882363842
31
0.0
  0
LINE
 8
Arm#2
10
26.839697890090417
20
181.85181586677746
30
0.0
11
26.94166384702864
21
181.87559099336005
31
0.0
  0
LINE
 8
Arm#2
10
26.632198381632694
20
181.82449803824085
30
0.0
11
26.736395282416662
21
181.83476053722453
31
0.0
  0
LINE
 8
Arm#2
10
26.527553374864585
20
181.8210723154226
30
0.0
11
26.632198381632694
21
181.82449803824085
31
0.0
  0
LINE
 8
Arm#2
10
26.839697890090235
20
184.9903287640677
30
0.0
11
26.736395282416304
21
185.0073840936207
31
0.0
  0
LINE
 8
Arm#2
10
27.962549761316545
20
184.12873421977307
30
0.0
11
27.913194020919356
21
184.22107231542265
31
0.0
  0
LINE
 8
Arm#2
10
28.005760626882378
20
184.03336580720676
30
0.0
11
27.962549761316545
21
184.12873421977307
31
0.0
  0
LINE
 8
Arm#2
10
27.7969187193303
20
184.39509060183659
30
0.0
11
27.730497066830697
21
184.47602561958274
31
0.0
  0
LINE
 8
Arm#2
10
28.12412765204626
20
183.3164273086544
30
0.0
11
28.1275533748644
21
183.4210723154227
31
0.0
  0
LINE
 8
Arm#2
10
28.04264158205653
20
183.93537545990773
30
0.0
11
28.005760626882378
21
184.03336580720676
31
0.0
  0
LINE
 8
Arm#2
10
28.12412765204626
20
183.5257173221909
30
0.0
11
28.11386515306234
21
183.6299142229747
31
0.0
  0
LINE
 8
Arm#2
10
28.1275533748644
20
183.4210723154227
30
0.0
11
28.12412765204626
21
183.5257173221909
31
0.0
  0
LINE
 8
Arm#2
10
28.073034696926793
20
183.8351827875867
30
0.0
11
28.04264158205653
21
183.93537545990773
31
0.0
  0
LINE
 8
Arm#2
10
28.04264158205653
20
182.9067691709376
30
0.0
11
28.073034696926975
21
183.0069618432586
31
0.0
  0
LINE
 8
Arm#2
10
28.096809823509417
20
183.73321683064842
30
0.0
11
28.073034696926793
21
183.8351827875867
31
0.0
  0
LINE
 8
Arm#2
10
27.913194020919356
20
184.22107231542265
30
0.0
11
27.857904754548436
21
184.30998468825405
31
0.0
  0
LINE
 8
Arm#2
10
28.11386515306234
20
183.6299142229747
30
0.0
11
28.096809823509417
21
183.73321683064842
31
0.0
  0
LINE
 8
Arm#2
10
28.096809823509417
20
183.10892780019677
30
0.0
11
28.11386515306234
21
183.21223040787055
31
0.0
  0
LINE
 8
Arm#2
10
28.005760626882378
20
182.80877882363842
30
0.0
11
28.04264158205653
21
182.9067691709376
31
0.0
  0
LINE
 8
Arm#2
10
26.11344290270017
20
184.96655363748505
30
0.0
11
26.013250230379334
21
184.93616052261464
31
0.0
  0
LINE
 8
Arm#2
10
26.11344290270053
20
181.87559099336005
30
0.0
11
26.215408859638757
21
181.8518158667774
31
0.0
  0
LINE
 8
Arm#2
10
25.915259883080324
20
181.94286506340447
30
0.0
11
26.013250230379516
21
181.90598410823037
31
0.0
  0
LINE
 8
Arm#2
10
25.197201995180375
20
184.30998468825388
30
0.0
11
25.141912728809274
21
184.2210723154225
31
0.0
  0
LINE
 8
Arm#2
10
25.141912728809274
20
184.2210723154225
30
0.0
11
25.092556988411907
21
184.12873421977287
31
0.0
  0
LINE
 8
Arm#2
10
26.013250230379516
20
181.90598410823037
30
0.0
11
26.11344290270053
21
181.87559099336005
31
0.0
  0
LINE
 8
Arm#2
10
25.819891470514133
20
181.9860759289702
30
0.0
11
25.915259883080324
21
181.94286506340447
31
0.0
  0
LINE
 8
Arm#2
10
25.727553374864588
20
182.03543166936745
30
0.0
11
25.819891470514133
21
181.9860759289702
31
0.0
  0
LINE
 8
Arm#2
10
26.527553374864226
20
185.02107231542263
30
0.0
11
26.422908368096117
21
185.01764659260434
31
0.0
  0
LINE
 8
Arm#2
10
26.736395282416304
20
185.0073840936207
30
0.0
11
26.632198381632513
21
185.01764659260434
31
0.0
  0
LINE
 8
Arm#2
10
26.215408859638575
20
184.99032876406767
30
0.0
11
26.11344290270017
21
184.96655363748505
31
0.0
  0
LINE
 8
Arm#2
10
27.416465747695625
20
184.7514236951066
30
0.0
11
27.327553374864404
21
184.8067129614777
31
0.0
  0
LINE
 8
Arm#2
10
26.013250230379334
20
184.93616052261464
30
0.0
11
25.915259883080143
21
184.89927956744063
31
0.0
 0
ENDSEC
 0
EOF
